<svg width="32" height="32" viewBox="0 0 32 32" fill="none" xmlns="http://www.w3.org/2000/svg">
<rect width="32" height="32" fill="white"/>
<path d="M27.6572 16.4541C27.7614 16.4541 27.8619 16.4957 27.9355 16.5693C28.0089 16.643 28.0498 16.7427 28.0498 16.8467V17.8652C28.0498 17.9692 28.009 18.069 27.9355 18.1426C27.8619 18.2163 27.7614 18.2578 27.6572 18.2578C27.5531 18.2578 27.4535 18.2162 27.3799 18.1426C27.3063 18.0689 27.2647 17.9694 27.2646 17.8652V16.8467C27.2647 16.7425 27.3062 16.643 27.3799 16.5693C27.4535 16.4957 27.5531 16.4541 27.6572 16.4541Z" fill="#2B2A28" stroke="#2B2A28" stroke-width="0.1"/>
<path d="M26.6289 3.9502C27.0058 3.95028 27.3673 4.09972 27.6338 4.36621C27.9003 4.6327 28.0497 4.99423 28.0498 5.37109V11.0488C28.0498 11.153 28.0082 11.2535 27.9346 11.3271C27.8609 11.4006 27.7613 11.4424 27.6572 11.4424C27.553 11.4424 27.4526 11.4008 27.3789 11.3271C27.3053 11.2535 27.2646 11.153 27.2646 11.0488V5.37109C27.2646 5.20261 27.1973 5.04102 27.0781 4.92188C26.959 4.80273 26.7974 4.73544 26.6289 4.73535H5.37109C5.20261 4.73544 5.04102 4.80273 4.92188 4.92188C4.80273 5.04102 4.73544 5.20261 4.73535 5.37109V26.6289C4.73544 26.7974 4.80273 26.959 4.92188 27.0781C5.04102 27.1973 5.20261 27.2646 5.37109 27.2646H26.6289C26.7974 27.2646 26.959 27.1973 27.0781 27.0781C27.1973 26.959 27.2646 26.7974 27.2646 26.6289V20.2656C27.2646 20.1615 27.3054 20.061 27.3789 19.9873C27.4526 19.9136 27.553 19.8721 27.6572 19.8721C27.7613 19.8721 27.8609 19.9138 27.9346 19.9873C28.0082 20.061 28.0498 20.1614 28.0498 20.2656V26.6289C28.0497 27.0058 27.9003 27.3673 27.6338 27.6338C27.3673 27.9003 27.0058 28.0497 26.6289 28.0498H5.37109C4.99423 28.0497 4.6327 27.9003 4.36621 27.6338C4.09972 27.3673 3.95028 27.0058 3.9502 26.6289V5.37109C3.95028 4.99423 4.09972 4.6327 4.36621 4.36621C4.6327 4.09972 4.99423 3.95028 5.37109 3.9502H26.6289Z" fill="#2B2A28" stroke="#2B2A28" stroke-width="0.1"/>
<path d="M27.6572 13.0557C27.7614 13.0557 27.8619 13.0972 27.9355 13.1709C28.0089 13.2445 28.0498 13.3443 28.0498 13.4482V14.4463C28.0497 14.5502 28.009 14.65 27.9355 14.7236C27.8619 14.7973 27.7614 14.8389 27.6572 14.8389C27.5531 14.8388 27.4535 14.7972 27.3799 14.7236C27.3063 14.65 27.2647 14.5504 27.2646 14.4463V13.4482C27.2647 13.3441 27.3062 13.2446 27.3799 13.1709C27.4535 13.0972 27.5531 13.0557 27.6572 13.0557Z" fill="#2B2A28" stroke="#2B2A28" stroke-width="0.1"/>
<path d="M23.542 8.06738C23.645 8.06828 23.7436 8.10978 23.8164 8.18262C23.8892 8.25545 23.9307 8.35405 23.9316 8.45703C23.9322 8.53407 23.9103 8.609 23.8691 8.67285L23.8213 8.7334L17.7861 14.7676C17.7125 14.8412 17.6129 14.8828 17.5088 14.8828C17.4312 14.8828 17.3556 14.8595 17.291 14.8164C17.2264 14.7732 17.1752 14.7124 17.1455 14.6406C17.1158 14.5688 17.1089 14.4893 17.124 14.4131C17.1392 14.3371 17.1766 14.2667 17.2314 14.2119L23.2656 8.17773L23.3262 8.12988C23.39 8.08874 23.4649 8.06677 23.542 8.06738Z" fill="#2B2A28" stroke="#2B2A28" stroke-width="0.1"/>
<path d="M23.543 8.06348C23.6472 8.06348 23.7476 8.10504 23.8213 8.17871C23.8947 8.25233 23.9355 8.35206 23.9355 8.45605V11.6318C23.9355 11.736 23.895 11.8365 23.8213 11.9102C23.7476 11.9838 23.6472 12.0244 23.543 12.0244C23.439 12.0244 23.3392 11.9836 23.2656 11.9102C23.192 11.8365 23.1504 11.736 23.1504 11.6318V8.84863H20.3672C20.2632 8.84861 20.1635 8.80778 20.0898 8.73438C20.0162 8.6607 19.9746 8.56025 19.9746 8.45605C19.9746 8.35189 20.0162 8.25237 20.0898 8.17871C20.1635 8.10506 20.263 8.0635 20.3672 8.06348H23.543Z" fill="#2B2A28" stroke="#2B2A28" stroke-width="0.1"/>
<path d="M14.4902 17.1221C14.5932 17.123 14.6918 17.1645 14.7646 17.2373C14.8375 17.3101 14.879 17.4087 14.8799 17.5117C14.8805 17.5888 14.8585 17.6637 14.8174 17.7275L14.7695 17.7881L8.73438 23.8223C8.67919 23.8774 8.60958 23.9146 8.53418 23.9297L8.45703 23.9375C8.3794 23.9375 8.30381 23.9142 8.23926 23.8711C8.17467 23.8279 8.12348 23.7671 8.09375 23.6953C8.06402 23.6235 8.05711 23.544 8.07227 23.4678C8.08748 23.3918 8.12488 23.3214 8.17969 23.2666L14.2139 17.2324L14.2744 17.1846C14.3383 17.1434 14.4132 17.1215 14.4902 17.1221Z" fill="#2B2A28" stroke="#2B2A28" stroke-width="0.1"/>
<path d="M8.45703 19.9736C8.50856 19.9736 8.55981 19.9832 8.60742 20.0029C8.65508 20.0227 8.69887 20.0524 8.73535 20.0889C8.77163 20.1253 8.80064 20.1683 8.82031 20.2158C8.84004 20.2635 8.8496 20.3146 8.84961 20.3662V23.1494H11.6328C11.737 23.1494 11.8375 23.191 11.9111 23.2646C11.9846 23.3382 12.0253 23.438 12.0254 23.542C12.0254 23.6462 11.9848 23.7466 11.9111 23.8203C11.8375 23.894 11.737 23.9346 11.6328 23.9346H8.45703C8.35304 23.9345 8.25331 23.8937 8.17969 23.8203C8.10601 23.7466 8.06445 23.6462 8.06445 23.542V20.3662C8.06446 20.3147 8.07403 20.2634 8.09375 20.2158C8.11349 20.1682 8.14321 20.1253 8.17969 20.0889C8.21617 20.0524 8.25898 20.0227 8.30664 20.0029C8.35427 19.9832 8.40548 19.9736 8.45703 19.9736Z" fill="#2B2A28" stroke="#2B2A28" stroke-width="0.1"/>
</svg>
