<svg width="62" height="62" viewBox="0 0 62 62" fill="none" xmlns="http://www.w3.org/2000/svg">
<rect opacity="0.58" width="62" height="62" fill="white"/>
<path d="M3.63281 0.0751953H51.8291C53.7907 0.0753029 55.3867 1.67116 55.3867 3.63281V10.0508C55.3867 10.6781 54.8783 11.1864 54.251 11.1865C53.6236 11.1865 53.1152 10.6782 53.1152 10.0508V3.63281C53.1152 2.92376 52.5381 2.34679 51.8291 2.34668H3.63281C2.92371 2.34671 2.34671 2.92371 2.34668 3.63281V58.3682C2.34674 59.0772 2.92373 59.6543 3.63281 59.6543H51.8291C52.5381 59.6542 53.1152 59.0772 53.1152 58.3682V54.9775C53.1152 54.3502 53.6236 53.8418 54.251 53.8418C54.8783 53.8419 55.3867 54.3502 55.3867 54.9775V58.3682C55.3867 60.3298 53.7907 61.9257 51.8291 61.9258H3.63281C1.67113 61.9258 0.0752512 60.3298 0.0751953 58.3682V3.63281C0.0752248 1.67111 1.67111 0.0752249 3.63281 0.0751953Z" fill="#CB8734" stroke="white" stroke-width="0.15"/>
<path d="M7.02246 5.8877H48.4385C49.0659 5.8877 49.5742 6.39606 49.5742 7.02344V10.1719C49.5742 10.7993 49.0659 11.3076 48.4385 11.3076C47.8113 11.3075 47.3027 10.7992 47.3027 10.1719V8.15918H8.1582V32.332C8.1582 32.9594 7.64985 33.4688 7.02246 33.4688C6.39508 33.4687 5.88672 32.9594 5.88672 32.332V7.02344C5.88673 6.39606 6.39509 5.88771 7.02246 5.8877Z" fill="#CB8734" stroke="white" stroke-width="0.15"/>
<path d="M7.02246 40.3408C7.64984 40.3408 8.15819 40.8492 8.1582 41.4766V53.8428H47.3027V52.3145C47.3028 51.6872 47.8112 51.1788 48.4385 51.1787C49.0658 51.1787 49.5741 51.6871 49.5742 52.3145V54.9785C49.5742 55.6059 49.0659 56.1143 48.4385 56.1143H7.02246C6.39508 56.1142 5.88672 55.6059 5.88672 54.9785V41.4766C5.88673 40.8492 6.39509 40.3408 7.02246 40.3408Z" fill="#CB8734" stroke="white" stroke-width="0.15"/>
<path d="M35.8682 42.8408C36.3119 42.3972 37.031 42.3981 37.4746 42.8418C37.9182 43.2855 37.9182 44.0047 37.4746 44.4482L35.0723 46.8506C34.6174 47.3054 34.0197 47.5332 33.4219 47.5332C32.8241 47.5331 32.2263 47.3054 31.7715 46.8506L30.2842 45.3623L30.2314 45.3096L30.1777 45.3623L29.2197 46.3213C28.776 46.7649 28.0559 46.7649 27.6123 46.3213C27.1691 45.8776 27.169 45.1583 27.6123 44.7148L28.5811 43.7471C29.4911 42.8372 30.9718 42.8372 31.8818 43.7471L33.3691 45.2344L33.4219 45.2881L33.4756 45.2344L35.8682 42.8408Z" fill="#CB8734" stroke="white" stroke-width="0.15"/>
<path d="M49.7988 38.2119C49.4133 37.9647 48.915 37.9645 48.5293 38.2119C47.9233 38.6003 47.2129 38.7862 46.5039 38.7529L46.4248 38.749V46.2725L46.5527 46.1455L48.3633 44.3447C48.8064 43.9041 49.5218 43.904 49.9648 44.3447L51.7754 46.1455L51.9033 46.2725V38.748L51.8242 38.752C51.7685 38.7546 51.7152 38.7568 51.6621 38.7568C51.0074 38.7568 50.3585 38.5707 49.7988 38.2119ZM51.9639 15.5469C51.6405 15.4601 51.3061 15.5118 51.0244 15.6924C49.8943 16.4171 48.4332 16.4172 47.3027 15.6924C47.0211 15.5118 46.6873 15.4605 46.3643 15.5469C46.0409 15.6335 45.7777 15.8452 45.624 16.1426C45.0075 17.3354 43.7425 18.0651 42.4004 18.0029C42.0668 17.9876 41.7513 18.1099 41.5146 18.3467C41.2781 18.5833 41.1554 18.8982 41.1709 19.2324C41.2332 20.5737 40.5032 21.8395 39.3105 22.4561C39.0133 22.6097 38.8014 22.8731 38.7148 23.1963C38.6283 23.5196 38.6798 23.854 38.8604 24.1357C39.5849 25.2661 39.585 26.7272 38.8604 27.8574C38.6799 28.139 38.6283 28.4727 38.7148 28.7959C38.8014 29.1193 39.0133 29.3825 39.3105 29.5361C39.6358 29.7043 39.9256 29.9222 40.1758 30.1758L40.1777 30.1777C40.1962 30.1954 40.2141 30.2143 40.2324 30.2344L40.2334 30.2354C40.8631 30.905 41.2147 31.8126 41.1709 32.7588C41.1553 33.0933 41.2779 33.4087 41.5146 33.6455C41.7513 33.8821 42.0669 34.0046 42.4004 33.9893V33.9883C43.7426 33.9256 45.0074 34.6569 45.624 35.8496C45.7778 36.1468 46.0409 36.3587 46.3643 36.4453C46.6873 36.5317 47.0211 36.4802 47.3027 36.2998C47.8678 35.9376 48.5162 35.7559 49.1641 35.7559C49.812 35.7559 50.4593 35.9376 51.0244 36.2998C51.3061 36.4805 51.6408 36.5318 51.9639 36.4453C52.2468 36.3695 52.4839 36.198 52.6416 35.957L52.7041 35.8496C53.3206 34.657 54.5849 33.9273 55.9268 33.9893H55.9277C56.2618 34.0044 56.5769 33.8821 56.8135 33.6455C57.0499 33.4089 57.1718 33.094 57.1562 32.7598C57.0938 31.4185 57.8249 30.1527 59.0176 29.5361C59.3147 29.3824 59.5267 29.1191 59.6133 28.7959C59.7 28.4726 59.6484 28.1382 59.4678 27.8564C58.7432 26.7261 58.7431 25.2651 59.4678 24.1348C59.6482 23.8533 59.6998 23.5194 59.6133 23.1963C59.5267 22.873 59.3148 22.6097 59.0176 22.4561C57.8247 21.8395 57.0939 20.5736 57.1562 19.2324C57.1718 18.8983 57.0501 18.5833 56.8135 18.3467C56.5769 18.11 56.2619 17.9878 55.9277 18.0029H55.9268C54.5855 18.0653 53.3206 17.3351 52.7041 16.1426C52.5503 15.8454 52.2872 15.6335 51.9639 15.5469ZM44.1533 37.666L44.1328 37.6445C43.926 37.4201 43.7477 37.1678 43.6055 36.8926C43.3951 36.4858 42.9631 36.2354 42.5059 36.2578C41.5389 36.3033 40.5924 35.9362 39.9082 35.252C39.2238 34.5675 38.8574 33.6201 38.9023 32.6533C38.9099 32.4896 38.8812 32.3299 38.8252 32.1826L38.8066 32.1348H15.2305C14.6032 32.1348 14.095 31.6262 14.0947 30.999C14.0947 30.3716 14.6031 29.8623 15.2305 29.8623H36.6865L36.6455 29.7598C36.5969 29.6373 36.5548 29.5118 36.5205 29.3838C36.27 28.4491 36.426 27.4456 36.9482 26.6309C36.9913 26.5637 37.0237 26.493 37.0508 26.4238L37.0908 26.3223H15.2305C14.6033 26.3221 14.0947 25.8128 14.0947 25.1855C14.095 24.5585 14.6034 24.05 15.2305 24.0498H36.4482L36.4365 23.9648C36.3753 23.5155 36.4011 23.0541 36.5205 22.6084C36.771 21.6735 37.4079 20.8819 38.2676 20.4375C38.6744 20.2271 38.9237 19.7956 38.9023 19.3379C38.8575 18.3714 39.224 17.4245 39.9082 16.7402C40.5925 16.0559 41.5397 15.6892 42.5068 15.7344C42.9631 15.755 43.396 15.5066 43.6064 15.0996C44.0508 14.24 44.8416 13.6031 45.7764 13.3525C46.7113 13.102 47.7145 13.2579 48.5293 13.7803C48.9148 14.0275 49.4132 14.0275 49.7988 13.7803C50.6134 13.258 51.6166 13.1019 52.5518 13.3525C53.4866 13.6031 54.2782 14.2399 54.7227 15.0996C54.9329 15.5059 55.3617 15.7564 55.8213 15.7344V15.7334C56.7884 15.6879 57.7356 16.0559 58.4199 16.7402C59.1041 17.4245 59.4706 18.3713 59.4258 19.3379C59.4044 19.7954 59.6537 20.2271 60.0605 20.4375C60.9203 20.8819 61.5571 21.6736 61.8076 22.6084C62.058 23.5431 61.9021 24.5466 61.3799 25.3613C61.1326 25.747 61.1325 26.2455 61.3799 26.6309C61.9021 27.4457 62.0581 28.4489 61.8076 29.3838C61.5571 30.3187 60.9202 31.1103 60.0605 31.5547C59.654 31.7651 59.4046 32.1959 59.4258 32.6533C59.4707 33.6201 59.1043 34.5675 58.4199 35.252C57.7356 35.9364 56.789 36.3036 55.8213 36.2578C55.3645 36.2371 54.933 36.4857 54.7227 36.8926C54.5804 37.1678 54.4021 37.4203 54.1953 37.6445L54.1748 37.666V49.0049C54.1748 49.4636 53.8991 49.8775 53.4756 50.0537C53.3346 50.1123 53.1858 50.1406 53.0391 50.1406C52.7446 50.1406 52.4554 50.0263 52.2383 49.8105L49.2168 46.8047L49.1641 46.752L49.1113 46.8047L46.0898 49.8105C45.7644 50.134 45.276 50.2298 44.8525 50.0537C44.429 49.8775 44.1533 49.4637 44.1533 49.0049V37.666Z" fill="#CB8734" stroke="white" stroke-width="0.15"/>
<path d="M53.2637 22.7549C53.7071 22.3115 54.4265 22.3118 54.8701 22.7549C55.3137 23.1986 55.3137 23.9187 54.8701 24.3623L49.9951 29.2373C49.7734 29.4592 49.4822 29.5703 49.1914 29.5703C48.9007 29.5703 48.6105 29.4591 48.3887 29.2373L45.9316 26.7812C45.4884 26.3376 45.4884 25.6183 45.9316 25.1748C46.3754 24.7312 47.0955 24.7312 47.5391 25.1748L49.1387 26.7744L49.1914 26.8281L49.2451 26.7744L53.2637 22.7549Z" fill="#CB8734" stroke="white" stroke-width="0.15"/>
<path d="M22.8281 35.6768H36.6719C37.2992 35.6768 37.8076 36.1851 37.8076 36.8125C37.8076 37.4399 37.2993 37.9482 36.6719 37.9482H22.8281C22.2007 37.9482 21.6924 37.4399 21.6924 36.8125C21.6924 36.1851 22.2007 35.6768 22.8281 35.6768Z" fill="#CB8734" stroke="white" stroke-width="0.15"/>
</svg>
