<svg width="32" height="32" viewBox="0 0 32 32" fill="none" xmlns="http://www.w3.org/2000/svg">
<rect width="32" height="32" fill="white"/>
<path d="M27.6572 16.4541C27.7614 16.4541 27.8619 16.4957 27.9355 16.5693C28.0089 16.643 28.0498 16.7427 28.0498 16.8467V17.8652C28.0498 17.9692 28.009 18.069 27.9355 18.1426C27.8619 18.2163 27.7614 18.2578 27.6572 18.2578C27.5531 18.2578 27.4535 18.2162 27.3799 18.1426C27.3063 18.0689 27.2647 17.9694 27.2646 17.8652V16.8467C27.2647 16.7425 27.3062 16.643 27.3799 16.5693C27.4535 16.4957 27.5531 16.4541 27.6572 16.4541Z" fill="#2B2A28" stroke="#2B2A28" stroke-width="0.1"/>
<path d="M26.6289 3.9502C27.0058 3.95028 27.3673 4.09972 27.6338 4.36621C27.9003 4.6327 28.0497 4.99423 28.0498 5.37109V11.0488C28.0498 11.153 28.0082 11.2535 27.9346 11.3271C27.8609 11.4006 27.7613 11.4424 27.6572 11.4424C27.553 11.4424 27.4526 11.4008 27.3789 11.3271C27.3053 11.2535 27.2646 11.153 27.2646 11.0488V5.37109C27.2646 5.20261 27.1973 5.04102 27.0781 4.92188C26.959 4.80273 26.7974 4.73544 26.6289 4.73535H5.37109C5.20261 4.73544 5.04102 4.80273 4.92188 4.92188C4.80273 5.04102 4.73544 5.20261 4.73535 5.37109V26.6289C4.73544 26.7974 4.80273 26.959 4.92188 27.0781C5.04102 27.1973 5.20261 27.2646 5.37109 27.2646H26.6289C26.7974 27.2646 26.959 27.1973 27.0781 27.0781C27.1973 26.959 27.2646 26.7974 27.2646 26.6289V20.2656C27.2646 20.1615 27.3054 20.061 27.3789 19.9873C27.4526 19.9136 27.553 19.8721 27.6572 19.8721C27.7613 19.8721 27.8609 19.9138 27.9346 19.9873C28.0082 20.061 28.0498 20.1614 28.0498 20.2656V26.6289C28.0497 27.0058 27.9003 27.3673 27.6338 27.6338C27.3673 27.9003 27.0058 28.0497 26.6289 28.0498H5.37109C4.99423 28.0497 4.6327 27.9003 4.36621 27.6338C4.09972 27.3673 3.95028 27.0058 3.9502 26.6289V5.37109C3.95028 4.99423 4.09972 4.6327 4.36621 4.36621C4.6327 4.09972 4.99423 3.95028 5.37109 3.9502H26.6289Z" fill="#2B2A28" stroke="#2B2A28" stroke-width="0.1"/>
<path d="M27.6572 13.0557C27.7614 13.0557 27.8619 13.0972 27.9355 13.1709C28.0089 13.2445 28.0498 13.3443 28.0498 13.4482V14.4463C28.0497 14.5502 28.009 14.65 27.9355 14.7236C27.8619 14.7973 27.7614 14.8389 27.6572 14.8389C27.5531 14.8388 27.4535 14.7972 27.3799 14.7236C27.3063 14.65 27.2647 14.5504 27.2646 14.4463V13.4482C27.2647 13.3441 27.3062 13.2446 27.3799 13.1709C27.4535 13.0972 27.5531 13.0557 27.6572 13.0557Z" fill="#2B2A28" stroke="#2B2A28" stroke-width="0.1"/>
<mask id="path-5-outside-1_3995_2731" maskUnits="userSpaceOnUse" x="15.5858" y="7.09315" width="11.3137" height="11.3137" fill="black">
<rect fill="white" x="15.5858" y="7.09315" width="11.3137" height="11.3137"/>
<path fill-rule="evenodd" clip-rule="evenodd" d="M23.9975 11.0717C24.0884 11.0717 24.1756 11.0355 24.2399 10.9712C24.3042 10.9069 24.3403 10.8197 24.3403 10.7288C24.3403 10.6379 24.3042 10.5507 24.2399 10.4864L21.9942 8.24067C21.9299 8.17638 21.8427 8.14025 21.7518 8.14025C21.6608 8.14025 21.5736 8.17638 21.5093 8.24067L19.2636 10.4864C19.1993 10.5507 19.1632 10.6379 19.1632 10.7288C19.1632 10.8197 19.1993 10.9069 19.2636 10.9712C19.3279 11.0355 19.4151 11.0717 19.5061 11.0717C19.597 11.0717 19.6842 11.0355 19.7485 10.9712L21.4089 9.3108L21.4089 17.017C21.409 17.0848 21.4291 17.151 21.4667 17.2074C21.5044 17.2638 21.558 17.3077 21.6206 17.3337C21.6832 17.3596 21.7522 17.3664 21.8187 17.3532C21.8852 17.34 21.9462 17.3073 21.9942 17.2594C22.0585 17.1951 22.0946 17.1079 22.0946 17.017L22.0946 9.31078L23.755 10.9712C23.8193 11.0355 23.9065 11.0717 23.9975 11.0717Z"/>
</mask>
<path fill-rule="evenodd" clip-rule="evenodd" d="M23.9975 11.0717C24.0884 11.0717 24.1756 11.0355 24.2399 10.9712C24.3042 10.9069 24.3403 10.8197 24.3403 10.7288C24.3403 10.6379 24.3042 10.5507 24.2399 10.4864L21.9942 8.24067C21.9299 8.17638 21.8427 8.14025 21.7518 8.14025C21.6608 8.14025 21.5736 8.17638 21.5093 8.24067L19.2636 10.4864C19.1993 10.5507 19.1632 10.6379 19.1632 10.7288C19.1632 10.8197 19.1993 10.9069 19.2636 10.9712C19.3279 11.0355 19.4151 11.0717 19.5061 11.0717C19.597 11.0717 19.6842 11.0355 19.7485 10.9712L21.4089 9.3108L21.4089 17.017C21.409 17.0848 21.4291 17.151 21.4667 17.2074C21.5044 17.2638 21.558 17.3077 21.6206 17.3337C21.6832 17.3596 21.7522 17.3664 21.8187 17.3532C21.8852 17.34 21.9462 17.3073 21.9942 17.2594C22.0585 17.1951 22.0946 17.1079 22.0946 17.017L22.0946 9.31078L23.755 10.9712C23.8193 11.0355 23.9065 11.0717 23.9975 11.0717Z" fill="#2B2A28"/>
<path d="M24.3403 10.7288L24.2403 10.7288L24.2403 10.7288H24.3403ZM21.7518 8.14025V8.24025L21.7518 8.24025L21.7518 8.14025ZM19.5061 11.0717V10.9717V11.0717ZM21.4089 9.3108H21.5089L21.5089 9.06938L21.3382 9.24009L21.4089 9.3108ZM21.4089 17.017L21.3089 17.017L21.3089 17.017L21.4089 17.017ZM21.4667 17.2074L21.5499 17.1519L21.5499 17.1519L21.4667 17.2074ZM21.6206 17.3337L21.5823 17.4261L21.5823 17.4261L21.6206 17.3337ZM21.8187 17.3532L21.7992 17.2551L21.7992 17.2551L21.8187 17.3532ZM21.9942 17.2594L22.0649 17.3301L22.0649 17.3301L21.9942 17.2594ZM22.0946 17.017H21.9946L21.9946 17.017L22.0946 17.017ZM22.0946 9.31078L22.1653 9.24007L21.9946 9.06936L21.9946 9.31078H22.0946ZM23.755 10.9712L23.6843 11.0419L23.755 10.9712ZM24.2399 10.9712L24.1692 10.9005C24.1236 10.9461 24.0619 10.9717 23.9975 10.9717V11.0717V11.1717C24.1149 11.1717 24.2275 11.125 24.3106 11.0419L24.2399 10.9712ZM24.3403 10.7288H24.2403C24.2403 10.7932 24.2147 10.855 24.1692 10.9005L24.2399 10.9712L24.3106 11.0419C24.3937 10.9589 24.4403 10.8463 24.4403 10.7288H24.3403ZM24.2399 10.4864L24.1692 10.5571C24.2147 10.6026 24.2403 10.6644 24.2403 10.7288L24.3403 10.7288L24.4403 10.7288C24.4403 10.6113 24.3937 10.4987 24.3106 10.4157L24.2399 10.4864ZM21.9942 8.24067L21.9235 8.31138L24.1692 10.5571L24.2399 10.4864L24.3106 10.4157L22.0649 8.16996L21.9942 8.24067ZM21.7518 8.14025L21.7518 8.24025C21.8162 8.24025 21.8779 8.26584 21.9235 8.31138L21.9942 8.24067L22.0649 8.16996C21.9819 8.08691 21.8692 8.04025 21.7518 8.04025L21.7518 8.14025ZM21.5093 8.24067L21.58 8.31138C21.6256 8.26584 21.6874 8.24025 21.7518 8.24025V8.14025L21.7518 8.04025C21.6343 8.04025 21.5217 8.08691 21.4386 8.16996L21.5093 8.24067ZM19.2636 10.4864L19.3343 10.5571L21.58 8.31138L21.5093 8.24067L21.4386 8.16996L19.1929 10.4157L19.2636 10.4864ZM19.1632 10.7288H19.2632C19.2632 10.6644 19.2888 10.6026 19.3343 10.5571L19.2636 10.4864L19.1929 10.4157C19.1099 10.4987 19.0632 10.6113 19.0632 10.7288L19.1632 10.7288ZM19.2636 10.9712L19.3343 10.9005C19.2888 10.855 19.2632 10.7932 19.2632 10.7288H19.1632L19.0632 10.7288C19.0632 10.8463 19.1099 10.9589 19.1929 11.0419L19.2636 10.9712ZM19.5061 11.0717V10.9717C19.4417 10.9717 19.3799 10.9461 19.3343 10.9005L19.2636 10.9712L19.1929 11.0419C19.276 11.125 19.3886 11.1717 19.5061 11.1717V11.0717ZM19.7485 10.9712L19.6778 10.9005C19.6323 10.9461 19.5705 10.9717 19.5061 10.9717V11.0717V11.1717C19.6235 11.1717 19.7362 11.125 19.8192 11.0419L19.7485 10.9712ZM21.4089 9.3108L21.3382 9.24009L19.6778 10.9005L19.7485 10.9712L19.8192 11.0419L21.4797 9.38151L21.4089 9.3108ZM21.4089 17.017L21.5089 17.017L21.5089 9.3108H21.4089H21.3089L21.3089 17.017L21.4089 17.017ZM21.4667 17.2074L21.5499 17.1519C21.5232 17.1119 21.509 17.065 21.5089 17.017L21.4089 17.017L21.3089 17.017C21.309 17.1046 21.3349 17.1902 21.3836 17.263L21.4667 17.2074ZM21.6206 17.3337L21.6589 17.2413C21.6145 17.2229 21.5766 17.1918 21.5499 17.1519L21.4667 17.2074L21.3836 17.263C21.4323 17.3358 21.5014 17.3925 21.5823 17.4261L21.6206 17.3337ZM21.8187 17.3532L21.7992 17.2551C21.7521 17.2645 21.7032 17.2597 21.6589 17.2413L21.6206 17.3337L21.5823 17.4261C21.6632 17.4596 21.7523 17.4684 21.8381 17.4513L21.8187 17.3532ZM21.9942 17.2594L21.9235 17.1887C21.8895 17.2226 21.8463 17.2458 21.7992 17.2551L21.8187 17.3532L21.8381 17.4513C21.924 17.4342 22.0029 17.392 22.0649 17.3301L21.9942 17.2594ZM22.0946 17.017L21.9946 17.017C21.9946 17.0814 21.969 17.1432 21.9235 17.1887L21.9942 17.2594L22.0649 17.3301C22.1479 17.247 22.1946 17.1344 22.1946 17.017L22.0946 17.017ZM22.0946 9.31078H21.9946L21.9946 17.017H22.0946H22.1946L22.1946 9.31078H22.0946ZM23.755 10.9712L23.8257 10.9005L22.1653 9.24007L22.0946 9.31078L22.0238 9.38149L23.6843 11.0419L23.755 10.9712ZM23.9975 11.0717V10.9717C23.933 10.9717 23.8713 10.9461 23.8257 10.9005L23.755 10.9712L23.6843 11.0419C23.7674 11.125 23.88 11.1717 23.9975 11.1717V11.0717Z" fill="#2B2A28" mask="url(#path-5-outside-1_3995_2731)"/>
<mask id="path-7-outside-2_3995_2731" maskUnits="userSpaceOnUse" x="6.8158" y="15.5858" width="11.3137" height="11.3137" fill="black">
<rect fill="white" x="6.8158" y="15.5858" width="11.3137" height="11.3137"/>
<path fill-rule="evenodd" clip-rule="evenodd" d="M7.96625 21.9912C7.91832 21.9432 7.88568 21.8821 7.87246 21.8156L7.96625 21.9912ZM7.87246 21.8156C7.86833 21.7949 7.86616 21.7738 7.86591 21.7528L7.87246 21.8156ZM7.86591 21.7528C7.86589 21.7515 7.86588 21.7501 7.86588 21.7488L7.86591 21.7528ZM7.86588 21.7488C7.86588 21.7292 7.86757 21.7096 7.87092 21.6902L7.86588 21.7488ZM7.87092 21.6902C7.87198 21.6841 7.87321 21.678 7.8746 21.672L7.87092 21.6902ZM7.8746 21.672C7.87886 21.6535 7.88466 21.6353 7.89199 21.6176L7.8746 21.672ZM7.89199 21.6176C7.89523 21.6097 7.89876 21.6021 7.90255 21.5945L7.89199 21.6176ZM7.90255 21.5945C7.91901 21.5618 7.94056 21.5321 7.9663 21.5064L7.90255 21.5945ZM7.9663 21.5064L10.212 19.2607C10.2438 19.2288 10.2816 19.2036 10.3232 19.1863C10.3648 19.1691 10.4094 19.1602 10.4544 19.1602C10.4995 19.1602 10.544 19.1691 10.5856 19.1863C10.6272 19.2036 10.665 19.2288 10.6969 19.2607C10.7287 19.2925 10.754 19.3303 10.7712 19.3719C10.7884 19.4135 10.7973 19.4581 10.7973 19.5031C10.7973 19.5481 10.7884 19.5927 10.7712 19.6343C10.754 19.6759 10.7287 19.7137 10.6969 19.7455L9.03647 21.4059L16.7425 21.4059C16.8323 21.4075 16.918 21.4443 16.981 21.5084C17.044 21.5725 17.0794 21.6588 17.0794 21.7487C17.0794 21.8386 17.044 21.9249 16.981 21.9891C16.918 22.0532 16.8323 22.09 16.7425 22.0915L9.03637 22.0915L10.6969 23.752C10.7612 23.8163 10.7973 23.9035 10.7973 23.9945C10.7973 24.0854 10.7612 24.1726 10.6969 24.2369C10.6326 24.3012 10.5454 24.3373 10.4544 24.3373C10.3635 24.3373 10.2763 24.3012 10.212 24.2369L7.96631 21.9912"/>
</mask>
<path fill-rule="evenodd" clip-rule="evenodd" d="M7.96625 21.9912C7.91832 21.9432 7.88568 21.8821 7.87246 21.8156L7.96625 21.9912ZM7.87246 21.8156C7.86833 21.7949 7.86616 21.7738 7.86591 21.7528L7.87246 21.8156ZM7.86591 21.7528C7.86589 21.7515 7.86588 21.7501 7.86588 21.7488L7.86591 21.7528ZM7.86588 21.7488C7.86588 21.7292 7.86757 21.7096 7.87092 21.6902L7.86588 21.7488ZM7.87092 21.6902C7.87198 21.6841 7.87321 21.678 7.8746 21.672L7.87092 21.6902ZM7.8746 21.672C7.87886 21.6535 7.88466 21.6353 7.89199 21.6176L7.8746 21.672ZM7.89199 21.6176C7.89523 21.6097 7.89876 21.6021 7.90255 21.5945L7.89199 21.6176ZM7.90255 21.5945C7.91901 21.5618 7.94056 21.5321 7.9663 21.5064L7.90255 21.5945ZM7.9663 21.5064L10.212 19.2607C10.2438 19.2288 10.2816 19.2036 10.3232 19.1863C10.3648 19.1691 10.4094 19.1602 10.4544 19.1602C10.4995 19.1602 10.544 19.1691 10.5856 19.1863C10.6272 19.2036 10.665 19.2288 10.6969 19.2607C10.7287 19.2925 10.754 19.3303 10.7712 19.3719C10.7884 19.4135 10.7973 19.4581 10.7973 19.5031C10.7973 19.5481 10.7884 19.5927 10.7712 19.6343C10.754 19.6759 10.7287 19.7137 10.6969 19.7455L9.03647 21.4059L16.7425 21.4059C16.8323 21.4075 16.918 21.4443 16.981 21.5084C17.044 21.5725 17.0794 21.6588 17.0794 21.7487C17.0794 21.8386 17.044 21.9249 16.981 21.9891C16.918 22.0532 16.8323 22.09 16.7425 22.0915L9.03637 22.0915L10.6969 23.752C10.7612 23.8163 10.7973 23.9035 10.7973 23.9945C10.7973 24.0854 10.7612 24.1726 10.6969 24.2369C10.6326 24.3012 10.5454 24.3373 10.4544 24.3373C10.3635 24.3373 10.2763 24.3012 10.212 24.2369L7.96631 21.9912" fill="#2B2A28"/>
<path d="M7.87246 21.8156L7.82273 21.8208L7.82375 21.8306L7.82836 21.8392L7.87246 21.8156ZM7.86591 21.7528L7.81567 21.7531L7.81618 21.758L7.86591 21.7528ZM7.86588 21.7488L7.81586 21.7445L7.81589 21.7491L7.86588 21.7488ZM7.87092 21.6902L7.82159 21.6803L7.82111 21.6859L7.87092 21.6902ZM7.8746 21.672L7.82669 21.6566L7.82559 21.6621L7.8746 21.672ZM7.89199 21.6176L7.8462 21.5966L7.84436 21.6023L7.89199 21.6176ZM7.90255 21.5945L7.86124 21.5647L7.8571 21.5737L7.90255 21.5945ZM7.96625 21.9912L8.01035 21.9676L7.91656 21.7921L7.87246 21.8156L7.82836 21.8392L7.92215 22.0147L7.96625 21.9912ZM7.87246 21.8156L7.92219 21.8104L7.91564 21.7477L7.86591 21.7528L7.81618 21.758L7.82273 21.8208L7.87246 21.8156ZM7.86591 21.7528L7.91591 21.7525L7.91588 21.7485L7.86588 21.7488L7.81589 21.7491L7.81591 21.7531L7.86591 21.7528ZM7.86588 21.7488L7.9157 21.7531L7.92074 21.6945L7.87092 21.6902L7.82111 21.6859L7.81607 21.7445L7.86588 21.7488ZM7.87092 21.6902L7.91994 21.7001L7.92362 21.6818L7.8746 21.672L7.82559 21.6621L7.82191 21.6804L7.87092 21.6902ZM7.8746 21.672L7.92223 21.6872L7.93961 21.6328L7.89199 21.6176L7.84436 21.6023L7.82698 21.6567L7.8746 21.672ZM7.89199 21.6176L7.93744 21.6384L7.948 21.6154L7.90255 21.5945L7.8571 21.5737L7.84653 21.5967L7.89199 21.6176ZM7.90255 21.5945L7.94307 21.6238L8.00682 21.5356L7.9663 21.5064L7.92579 21.4771L7.86203 21.5652L7.90255 21.5945ZM7.96631 21.9912L8.01631 21.9912L8.0163 21.5064L7.9663 21.5064L7.9163 21.5064L7.9163 21.9912L7.96631 21.9912ZM7.87246 21.8156L7.77438 21.8351L7.77438 21.8351L7.87246 21.8156ZM7.86591 21.7528L7.76592 21.754L7.76592 21.754L7.86591 21.7528ZM7.86588 21.7488L7.76588 21.7488L7.76588 21.7488L7.86588 21.7488ZM7.87092 21.6902L7.77239 21.6732L7.77239 21.6732L7.87092 21.6902ZM7.8746 21.672L7.97206 21.6944L7.97206 21.6944L7.8746 21.672ZM7.89199 21.6176L7.7996 21.5793L7.7996 21.5793L7.89199 21.6176ZM7.90255 21.5945L7.99186 21.6395L7.99186 21.6395L7.90255 21.5945ZM10.212 19.2607L10.2827 19.3314L10.212 19.2607ZM10.3232 19.1863L10.3615 19.2787L10.3232 19.1863ZM10.4544 19.1602L10.4544 19.2602L10.4544 19.1602ZM10.5856 19.1863L10.6239 19.094L10.6239 19.094L10.5856 19.1863ZM10.7712 19.3719L10.8636 19.3336L10.8636 19.3336L10.7712 19.3719ZM10.7712 19.6343L10.6788 19.596L10.6788 19.596L10.7712 19.6343ZM9.03647 21.4059L8.96576 21.3352L8.79505 21.5059L9.03647 21.5059V21.4059ZM16.7425 21.4059L16.7442 21.3059L16.7425 21.3059L16.7425 21.4059ZM17.0794 21.7487L17.1794 21.7487L17.1794 21.7487L17.0794 21.7487ZM16.7425 22.0915L16.7425 22.1916L16.7442 22.1915L16.7425 22.0915ZM9.03637 22.0915V21.9915L8.79495 21.9915L8.96566 22.1623L9.03637 22.0915ZM10.4544 24.3373V24.2373L10.4544 24.2373L10.4544 24.3373ZM7.96625 21.9912L8.03698 21.9205C8.00303 21.8865 7.97991 21.8432 7.97055 21.7961L7.87246 21.8156L7.77438 21.8351C7.79146 21.921 7.83362 21.9999 7.89553 22.0619L7.96625 21.9912ZM7.87246 21.8156L7.97055 21.7961C7.96762 21.7814 7.96608 21.7665 7.9659 21.7517L7.86591 21.7528L7.76592 21.754C7.76624 21.7811 7.76905 21.8083 7.77438 21.8351L7.87246 21.8156ZM7.86591 21.7528L7.9659 21.7517C7.96589 21.7507 7.96588 21.7497 7.96588 21.7488L7.86588 21.7488L7.76588 21.7488C7.76588 21.7506 7.7659 21.7523 7.76592 21.754L7.86591 21.7528ZM7.86588 21.7488L7.96588 21.7488C7.96588 21.7349 7.96708 21.721 7.96945 21.7073L7.87092 21.6902L7.77239 21.6732C7.76806 21.6981 7.76588 21.7234 7.76588 21.7488L7.86588 21.7488ZM7.87092 21.6902L7.96945 21.7073C7.97021 21.703 7.97107 21.6987 7.97206 21.6944L7.8746 21.672L7.77715 21.6495C7.77535 21.6574 7.77376 21.6653 7.77239 21.6732L7.87092 21.6902ZM7.8746 21.672L7.97206 21.6944C7.97507 21.6813 7.97918 21.6684 7.98437 21.6558L7.89199 21.6176L7.7996 21.5793C7.79013 21.6022 7.78264 21.6256 7.77715 21.6495L7.8746 21.672ZM7.89199 21.6176L7.98437 21.6558C7.98667 21.6503 7.98917 21.6449 7.99186 21.6395L7.90255 21.5945L7.81324 21.5495C7.80834 21.5593 7.80379 21.5692 7.7996 21.5793L7.89199 21.6176ZM7.90255 21.5945L7.99186 21.6395C8.00352 21.6164 8.01878 21.5953 8.03702 21.5771L7.9663 21.5064L7.89559 21.4356C7.86234 21.4689 7.83451 21.5073 7.81324 21.5495L7.90255 21.5945ZM7.9663 21.5064L8.03702 21.5771L10.2827 19.3314L10.212 19.2607L10.1413 19.19L7.89559 21.4356L7.9663 21.5064ZM10.212 19.2607L10.2827 19.3314C10.3053 19.3088 10.332 19.2909 10.3615 19.2787L10.3232 19.1863L10.285 19.094C10.2312 19.1162 10.1824 19.1488 10.1413 19.19L10.212 19.2607ZM10.3232 19.1863L10.3615 19.2787C10.391 19.2665 10.4225 19.2602 10.4544 19.2602L10.4544 19.1602L10.4544 19.0602C10.3963 19.0602 10.3387 19.0717 10.285 19.094L10.3232 19.1863ZM10.4544 19.1602L10.4544 19.2602C10.4863 19.2602 10.5179 19.2665 10.5474 19.2787L10.5856 19.1863L10.6239 19.094C10.5702 19.0717 10.5126 19.0602 10.4544 19.0602L10.4544 19.1602ZM10.5856 19.1863L10.5474 19.2787C10.5768 19.2909 10.6036 19.3088 10.6262 19.3314L10.6969 19.2607L10.7676 19.19C10.7265 19.1488 10.6776 19.1162 10.6239 19.094L10.5856 19.1863ZM10.6969 19.2607L10.6262 19.3314C10.6487 19.3539 10.6666 19.3807 10.6788 19.4102L10.7712 19.3719L10.8636 19.3336C10.8413 19.2799 10.8087 19.2311 10.7676 19.19L10.6969 19.2607ZM10.7712 19.3719L10.6788 19.4102C10.691 19.4396 10.6973 19.4712 10.6973 19.5031H10.7973H10.8973C10.8973 19.4449 10.8858 19.3874 10.8636 19.3336L10.7712 19.3719ZM10.7973 19.5031H10.6973C10.6973 19.535 10.691 19.5666 10.6788 19.596L10.7712 19.6343L10.8636 19.6726C10.8858 19.6188 10.8973 19.5613 10.8973 19.5031H10.7973ZM10.7712 19.6343L10.6788 19.596C10.6666 19.6255 10.6487 19.6523 10.6262 19.6748L10.6969 19.7455L10.7676 19.8162C10.8087 19.7751 10.8413 19.7263 10.8636 19.6726L10.7712 19.6343ZM10.6969 19.7455L10.6262 19.6748L8.96576 21.3352L9.03647 21.4059L9.10718 21.4766L10.7676 19.8162L10.6969 19.7455ZM9.03647 21.4059V21.5059L16.7425 21.5059L16.7425 21.4059L16.7425 21.3059L9.03647 21.3059V21.4059ZM16.7425 21.4059L16.7407 21.5059C16.8044 21.507 16.8651 21.5331 16.9097 21.5785L16.981 21.5084L17.0524 21.4383C16.971 21.3555 16.8603 21.308 16.7442 21.3059L16.7425 21.4059ZM16.981 21.5084L16.9097 21.5785C16.9543 21.6239 16.9794 21.6851 16.9794 21.7487L17.0794 21.7487L17.1794 21.7487C17.1794 21.6326 17.1337 21.5211 17.0524 21.4383L16.981 21.5084ZM17.0794 21.7487L16.9794 21.7487C16.9794 21.8124 16.9543 21.8735 16.9097 21.919L16.981 21.9891L17.0524 22.0592C17.1337 21.9763 17.1794 21.8649 17.1794 21.7487L17.0794 21.7487ZM16.981 21.9891L16.9097 21.919C16.8651 21.9644 16.8044 21.9904 16.7407 21.9916L16.7425 22.0915L16.7442 22.1915C16.8603 22.1895 16.971 22.142 17.0524 22.0592L16.981 21.9891ZM16.7425 22.0915V21.9915L9.03637 21.9915V22.0915V22.1915L16.7425 22.1915V22.0915ZM9.03637 22.0915L8.96566 22.1623L10.6262 23.8228L10.6969 23.752L10.7676 23.6813L9.10708 22.0208L9.03637 22.0915ZM10.6969 23.752L10.6262 23.8228C10.6717 23.8683 10.6973 23.9301 10.6973 23.9945H10.7973H10.8973C10.8973 23.877 10.8506 23.7644 10.7676 23.6813L10.6969 23.752ZM10.7973 23.9945H10.6973C10.6973 24.0589 10.6717 24.1207 10.6262 24.1662L10.6969 24.2369L10.7676 24.3076C10.8506 24.2246 10.8973 24.1119 10.8973 23.9945H10.7973ZM10.6969 24.2369L10.6262 24.1662C10.5806 24.2117 10.5188 24.2373 10.4544 24.2373V24.3373V24.4373C10.5719 24.4373 10.6845 24.3907 10.7676 24.3076L10.6969 24.2369ZM10.4544 24.3373L10.4544 24.2373C10.39 24.2373 10.3283 24.2117 10.2827 24.1662L10.212 24.2369L10.1413 24.3076C10.2243 24.3907 10.337 24.4373 10.4544 24.4373L10.4544 24.3373ZM10.212 24.2369L10.2827 24.1662L8.03702 21.9205L7.96631 21.9912L7.89559 22.0619L10.1413 24.3076L10.212 24.2369Z" fill="#2B2A28" mask="url(#path-7-outside-2_3995_2731)"/>
</svg>
