<svg width="55" height="55" viewBox="0 0 55 55" fill="none" xmlns="http://www.w3.org/2000/svg">
<path d="M53.3647 28.5674C53.5798 28.5674 53.786 28.6527 53.938 28.8047C54.09 28.9567 54.1753 29.1629 54.1753 29.3779V31.6377C54.1752 31.8525 54.0899 32.059 53.938 32.2109C53.786 32.3628 53.5796 32.4482 53.3647 32.4482C53.1498 32.4482 52.9435 32.3628 52.7915 32.2109C52.6396 32.059 52.5543 31.8525 52.5542 31.6377V29.3779C52.5542 29.1629 52.6395 28.9567 52.7915 28.8047C52.9435 28.6526 53.1497 28.5674 53.3647 28.5674Z" fill="#CB8734" stroke="#CB8734" stroke-width="0.1"/>
<path d="M51.082 0.825195C51.9023 0.825195 52.6895 1.15045 53.2695 1.73047C53.8496 2.31049 54.1748 3.09769 54.1748 3.91797V16.5156C54.1747 16.7305 54.0895 16.9369 53.9375 17.0889C53.7855 17.2408 53.5792 17.3262 53.3643 17.3262C53.1493 17.3262 52.943 17.2408 52.791 17.0889C52.6391 16.9369 52.5538 16.7305 52.5537 16.5156V3.91797C52.5537 3.52772 52.399 3.1529 52.123 2.87695C51.8471 2.60101 51.4723 2.44629 51.082 2.44629H3.91797C3.52772 2.44629 3.1529 2.60101 2.87695 2.87695C2.60101 3.1529 2.44629 3.52772 2.44629 3.91797V51.082C2.44629 51.4723 2.60101 51.8471 2.87695 52.123C3.1529 52.399 3.52772 52.5537 3.91797 52.5537H51.082C51.4723 52.5537 51.8471 52.399 52.123 52.123C52.399 51.8471 52.5537 51.4723 52.5537 51.082V36.9629C52.5538 36.748 52.6391 36.5416 52.791 36.3896C52.943 36.2377 53.1493 36.1524 53.3643 36.1523C53.5792 36.1523 53.7855 36.2377 53.9375 36.3896C54.0894 36.5416 54.1747 36.748 54.1748 36.9629V51.082C54.1748 51.9023 53.8496 52.6895 53.2695 53.2695C52.6895 53.8496 51.9023 54.1748 51.082 54.1748H3.91797C3.09769 54.1748 2.31049 53.8496 1.73047 53.2695C1.15045 52.6895 0.825195 51.9023 0.825195 51.082V3.91797C0.825195 3.09769 1.15045 2.31049 1.73047 1.73047C2.31049 1.15045 3.09769 0.825195 3.91797 0.825195H51.082Z" fill="#CB8734" stroke="#CB8734" stroke-width="0.1"/>
<path d="M53.3647 21.0283C53.5798 21.0283 53.786 21.1136 53.938 21.2656C54.09 21.4177 54.1753 21.6239 54.1753 21.8389V24.0527C54.1752 24.2677 54.09 24.474 53.938 24.626C53.786 24.7779 53.5797 24.8633 53.3647 24.8633C53.1498 24.8633 52.9435 24.7779 52.7915 24.626C52.6395 24.474 52.5543 24.2677 52.5542 24.0527V21.8389C52.5542 21.6239 52.6395 21.4177 52.7915 21.2656C52.9435 21.1136 53.1497 21.0283 53.3647 21.0283Z" fill="#CB8734" stroke="#CB8734" stroke-width="0.1"/>
<path d="M44.2334 9.96191C44.4459 9.96376 44.6495 10.0489 44.7998 10.1992C44.9501 10.3495 45.0353 10.5531 45.0371 10.7656C45.0387 10.9516 44.9769 11.1319 44.8623 11.2764L44.8096 11.3359L31.4209 24.7246C31.2689 24.8766 31.0626 24.9618 30.8477 24.9619C30.6875 24.9619 30.5307 24.9151 30.3975 24.8262C30.2642 24.7371 30.16 24.61 30.0986 24.4619C30.0373 24.3138 30.0215 24.1504 30.0527 23.9932C30.0841 23.8361 30.1612 23.6914 30.2744 23.5781L43.6631 10.1895L43.7236 10.1367C43.868 10.0225 44.0477 9.96038 44.2334 9.96191Z" fill="#CB8734" stroke="#CB8734" stroke-width="0.1"/>
<path d="M44.2354 9.9541C44.4502 9.95421 44.6567 10.0395 44.8086 10.1914C44.9605 10.3434 45.0459 10.5497 45.0459 10.7646V17.8115C45.0458 18.0264 44.9605 18.2328 44.8086 18.3848C44.6567 18.5367 44.4502 18.622 44.2354 18.6221C44.0205 18.6221 43.8141 18.5365 43.6621 18.3848C43.5102 18.2328 43.4239 18.0264 43.4238 17.8115V11.5752H37.1885C36.9735 11.5752 36.7673 11.4899 36.6152 11.3379C36.4632 11.1859 36.3779 10.9797 36.3779 10.7646C36.3779 10.5496 36.4632 10.3434 36.6152 10.1914C36.7673 10.0394 36.9735 9.9541 37.1885 9.9541H44.2354Z" fill="#CB8734" stroke="#CB8734" stroke-width="0.1"/>
<path d="M24.1504 30.0479C24.3629 30.0497 24.5665 30.1349 24.7168 30.2852C24.8671 30.4355 24.9523 30.639 24.9541 30.8516C24.9557 31.0375 24.8939 31.2178 24.7793 31.3623L24.7266 31.4219L11.3379 44.8105C11.1859 44.9626 10.9796 45.0478 10.7646 45.0479C10.6045 45.0478 10.4476 45.001 10.3145 44.9121C10.1812 44.823 10.077 44.696 10.0156 44.5479C9.95428 44.3997 9.93846 44.2363 9.96973 44.0791C10.001 43.922 10.0782 43.7773 10.1914 43.6641L23.5801 30.2754L23.6406 30.2227C23.785 30.1084 23.9647 30.0463 24.1504 30.0479Z" fill="#CB8734" stroke="#CB8734" stroke-width="0.1"/>
<path d="M10.7646 36.3799C10.8711 36.3799 10.9768 36.4007 11.0752 36.4414C11.1734 36.4821 11.2627 36.542 11.3379 36.6172C11.4131 36.6924 11.4729 36.7816 11.5137 36.8799C11.5544 36.9782 11.5752 37.084 11.5752 37.1904V43.4258H17.8115C18.0264 43.4259 18.2328 43.5121 18.3848 43.6641C18.5365 43.8161 18.6221 44.0225 18.6221 44.2373C18.622 44.4522 18.5367 44.6586 18.3848 44.8105C18.2328 44.9625 18.0264 45.0477 17.8115 45.0479H10.7646C10.5497 45.0479 10.3434 44.9624 10.1914 44.8105C10.0395 44.6586 9.95421 44.4522 9.9541 44.2373V37.1904C9.9541 37.084 9.97488 36.9782 10.0156 36.8799C10.0564 36.7816 10.1162 36.6924 10.1914 36.6172C10.2666 36.542 10.3558 36.4821 10.4541 36.4414C10.5525 36.4007 10.6582 36.3799 10.7646 36.3799Z" fill="#CB8734" stroke="#CB8734" stroke-width="0.1"/>
</svg>
