<svg width="62" height="62" viewBox="0 0 62 62" fill="none" xmlns="http://www.w3.org/2000/svg">
<path d="M14.5479 27.0449H22.6699C23.2559 27.0449 23.7314 27.5195 23.7314 28.1055V32.1357C23.7314 32.2481 23.7256 32.3607 23.7178 32.4736L23.7168 32.4893L23.7188 32.5049C23.7261 32.5568 23.7314 32.6064 23.7314 32.6553V39.0254C23.7314 41.0568 22.9301 42.9039 21.6289 44.2715L21.4053 44.5078L21.7295 44.5244C21.8095 44.5287 21.888 44.5419 21.9639 44.5635L21.9775 44.5674L21.9912 44.5684C27.6371 45.0797 32.0761 49.8387 32.0762 55.6152V60.7891C32.0762 61.3749 31.6015 61.8495 31.0156 61.8496H1.21094C0.624993 61.8496 0.150411 61.375 0.150391 60.7891V55.6152C0.150483 49.8386 4.58938 45.0796 10.2354 44.5684L10.249 44.5674L10.2627 44.5635C10.3384 44.5419 10.4172 44.5287 10.4971 44.5244L10.8213 44.5078L10.5977 44.2715C9.29638 42.9039 8.49512 41.0568 8.49512 39.0254V33.0977C8.49512 29.7604 11.2105 27.045 14.5479 27.0449ZM21.9941 46.7607L16.8633 51.8916C16.6644 52.0905 16.3946 52.2031 16.1133 52.2031C15.8319 52.2031 15.5622 52.0905 15.3633 51.8916L10.2314 46.7607L10.1797 46.709L10.1074 46.7178C5.98788 47.2414 2.73012 50.5671 2.31641 54.7197L2.30078 54.8848H7.44727C8.03322 54.8848 8.50781 55.3594 8.50781 55.9453C8.50779 56.5313 8.03321 57.0059 7.44727 57.0059H2.27148V59.7285H29.9541V55.6152C29.954 51.0532 26.531 47.2785 22.1191 46.7178L22.0469 46.709L21.9941 46.7607ZM16.1133 49.6416L16.2197 49.5352L18.8545 46.8994L19.1113 46.6436H13.1152L16.1133 49.6416ZM21.3818 36.2881C20.6521 36.7287 19.7977 36.9824 18.8848 36.9824H10.6172V39.0254C10.6172 42.056 13.0827 44.5215 16.1133 44.5215C19.1439 44.5214 21.6094 42.056 21.6094 39.0254V36.1504L21.3818 36.2881ZM14.5479 29.166C12.3804 29.1661 10.6172 30.9301 10.6172 33.0977V34.8604H18.8848C20.3872 34.8604 21.6094 33.6382 21.6094 32.1357V29.166H14.5479Z" fill="#CB8734" stroke="white" stroke-width="0.3"/>
<path d="M44.3213 0.150391H52.4434C53.0293 0.150391 53.5049 0.62498 53.5049 1.21094V5.24121C53.5049 5.35361 53.4991 5.46621 53.4912 5.5791L53.4902 5.59473L53.4922 5.61035C53.4995 5.66229 53.5049 5.71192 53.5049 5.76074V12.1318C53.5048 14.1631 52.7034 16.0095 51.4023 17.377L51.1787 17.6133L51.5029 17.6309C51.5831 17.6352 51.6625 17.6473 51.7383 17.6689L51.751 17.6729L51.7656 17.6738C57.4111 18.1854 61.8495 22.9444 61.8496 28.7207V33.8945C61.8496 34.4804 61.3749 34.955 60.7891 34.9551H50.6572C50.0714 34.955 49.5967 34.4804 49.5967 33.8945C49.5967 33.3086 50.0713 32.8341 50.6572 32.834H59.7275V28.7207C59.7274 24.1588 56.3046 20.385 51.8926 19.8242L51.8203 19.8145L51.7676 19.8662L46.6367 24.998C46.4297 25.2051 46.1583 25.3085 45.8867 25.3086C45.6152 25.3086 45.3439 25.205 45.1367 24.998L39.9531 19.8145L39.8799 19.8242C35.4683 20.3851 32.0451 24.1589 32.0449 28.7207V32.833H40.7275C41.3135 32.833 41.7881 33.3086 41.7881 33.8945C41.788 34.4804 41.3134 34.9551 40.7275 34.9551H30.9844C30.3985 34.9551 29.9239 34.4804 29.9238 33.8945V28.7207C29.9239 22.9443 34.3621 18.1853 40.0078 17.6738L40.0215 17.6729L40.0352 17.6689C40.1108 17.6474 40.1896 17.6342 40.2695 17.6299L40.5947 17.6133L40.3711 17.377C39.0699 16.0094 38.2686 14.1623 38.2686 12.1309V6.20312C38.2686 2.86587 40.9839 0.150512 44.3213 0.150391ZM45.8867 22.7471L45.9932 22.6406L48.6289 20.0059L48.8848 19.749H42.8887L45.8867 22.7471ZM51.1553 9.39355C50.4256 9.83409 49.5711 10.0879 48.6582 10.0879H40.3906V12.1318C40.3909 15.1623 42.8563 17.6269 45.8867 17.627C48.9173 17.627 51.3828 15.1615 51.3828 12.1309V9.25586L51.1553 9.39355ZM44.3213 2.27148C42.1539 2.27167 40.3906 4.03565 40.3906 6.20312V7.96582H48.6582C50.1606 7.96582 51.3828 6.74363 51.3828 5.24121V2.27148H44.3213Z" fill="#CB8734" stroke="white" stroke-width="0.3"/>
<path d="M45.8872 32.834C46.1658 32.834 46.4401 32.9474 46.6372 33.1445C46.8343 33.3417 46.9478 33.6159 46.9478 33.8945C46.9478 34.1743 46.8344 34.4473 46.6372 34.6445C46.4404 34.8424 46.1662 34.9551 45.8872 34.9551C45.6071 34.9551 45.334 34.8424 45.1372 34.6445L45.0669 34.5674C44.9126 34.3794 44.8267 34.1398 44.8267 33.8945C44.8267 33.6503 44.9126 33.4098 45.0669 33.2217L45.1372 33.1445C45.3344 32.9473 45.6074 32.834 45.8872 32.834Z" fill="#CB8734" stroke="white" stroke-width="0.3"/>
<path d="M6.05469 0.150391H21.2617C24.5174 0.150391 27.167 2.79898 27.167 6.05469V11.9424L32.2754 17.0508C32.5785 17.3542 32.669 17.8108 32.5049 18.207C32.3406 18.6033 31.9534 18.8613 31.5244 18.8613H26.7637L26.7256 18.9551C25.8325 21.1504 23.7038 22.6152 21.2617 22.6152H6.05469C2.79898 22.6152 0.150394 19.9666 0.150391 16.7109V6.05469C0.150391 2.79898 2.79898 0.150391 6.05469 0.150391ZM6.05469 2.27148C3.96871 2.27148 2.27148 3.96871 2.27148 6.05469V16.7109C2.27149 18.7969 3.96871 20.4941 6.05469 20.4941H21.2617C23.0341 20.4941 24.5504 19.2878 24.9473 17.5625C25.0583 17.0809 25.4873 16.7402 25.9814 16.7402H28.9629L28.707 16.4834L25.3555 13.1318C25.1566 12.9329 25.0449 12.6631 25.0449 12.3818V6.05469C25.0449 3.96871 23.3477 2.27148 21.2617 2.27148H6.05469Z" fill="#CB8734" stroke="white" stroke-width="0.3"/>
<path d="M40.7378 41.5059C38.9655 41.5059 37.4491 42.7122 37.0522 44.4375C36.9412 44.9189 36.513 45.2596 36.019 45.2598H33.0366L33.2925 45.5166L36.644 48.8682C36.843 49.0671 36.9546 49.3368 36.9546 49.6182V55.9453C36.9546 58.0313 38.6518 59.7285 40.7378 59.7285H55.9448C58.0308 59.7285 59.728 58.0313 59.728 55.9453V45.2891C59.728 43.2031 58.0308 41.5059 55.9448 41.5059H40.7378ZM34.8335 50.0576L29.7251 44.9492C29.4218 44.6458 29.3304 44.1893 29.4946 43.793C29.6589 43.3967 30.0461 43.1387 30.4751 43.1387H35.2358L35.2739 43.0449C36.167 40.8496 38.2957 39.3848 40.7378 39.3848H55.9448C59.2005 39.3848 61.8501 42.0334 61.8501 45.2891V55.9453C61.8501 59.201 59.2005 61.8496 55.9448 61.8496H40.7378C37.4821 61.8496 34.8335 59.201 34.8335 55.9453V50.0576Z" fill="#CB8734" stroke="white" stroke-width="0.3"/>
<path d="M52.1787 47.5C52.593 47.0858 53.2646 47.0858 53.6787 47.5C54.0927 47.9144 54.0927 48.5858 53.6787 49L49.6035 53.0752C49.3965 53.2823 49.1251 53.3866 48.8535 53.3867C48.5818 53.3867 48.3098 53.2824 48.1025 53.0752L45.75 50.7227C45.3357 50.3082 45.3357 49.636 45.75 49.2217C46.1643 48.8077 46.8358 48.8078 47.25 49.2217L48.8535 50.8252L48.959 50.7188L52.1787 47.5Z" fill="#CB8734" stroke="white" stroke-width="0.3"/>
<path d="M15.2603 4.28125C17.2619 4.41932 18.8762 6.03354 19.0142 8.03516C19.1464 9.95302 17.952 11.6577 16.1431 12.1973L16.0366 12.2295V12.6934C16.0366 13.2793 15.5611 13.7549 14.9751 13.7549C14.3893 13.7547 13.9146 13.2792 13.9146 12.6934V12.0479C13.9146 11.1555 14.5241 10.3959 15.3989 10.2002C16.3335 9.99108 16.9632 9.14019 16.897 8.18066C16.8312 7.22967 16.0657 6.46421 15.1147 6.39844C14.5733 6.36043 14.0559 6.54311 13.6616 6.91113C13.267 7.27951 13.0493 7.78089 13.0493 8.32031C13.0491 8.9061 12.5736 9.38086 11.9878 9.38086C11.4019 9.38079 10.9274 8.90541 10.9272 8.31934C10.9274 7.20184 11.3962 6.12322 12.2134 5.36035C13.0426 4.58624 14.1241 4.20308 15.2603 4.28125Z" fill="#CB8734" stroke="white" stroke-width="0.3"/>
<path d="M14.9756 16.2676C15.2542 16.2676 15.5284 16.381 15.7256 16.5781C15.9227 16.7753 16.0361 17.0495 16.0361 17.3281C16.0361 17.6068 15.9227 17.881 15.7256 18.0781C15.5284 18.2753 15.2542 18.3887 14.9756 18.3887C14.7308 18.3887 14.4909 18.3023 14.3027 18.1484L14.2256 18.0781L14.1553 18.001C14.001 17.8128 13.915 17.5724 13.915 17.3281C13.915 17.0839 14.001 16.8434 14.1553 16.6553L14.2256 16.5781C14.4228 16.3809 14.6958 16.2676 14.9756 16.2676Z" fill="#CB8734" stroke="white" stroke-width="0.3"/>
<path d="M12.291 54.8848C12.5697 54.8848 12.8439 54.9982 13.041 55.1953C13.2382 55.3925 13.3516 55.6667 13.3516 55.9453C13.3516 56.224 13.2382 56.4982 13.041 56.6953C12.8439 56.8925 12.5697 57.0059 12.291 57.0059C12.0124 57.0059 11.7382 56.8925 11.541 56.6953C11.3439 56.4982 11.2305 56.224 11.2305 55.9453C11.2305 55.6667 11.3439 55.3925 11.541 55.1953C11.7382 54.9982 12.0124 54.8848 12.291 54.8848Z" fill="#CB8734" stroke="white" stroke-width="0.3"/>
</svg>
