<svg width="54" height="56" viewBox="0 0 54 56" fill="none" xmlns="http://www.w3.org/2000/svg">
<path d="M53.536 22.0588C52.2159 14.971 48.2145 8.82121 42.2691 4.74236C36.3233 0.663193 29.1458 -0.85633 22.0584 0.463948C14.9696 1.78401 8.81951 5.78573 4.7411 11.7317C0.662788 17.6774 -0.856195 24.8561 0.463975 31.945C1.07875 35.2532 2.2808 38.3663 4.0384 41.2046C3.63689 45.1526 2.79051 48.7565 0.148657 53.2981C-0.0282569 53.6023 -0.0457326 53.9738 0.101948 54.2932C0.24952 54.6126 0.543802 54.8399 0.89008 54.9022C2.12621 55.1248 3.47001 55.2317 4.86893 55.2317C9.20667 55.2317 14.0675 54.2026 17.8388 52.3962C22.3409 54.0258 27.206 54.4219 31.9416 53.5403C39.0304 52.2203 45.1806 48.2185 49.2589 42.2726C53.3372 36.3269 54.8562 29.1481 53.536 22.0588ZM31.5466 51.4193C27.046 52.257 22.4184 51.8409 18.1644 50.2155C17.8804 50.1071 17.5637 50.1234 17.2922 50.2606C13.1997 52.3318 7.35706 53.397 2.7891 52.9813C5.23861 48.3117 5.89589 44.4914 6.22189 41.0443C6.24444 40.805 6.18651 40.5648 6.05706 40.3622C4.34023 37.6738 3.17206 34.7093 2.58501 31.5504C0.077676 18.0859 8.9906 5.09209 22.4535 2.58498C28.9738 1.37053 35.578 2.76837 41.0485 6.52132C46.5188 10.2743 50.2003 15.9326 51.415 22.4539C53.9223 35.9183 45.0094 48.9123 31.5466 51.4193Z" fill="#CB8734"/>
<path d="M20.9411 37.2588H24.3963C24.992 37.2588 25.475 36.7757 25.475 36.18V31.5046C25.475 30.9089 24.992 30.4259 24.3963 30.4259H20.9411C20.5694 30.4259 20.2555 30.112 20.2555 29.7403V27.7184H22.7788C24.2655 27.7184 25.4751 26.5088 25.4751 25.0221V19.4385C25.4751 17.9518 24.2655 16.7422 22.7788 16.7422H16.1192C14.6324 16.7422 13.4229 17.9518 13.4229 19.4385V29.7403C13.4226 33.8861 16.7954 37.2588 20.9411 37.2588ZM15.5801 19.4385C15.5801 19.1464 15.8268 18.8997 16.119 18.8997H22.7786C23.0707 18.8997 23.3174 19.1464 23.3174 19.4385V25.0221C23.3174 25.3142 23.0707 25.5609 22.7786 25.5609H19.1766C18.5809 25.5609 18.0978 26.044 18.0978 26.6397V29.7403C18.0978 31.308 19.3732 32.5834 20.9409 32.5834H23.3173V35.1013H20.9409C17.9849 35.1013 15.58 32.6963 15.58 29.7403V19.4385H15.5801Z" fill="#CB8734"/>
<path d="M37.881 27.7184C39.3677 27.7184 40.5773 26.5088 40.5773 25.0221V19.4385C40.5773 17.9518 39.3677 16.7422 37.881 16.7422H31.2213C29.7329 16.7422 28.522 17.9518 28.522 19.4385V29.7403C28.522 33.8861 31.8961 37.2588 36.0434 37.2588H39.4986C40.0943 37.2588 40.5774 36.7757 40.5774 36.18V31.5046C40.5774 30.9089 40.0943 30.4259 39.4986 30.4259H36.0434C35.6702 30.4259 35.3548 30.112 35.3548 29.7403V27.7184H37.881ZM36.0433 32.5835H38.4198V35.1014H36.0433C33.0856 35.1014 30.6794 32.6964 30.6794 29.7404V19.4386C30.6794 19.1465 30.9276 18.8998 31.2212 18.8998H37.8808C38.173 18.8998 38.4197 19.1465 38.4197 19.4386V25.0222C38.4197 25.3143 38.173 25.561 37.8808 25.561H34.2758C33.6801 25.561 33.197 26.0441 33.197 26.6398V29.7404C33.1972 31.308 34.474 32.5835 36.0433 32.5835Z" fill="#CB8734"/>
<path d="M12.3091 13.3887C12.5852 13.3887 12.8612 13.2833 13.0718 13.0727L13.0749 13.0697C13.4961 12.6485 13.4946 11.9669 13.0732 11.5457C12.6519 11.1244 11.9674 11.1259 11.5462 11.5472C11.1249 11.9684 11.1249 12.6515 11.5462 13.0728C11.7569 13.2834 12.033 13.3887 12.3091 13.3887Z" fill="#CB8734"/>
<path d="M29.4337 5.28211C24.6076 4.74424 19.6848 5.84079 15.5723 8.36926C15.0648 8.68134 14.9063 9.34574 15.2184 9.85319C15.5305 10.3608 16.1949 10.5191 16.7023 10.2071C24.4891 5.41943 34.4509 6.59775 40.9279 13.0722C48.6088 20.7532 48.6088 33.2512 40.9282 40.9321C33.2466 48.6107 20.7504 48.6108 13.0718 40.9322C6.59759 34.4578 5.41841 24.4941 10.2042 16.7024C10.5159 16.1947 10.3571 15.5304 9.84947 15.2185C9.34192 14.9069 8.67763 15.0657 8.36565 15.5732C5.83847 19.6879 4.74279 24.6115 5.28033 29.4372C5.83438 34.4102 8.00104 38.9127 11.5461 42.4579C15.8064 46.7182 21.4013 48.8481 26.9986 48.8476C32.5944 48.8471 38.1926 46.7172 42.4535 42.4579C46.5821 38.3292 48.8559 32.8402 48.8559 27.0022C48.8559 21.1644 46.5822 15.6754 42.4533 11.5466C38.9585 8.05287 34.3346 5.82817 29.4337 5.28211Z" fill="#CB8734"/>
</svg>
