<svg width="62" height="63" viewBox="0 0 62 63" fill="none" xmlns="http://www.w3.org/2000/svg">
<path d="M39.6764 62.093C42.9902 62.1043 46.2718 61.4432 49.3228 60.1498C52.3738 58.8565 55.1307 56.9576 57.4268 54.5683C57.7571 54.2303 57.9933 53.8119 58.112 53.3545C58.2306 52.8971 58.2277 52.4166 58.1033 51.9607C57.986 51.513 57.7536 51.1038 57.4293 50.7737C57.105 50.4436 56.7 50.204 56.2545 50.0787C54.0962 49.4599 52.203 48.145 50.8694 46.3387C49.5359 44.5323 48.8369 42.3358 48.8812 40.091C48.9902 34.5794 53.5448 30.1251 59.0519 30.1251H59.1287L59.2295 30.1263C59.6997 30.1358 60.1642 30.023 60.5776 29.7988C60.991 29.5746 61.339 29.2467 61.5874 28.8475C61.8355 28.4549 61.9768 28.0045 61.9974 27.5406C62.018 27.0767 61.9171 26.6154 61.7049 26.2025C59.6392 22.1352 56.4876 18.7195 52.5993 16.334C48.7111 13.9484 44.2381 12.6863 39.6764 12.6875C33.1248 12.6875 26.8416 15.2901 22.2089 19.9228C17.5762 24.5554 14.9736 30.8387 14.9736 37.3903C14.9736 43.9419 17.5762 50.2251 22.2089 54.8578C26.8416 59.4904 33.1248 62.093 39.6764 62.093ZM23.5673 21.2729C26.1129 18.733 29.2235 16.8316 32.6448 15.7242C36.0661 14.6168 39.7008 14.3347 43.252 14.9012C46.8031 15.4676 50.1698 16.8664 53.0767 18.9832C55.9837 21.1001 58.3484 23.8748 59.9776 27.0806C60.0373 27.196 60.0657 27.325 60.0598 27.4548C60.0539 27.5846 60.014 27.7105 59.9441 27.82C59.8727 27.9359 59.7722 28.031 59.6524 28.0956C59.5327 28.1603 59.3981 28.1923 59.2621 28.1885L59.144 28.187H59.0525C52.4964 28.187 47.0736 33.4909 46.9443 40.0526C46.8919 42.725 47.7243 45.3398 49.3121 47.49C50.8999 49.6402 53.154 51.2053 55.7235 51.9415C55.8465 51.9761 55.9583 52.0424 56.0475 52.1338C56.1368 52.2252 56.2005 52.3385 56.2321 52.4622C56.2682 52.5949 56.2689 52.7347 56.2343 52.8677C56.1997 53.0007 56.1309 53.1224 56.0347 53.2206C53.9418 55.3735 51.4439 57.0913 48.6847 58.2752C45.9254 59.459 42.9593 60.0857 39.957 60.119C36.9547 60.1523 33.9754 59.5916 31.1906 58.4693C28.4058 57.3469 25.8703 55.6849 23.7302 53.5791C21.59 51.4732 19.8874 48.9649 18.7202 46.1985C17.5531 43.4322 16.9444 40.4623 16.9293 37.4599C16.9141 34.4574 17.4928 31.4816 18.632 28.7036C19.7712 25.9256 21.4485 23.4003 23.5673 21.2729Z" fill="#CB8734"/>
<path d="M2.90621 16.2163V21.3122C2.9065 21.388 2.91568 21.4636 2.93358 21.5372C0.9048 32.8924 0.272699 40.28 1.82655 53.3945C2.13437 55.9927 2.53082 58.6207 3.00514 61.2049C3.04597 61.4279 3.16367 61.6294 3.33778 61.7745C3.51188 61.9197 3.73136 61.9991 3.95801 61.9991H9.48671C9.71329 61.9991 9.9327 61.9197 10.1068 61.7746C10.2808 61.6296 10.3986 61.4281 10.4395 61.2053C10.9138 58.6208 11.3102 55.9929 11.6181 53.3948C13.2436 39.6741 12.6048 32.073 10.6561 21.2267V16.2163C11.5528 15.5924 12.2854 14.7609 12.7914 13.7928C13.2974 12.8247 13.5619 11.7485 13.5623 10.6561C13.5623 10.5211 13.537 7.32344 11.3411 5.12743C9.86173 3.64817 10.6 1.29463 10.6065 1.27513C10.6579 1.12088 10.6697 0.956158 10.6407 0.796156C10.6117 0.636154 10.5429 0.486017 10.4407 0.359584C10.3384 0.23315 10.206 0.134488 10.0556 0.0726898C9.90521 0.0108918 9.74168 -0.0120534 9.58007 0.00596896C4.64352 0.555727 2.29324 3.43905 1.19106 5.76026C0.468847 7.29552 0.0637474 8.96068 0 10.6561C0.000404052 11.7485 0.264888 12.8247 0.770915 13.7928C1.27694 14.7609 2.00951 15.5924 2.90621 16.2163ZM9.69414 53.1666C9.42265 55.4588 9.08093 57.7744 8.67697 60.0617H4.76788C4.36379 57.7742 4.02207 55.4587 3.7507 53.1666C2.24432 40.4519 2.83258 33.2141 4.76921 22.281H8.87605C10.6902 32.5607 11.255 39.9916 9.69414 53.1666ZM8.71863 20.3435H4.84368V17.1538C6.10767 17.5318 7.45464 17.5318 8.71863 17.1538V20.3435ZM2.9412 6.5912C4.05743 4.24019 5.92249 2.75125 8.49545 2.15184C8.40524 3.37208 8.58833 5.1146 9.97108 6.49735C11.578 8.10436 11.6241 10.5978 11.6248 10.6583C11.6227 11.872 11.1656 13.0408 10.3437 13.9338C9.52175 14.8268 8.39482 15.3791 7.18548 15.4816C6.26215 14.4479 5.84245 13.4771 5.94053 12.5922C6.08257 11.3092 7.29083 10.5114 7.30306 10.5036L6.26421 8.86809C6.1832 8.91919 4.27661 10.1454 4.01783 12.3519C3.92485 13.233 4.08445 14.1224 4.47798 14.9163C3.71037 14.5011 3.06913 13.8863 2.62197 13.1369C2.1748 12.3874 1.93831 11.5311 1.93747 10.6584C2.00019 9.24971 2.34133 7.86736 2.9412 6.5912Z" fill="#CB8734"/>
<path d="M45.5307 27.2186C46.2971 27.2186 47.0463 26.9914 47.6835 26.5656C48.3207 26.1398 48.8174 25.5346 49.1107 24.8266C49.404 24.1185 49.4807 23.3394 49.3312 22.5877C49.1817 21.8361 48.8126 21.1456 48.2707 20.6037C47.7288 20.0618 47.0383 19.6927 46.2867 19.5432C45.535 19.3937 44.7559 19.4704 44.0478 19.7637C43.3398 20.057 42.7346 20.5537 42.3088 21.1909C41.883 21.8281 41.6558 22.5773 41.6558 23.3437C41.6569 24.371 42.0655 25.356 42.792 26.0824C43.5184 26.8089 44.5034 27.2175 45.5307 27.2186ZM45.5307 21.4062C45.9139 21.4062 46.2885 21.5199 46.6071 21.7327C46.9257 21.9456 47.1741 22.2482 47.3207 22.6023C47.4673 22.9563 47.5057 23.3458 47.431 23.7217C47.3562 24.0975 47.1717 24.4427 46.9007 24.7137C46.6297 24.9847 46.2845 25.1692 45.9087 25.2439C45.5329 25.3187 45.1433 25.2803 44.7893 25.1337C44.4352 24.987 44.1326 24.7387 43.9198 24.4201C43.7069 24.1015 43.5932 23.7269 43.5932 23.3437C43.5938 22.83 43.7981 22.3376 44.1613 21.9743C44.5246 21.6111 45.017 21.4068 45.5307 21.4062Z" fill="#CB8734"/>
<path d="M32.937 28.1874C33.7033 28.1874 34.4525 27.9601 35.0898 27.5343C35.727 27.1086 36.2237 26.5034 36.5169 25.7953C36.8102 25.0873 36.887 24.3081 36.7374 23.5565C36.5879 22.8048 36.2189 22.1144 35.677 21.5724C35.135 21.0305 34.4446 20.6615 33.6929 20.512C32.9413 20.3624 32.1621 20.4392 31.4541 20.7325C30.746 21.0257 30.1408 21.5224 29.7151 22.1596C29.2893 22.7969 29.062 23.5461 29.062 24.3124C29.0632 25.3398 29.4718 26.3247 30.1982 27.0512C30.9247 27.7776 31.9096 28.1862 32.937 28.1874ZM32.937 22.375C33.3202 22.375 33.6947 22.4886 34.0134 22.7015C34.332 22.9144 34.5803 23.217 34.7269 23.571C34.8736 23.925 34.912 24.3146 34.8372 24.6904C34.7624 25.0663 34.5779 25.4115 34.307 25.6824C34.036 25.9534 33.6908 26.1379 33.3149 26.2127C32.9391 26.2874 32.5495 26.2491 32.1955 26.1024C31.8415 25.9558 31.5389 25.7075 31.326 25.3888C31.1131 25.0702 30.9995 24.6956 30.9995 24.3124C31.0001 23.7988 31.2044 23.3063 31.5676 22.9431C31.9308 22.5799 32.4233 22.3756 32.937 22.375Z" fill="#CB8734"/>
<path d="M29.0621 33.0312C29.0621 32.2648 28.8349 31.5156 28.4091 30.8784C27.9833 30.2412 27.3781 29.7445 26.6701 29.4512C25.962 29.1579 25.1829 29.0812 24.4312 29.2307C23.6796 29.3802 22.9891 29.7493 22.4472 30.2912C21.9053 30.8331 21.5362 31.5236 21.3867 32.2752C21.2372 33.0269 21.3139 33.806 21.6072 34.5141C21.9005 35.2221 22.3972 35.8273 23.0344 36.2531C23.6716 36.6789 24.4208 36.9061 25.1872 36.9061C26.2145 36.905 27.1995 36.4964 27.9259 35.7699C28.6524 35.0435 29.061 34.0585 29.0621 33.0312ZM23.2497 33.0312C23.2497 32.648 23.3634 32.2734 23.5763 31.9548C23.7891 31.6362 24.0917 31.3878 24.4458 31.2412C24.7998 31.0946 25.1894 31.0562 25.5652 31.131C25.941 31.2057 26.2862 31.3902 26.5572 31.6612C26.8282 31.9322 27.0127 32.2774 27.0874 32.6532C27.1622 33.029 27.1238 33.4186 26.9772 33.7726C26.8306 34.1267 26.5822 34.4293 26.2636 34.6421C25.945 34.855 25.5704 34.9687 25.1872 34.9687C24.6735 34.9681 24.1811 34.7638 23.8178 34.4006C23.4546 34.0373 23.2503 33.5449 23.2497 33.0312Z" fill="#CB8734"/>
<path d="M27.1247 47.5624C27.8911 47.5624 28.6403 47.3351 29.2775 46.9093C29.9147 46.4836 30.4114 45.8784 30.7047 45.1703C30.998 44.4623 31.0747 43.6831 30.9252 42.9315C30.7757 42.1798 30.4066 41.4894 29.8647 40.9474C29.3228 40.4055 28.6323 40.0365 27.8807 39.887C27.129 39.7374 26.3499 39.8142 25.6418 40.1075C24.9338 40.4007 24.3286 40.8974 23.9028 41.5346C23.477 42.1719 23.2498 42.9211 23.2498 43.6874C23.2509 44.7148 23.6595 45.6997 24.386 46.4262C25.1124 47.1526 26.0974 47.5612 27.1247 47.5624ZM27.1247 41.75C27.5079 41.75 27.8825 41.8636 28.2011 42.0765C28.5197 42.2894 28.768 42.592 28.9147 42.946C29.0613 43.3 29.0997 43.6896 29.0249 44.0654C28.9502 44.4413 28.7657 44.7865 28.4947 45.0574C28.2237 45.3284 27.8785 45.5129 27.5027 45.5877C27.1268 45.6624 26.7373 45.6241 26.3833 45.4774C26.0292 45.3308 25.7266 45.0825 25.5138 44.7638C25.3009 44.4452 25.1872 44.0706 25.1872 43.6874C25.1878 43.1738 25.3921 42.6813 25.7553 42.3181C26.1186 41.9549 26.611 41.7506 27.1247 41.75Z" fill="#CB8734"/>
<path d="M34.8745 47.5625C34.1081 47.5625 33.3589 47.7898 32.7217 48.2155C32.0844 48.6413 31.5878 49.2465 31.2945 49.9546C31.0012 50.6626 30.9245 51.4417 31.074 52.1934C31.2235 52.9451 31.5925 53.6355 32.1345 54.1774C32.6764 54.7194 33.3668 55.0884 34.1185 55.2379C34.8702 55.3874 35.6493 55.3107 36.3573 55.0174C37.0654 54.7241 37.6706 54.2275 38.0964 53.5902C38.5221 52.953 38.7494 52.2038 38.7494 51.4374C38.7482 50.4101 38.3396 49.4252 37.6132 48.6987C36.8867 47.9723 35.9018 47.5637 34.8745 47.5625ZM34.8745 53.3749C34.4913 53.3749 34.1167 53.2613 33.7981 53.0484C33.4794 52.8355 33.2311 52.5329 33.0845 52.1789C32.9378 51.8249 32.8995 51.4353 32.9742 51.0595C33.049 50.6836 33.2335 50.3384 33.5045 50.0674C33.7754 49.7965 34.1206 49.612 34.4965 49.5372C34.8723 49.4624 35.2619 49.5008 35.6159 49.6475C35.9699 49.7941 36.2725 50.0424 36.4854 50.361C36.6983 50.6797 36.8119 51.0542 36.8119 51.4374C36.8114 51.9511 36.607 52.4436 36.2438 52.8068C35.8806 53.17 35.3881 53.3743 34.8745 53.3749Z" fill="#CB8734"/>
<path d="M41.6558 53.3749C41.6558 54.1413 41.883 54.8905 42.3088 55.5277C42.7346 56.165 43.3398 56.6616 44.0478 56.9549C44.7559 57.2482 45.535 57.3249 46.2867 57.1754C47.0383 57.0259 47.7288 56.6569 48.2707 56.1149C48.8126 55.573 49.1817 54.8826 49.3312 54.1309C49.4807 53.3792 49.404 52.6001 49.1107 51.8921C48.8174 51.184 48.3207 50.5788 47.6835 50.153C47.0463 49.7273 46.2971 49.5 45.5307 49.5C44.5034 49.5012 43.5184 49.9098 42.792 50.6362C42.0655 51.3627 41.6569 52.3476 41.6558 53.3749ZM47.4682 53.3749C47.4682 53.7581 47.3545 54.1327 47.1417 54.4513C46.9288 54.77 46.6262 55.0183 46.2721 55.1649C45.9181 55.3116 45.5286 55.3499 45.1527 55.2752C44.7769 55.2004 44.4317 55.0159 44.1607 54.7449C43.8897 54.474 43.7052 54.1288 43.6305 53.7529C43.5557 53.3771 43.5941 52.9875 43.7407 52.6335C43.8874 52.2795 44.1357 51.9769 44.4543 51.764C44.7729 51.5511 45.1475 51.4375 45.5307 51.4375C46.0444 51.438 46.5368 51.6424 46.9001 52.0056C47.2633 52.3688 47.4676 52.8613 47.4682 53.3749Z" fill="#CB8734"/>
<path d="M33.9058 35.9374C33.9058 37.087 34.2467 38.2108 34.8853 39.1666C35.524 40.1225 36.4318 40.8675 37.4939 41.3074C38.5559 41.7473 39.7246 41.8624 40.8521 41.6382C41.9796 41.4139 43.0153 40.8603 43.8282 40.0474C44.6411 39.2345 45.1946 38.1989 45.4189 37.0714C45.6432 35.9439 45.5281 34.7752 45.0882 33.7131C44.6482 32.651 43.9032 31.7432 42.9474 31.1046C41.9915 30.4659 40.8678 30.125 39.7182 30.125C38.1772 30.1267 36.6998 30.7397 35.6101 31.8293C34.5204 32.919 33.9075 34.3964 33.9058 35.9374ZM39.7182 32.0625C40.4846 32.0625 41.2338 32.2897 41.871 32.7155C42.5082 33.1413 43.0049 33.7465 43.2982 34.4545C43.5914 35.1626 43.6682 35.9417 43.5187 36.6934C43.3692 37.445 43.0001 38.1355 42.4582 38.6774C41.9163 39.2193 41.2258 39.5884 40.4741 39.7379C39.7225 39.8874 38.9434 39.8107 38.2353 39.5174C37.5272 39.2241 36.9221 38.7275 36.4963 38.0902C36.0705 37.453 35.8432 36.7038 35.8432 35.9374C35.8444 34.9101 36.253 33.9251 36.9795 33.1987C37.7059 32.4722 38.6908 32.0636 39.7182 32.0625Z" fill="#CB8734"/>
<path d="M16.3218 8.44082L19.1012 9.96089L20.6214 12.7403C20.7048 12.8928 20.8278 13.0201 20.9773 13.1087C21.1268 13.1974 21.2975 13.2441 21.4713 13.2441C21.6451 13.2441 21.8158 13.1974 21.9653 13.1087C22.1148 13.0201 22.2378 12.8928 22.3212 12.7403L23.8414 9.96089L26.6208 8.44082C26.7733 8.35741 26.9006 8.23448 26.9893 8.08493C27.0779 7.93539 27.1247 7.76474 27.1247 7.59088C27.1247 7.41703 27.0779 7.24637 26.9893 7.09683C26.9006 6.94728 26.7733 6.82435 26.6208 6.74093L23.8414 5.22075L22.3212 2.44132C22.2378 2.28881 22.1148 2.16157 21.9653 2.07292C21.8158 1.98428 21.6451 1.9375 21.4713 1.9375C21.2975 1.9375 21.1268 1.98428 20.9773 2.07292C20.8278 2.16157 20.7048 2.28881 20.6214 2.44132L19.1012 5.22075L16.3218 6.74081C16.1693 6.82423 16.042 6.94716 15.9533 7.09671C15.8647 7.24625 15.8179 7.4169 15.8179 7.59076C15.8179 7.76461 15.8647 7.93527 15.9533 8.08481C16.042 8.23436 16.1693 8.35729 16.3218 8.4407V8.44082ZM20.2799 6.78453C20.4425 6.69563 20.5761 6.56199 20.665 6.39946L21.4714 4.92516L22.2777 6.39946C22.3666 6.56199 22.5002 6.69563 22.6628 6.78453L24.1371 7.59088L22.6628 8.39711C22.5002 8.48601 22.3666 8.61965 22.2777 8.78218L21.4712 10.2565L20.6649 8.78218C20.576 8.61965 20.4424 8.48601 20.2798 8.39711L18.8056 7.59088L20.2799 6.78453Z" fill="#CB8734"/>
</svg>
