<svg width="62" height="62" viewBox="0 0 62 62" fill="none" xmlns="http://www.w3.org/2000/svg">
<rect opacity="0.58" width="62" height="62" fill="white"/>
<path d="M51.5633 34.009C51.4665 33.9123 51.3517 33.8355 51.2253 33.7832C51.0989 33.7308 50.9634 33.7038 50.8266 33.7038C50.6898 33.7038 50.5543 33.7308 50.4279 33.7832C50.3015 33.8355 50.1866 33.9123 50.0899 34.009L48.8695 35.2294L47.8278 34.1877V29.9687C47.8277 27.3342 46.7811 24.8075 44.9182 22.9447C43.0553 21.0818 40.5287 20.0352 37.8942 20.0352H37.8421L35.8849 18.0781C33.915 16.0974 31.2666 14.9386 28.475 14.8357L26.7711 13.1318L27.9916 11.9114C28.0883 11.8147 28.1651 11.6998 28.2174 11.5735C28.2698 11.4471 28.2967 11.3116 28.2967 11.1748C28.2967 11.038 28.2698 10.9025 28.2174 10.7761C28.1651 10.6497 28.0883 10.5349 27.9916 10.4382L17.6785 0.125L16.2054 1.59788L25.7816 11.1739L11.0493 25.9062L1.4734 16.3306L0 17.8033L10.3125 28.1165C10.4092 28.2132 10.5241 28.29 10.6505 28.3424C10.7769 28.3947 10.9124 28.4217 11.0492 28.4217C11.186 28.4217 11.3215 28.3947 11.4479 28.3424C11.5743 28.29 11.6892 28.2132 11.7859 28.1165L12.7969 27.1053L14.4923 28.8008V33.5779C14.4921 34.0779 14.6119 34.5707 14.8417 35.0148C15.0715 35.4589 15.4045 35.8414 15.8128 36.13C16.2211 36.4187 16.6928 36.6051 17.1881 36.6736C17.6834 36.7422 18.1879 36.6908 18.6593 36.5238V37.7448C18.659 38.2449 18.7788 38.7376 19.0086 39.1817C19.2384 39.6259 19.5714 40.0083 19.9797 40.297C20.388 40.5856 20.8597 40.7721 21.355 40.8406C21.8503 40.9091 22.3548 40.8577 22.8262 40.6907V41.9117C22.8259 42.4118 22.9458 42.9046 23.1755 43.3487C23.4053 43.7928 23.7384 44.1752 24.1467 44.4639C24.555 44.7526 25.0266 44.939 25.5219 45.0075C26.0172 45.076 26.5218 45.0246 26.9931 44.8576V46.0787C26.9927 46.7115 27.1845 47.3295 27.5432 47.8508C27.9019 48.3722 28.4104 48.7723 29.0015 48.9982C29.5927 49.2241 30.2384 49.2651 30.8534 49.1158C31.4683 48.9665 32.0234 48.6339 32.4451 48.1621H33.8538L34.8956 49.2039L33.8844 50.215C33.7877 50.3117 33.7109 50.4266 33.6586 50.553C33.6062 50.6794 33.5793 50.8148 33.5793 50.9516C33.5793 51.0884 33.6062 51.2239 33.6586 51.3503C33.7109 51.4767 33.7877 51.5915 33.8844 51.6883L44.1976 62.0014L45.6705 60.5271L36.0943 50.9511L50.827 36.2188L60.4029 45.7948L61.8763 44.3215L51.5633 34.009ZM30.1183 47.12C29.8421 47.1197 29.5773 47.0099 29.382 46.8146C29.1867 46.6193 29.0769 46.3545 29.0766 46.0783V37.7444H26.9931V41.9114C26.9931 42.1876 26.8834 42.4526 26.688 42.648C26.4926 42.8433 26.2277 42.9531 25.9514 42.9531C25.6751 42.9531 25.4101 42.8433 25.2148 42.648C25.0194 42.4526 24.9096 42.1876 24.9096 41.9114V33.5775H22.8262V37.7444C22.8262 38.0207 22.7164 38.2857 22.5211 38.481C22.3257 38.6764 22.0607 38.7862 21.7844 38.7862C21.5082 38.7862 21.2432 38.6764 21.0478 38.481C20.8525 38.2857 20.7427 38.0207 20.7427 37.7444V30.4523H18.6593V33.5775C18.6593 33.8538 18.5495 34.1188 18.3541 34.3141C18.1588 34.5095 17.8938 34.6192 17.6175 34.6192C17.3412 34.6192 17.0763 34.5095 16.8809 34.3141C16.6855 34.1188 16.5758 33.8538 16.5758 33.5775V28.3688C16.5758 28.232 16.5488 28.0966 16.4965 27.9702C16.4442 27.8438 16.3674 27.7289 16.2707 27.6322L14.2702 25.6317L25.2977 14.6042L27.2982 16.604C27.3949 16.7008 27.5098 16.7775 27.6362 16.8299C27.7626 16.8823 27.898 16.9092 28.0348 16.9093C29.2196 16.906 30.3932 17.1378 31.4878 17.5912C32.5823 18.0446 33.5761 18.7105 34.4115 19.5506L34.8954 20.0345H24.9096C24.6334 20.0345 24.3684 20.1442 24.173 20.3396C23.9777 20.5349 23.8679 20.7999 23.8679 21.0762C23.8707 22.8 24.4389 24.4753 25.4852 25.8452C26.5315 27.2152 27.9983 28.2041 29.6606 28.6604L31.16 29.0693V46.0783C31.1597 46.3545 31.0499 46.6193 30.8546 46.8146C30.6593 47.0099 30.3945 47.1197 30.1183 47.12ZM35.0219 46.3834C34.9251 46.2867 34.8103 46.2099 34.6839 46.1576C34.5575 46.1052 34.422 46.0783 34.2852 46.0783H33.2435V29.6379L35.327 30.2062V30.4523C35.3285 31.8332 35.8778 33.1572 36.8543 34.1337C37.8307 35.1101 39.1547 35.6594 40.5356 35.661C40.8119 35.661 41.0769 35.5512 41.2722 35.3558C41.4676 35.1605 41.5774 34.8955 41.5774 34.6192C41.5774 34.3429 41.4676 34.078 41.2722 33.8826C41.0769 33.6872 40.8119 33.5775 40.5356 33.5775C39.7071 33.5766 38.9127 33.247 38.3268 32.6611C37.7409 32.0752 37.4114 31.2809 37.4104 30.4523V29.4106C37.4104 29.1819 37.3352 28.9597 37.1964 28.778C37.0575 28.5964 36.8628 28.4654 36.6422 28.4054L30.2082 26.6508C29.1589 26.3624 28.212 25.7843 27.4761 24.9827C26.7401 24.1811 26.2448 23.1885 26.0468 22.1184H37.8947C38.9256 22.1184 39.9464 22.3214 40.8988 22.7159C41.8512 23.1104 42.7166 23.6886 43.4456 24.4176C44.1746 25.1465 44.7528 26.0119 45.1473 26.9643C45.5418 27.9167 45.7448 28.9375 45.7448 29.9684V34.6192C45.7448 34.8955 45.8546 35.1604 46.0499 35.3557L47.3967 36.7027L36.3692 47.7301L35.0219 46.3834Z" fill="#CB8734"/>
<path d="M7.43893 27.0859H5.35547V59.3796C5.35547 59.6559 5.46522 59.9209 5.66059 60.1163C5.85595 60.3116 6.12092 60.4214 6.3972 60.4214H37.6492V58.3379H7.43893V27.0859Z" fill="#CB8734"/>
<path d="M55.3586 35.4189H57.4421V1.04173C57.4421 0.765448 57.3323 0.500479 57.137 0.305116C56.9416 0.109754 56.6766 0 56.4004 0H22.0232V2.08346H55.3586V35.4189Z" fill="#CB8734"/>
<path d="M47.0248 5.20703C45.9947 5.20703 44.9876 5.51251 44.131 6.08485C43.2745 6.65718 42.6069 7.47067 42.2127 8.42243C41.8184 9.37418 41.7153 10.4215 41.9162 11.4319C42.1172 12.4422 42.6133 13.3703 43.3417 14.0988C44.0702 14.8272 44.9983 15.3233 46.0087 15.5243C47.019 15.7253 48.0663 15.6221 49.0181 15.2279C49.9699 14.8336 50.7833 14.166 51.3557 13.3095C51.928 12.4529 52.2335 11.4459 52.2335 10.4157C52.2319 9.03475 51.6827 7.7108 50.7062 6.73433C49.7297 5.75785 48.4058 5.20858 47.0248 5.20703ZM47.0248 13.5409C46.4067 13.5409 45.8025 13.3576 45.2886 13.0142C44.7746 12.6708 44.3741 12.1827 44.1375 11.6117C43.901 11.0406 43.8391 10.4122 43.9597 9.806C44.0803 9.19977 44.3779 8.64291 44.815 8.20584C45.252 7.76878 45.8089 7.47113 46.4151 7.35055C47.0214 7.22996 47.6497 7.29185 48.2208 7.52839C48.7918 7.76493 49.2799 8.16549 49.6233 8.67943C49.9667 9.19336 50.15 9.79759 50.15 10.4157C50.1491 11.2443 49.8195 12.0386 49.2336 12.6245C48.6477 13.2104 47.8534 13.5399 47.0248 13.5409Z" fill="#CB8734"/>
<path d="M1.18848 32.293H3.27194V53.1276H1.18848V32.293Z" fill="#CB8734"/>
<path d="M59.5254 5.20703H61.6089V28.1251H59.5254V5.20703Z" fill="#CB8734"/>
</svg>
