<svg width="62" height="62" viewBox="0 0 62 62" fill="none" xmlns="http://www.w3.org/2000/svg">
<rect opacity="0.58" width="62" height="62" fill="white"/>
<path d="M3.63281 0.0751953H51.8291C53.7907 0.0753029 55.3867 1.67116 55.3867 3.63281V10.0508C55.3867 10.6781 54.8783 11.1864 54.251 11.1865C53.6236 11.1865 53.1152 10.6782 53.1152 10.0508V3.63281C53.1152 2.92376 52.5381 2.34679 51.8291 2.34668H3.63281C2.92371 2.34671 2.34671 2.92371 2.34668 3.63281V58.3682C2.34674 59.0772 2.92373 59.6543 3.63281 59.6543H51.8291C52.5381 59.6542 53.1152 59.0772 53.1152 58.3682V54.9775C53.1152 54.3502 53.6236 53.8418 54.251 53.8418C54.8783 53.8419 55.3867 54.3502 55.3867 54.9775V58.3682C55.3867 60.3298 53.7907 61.9257 51.8291 61.9258H3.63281C1.67113 61.9258 0.0752512 60.3298 0.0751953 58.3682V3.63281C0.0752248 1.67111 1.67111 0.0752249 3.63281 0.0751953Z" fill="#CB8734" stroke="white" stroke-width="0.15"/>
<path d="M7.02271 5.8877H48.4387C49.0661 5.8877 49.5745 6.39606 49.5745 7.02344V10.1719C49.5745 10.7993 49.0661 11.3076 48.4387 11.3076C47.8115 11.3075 47.303 10.7992 47.303 10.1719V8.15918H8.15845V32.332C8.15845 32.9594 7.65009 33.4688 7.02271 33.4688C6.39532 33.4687 5.88696 32.9594 5.88696 32.332V7.02344C5.88697 6.39606 6.39533 5.88771 7.02271 5.8877Z" fill="#CB8734" stroke="white" stroke-width="0.15"/>
<path d="M7.02271 40.3408C7.65009 40.3408 8.15844 40.8492 8.15845 41.4766V53.8428H47.303V52.3145C47.3031 51.6872 47.8115 51.1788 48.4387 51.1787C49.0661 51.1787 49.5744 51.6871 49.5745 52.3145V54.9785C49.5745 55.6059 49.0661 56.1143 48.4387 56.1143H7.02271C6.39532 56.1142 5.88696 55.6059 5.88696 54.9785V41.4766C5.88697 40.8492 6.39533 40.3408 7.02271 40.3408Z" fill="#CB8734" stroke="white" stroke-width="0.15"/>
<path d="M35.8682 42.8408C36.3119 42.3972 37.031 42.3981 37.4746 42.8418C37.9182 43.2855 37.9182 44.0047 37.4746 44.4482L35.0723 46.8506C34.6174 47.3054 34.0197 47.5332 33.4219 47.5332C32.8241 47.5331 32.2263 47.3054 31.7715 46.8506L30.2842 45.3623L30.2314 45.3096L30.1777 45.3623L29.2197 46.3213C28.776 46.7649 28.0559 46.7649 27.6123 46.3213C27.1691 45.8776 27.169 45.1583 27.6123 44.7148L28.5811 43.7471C29.4911 42.8372 30.9718 42.8372 31.8818 43.7471L33.3691 45.2344L33.4219 45.2881L33.4756 45.2344L35.8682 42.8408Z" fill="#CB8734" stroke="white" stroke-width="0.15"/>
<path d="M49.7991 38.2119C49.4135 37.9647 48.9152 37.9645 48.5295 38.2119C47.9236 38.6003 47.2132 38.7862 46.5042 38.7529L46.425 38.749V46.2725L46.553 46.1455L48.3635 44.3447C48.8066 43.9041 49.522 43.904 49.9651 44.3447L51.7756 46.1455L51.9036 46.2725V38.748L51.8245 38.752C51.7687 38.7546 51.7155 38.7568 51.6624 38.7568C51.0077 38.7568 50.3588 38.5707 49.7991 38.2119ZM51.9641 15.5469C51.6407 15.4601 51.3064 15.5118 51.0247 15.6924C49.8946 16.4171 48.4334 16.4172 47.303 15.6924C47.0214 15.5118 46.6876 15.4605 46.3645 15.5469C46.0412 15.6335 45.778 15.8452 45.6243 16.1426C45.0078 17.3354 43.7428 18.0651 42.4006 18.0029C42.0671 17.9876 41.7515 18.1099 41.5149 18.3467C41.2784 18.5833 41.1556 18.8982 41.1711 19.2324C41.2335 20.5737 40.5035 21.8395 39.3108 22.4561C39.0136 22.6097 38.8017 22.8731 38.7151 23.1963C38.6285 23.5196 38.6801 23.854 38.8606 24.1357C39.5851 25.2661 39.5852 26.7272 38.8606 27.8574C38.6801 28.139 38.6286 28.4727 38.7151 28.7959C38.8017 29.1193 39.0135 29.3825 39.3108 29.5361C39.6361 29.7043 39.9258 29.9222 40.176 30.1758L40.178 30.1777C40.1965 30.1954 40.2144 30.2143 40.2327 30.2344L40.2336 30.2354C40.8633 30.905 41.215 31.8126 41.1711 32.7588C41.1555 33.0933 41.2781 33.4087 41.5149 33.6455C41.7515 33.8821 42.0672 34.0046 42.4006 33.9893V33.9883C43.7429 33.9256 45.0077 34.6569 45.6243 35.8496C45.7781 36.1468 46.0412 36.3587 46.3645 36.4453C46.6875 36.5317 47.0213 36.4802 47.303 36.2998C47.8681 35.9376 48.5165 35.7559 49.1643 35.7559C49.8122 35.7559 50.4596 35.9376 51.0247 36.2998C51.3063 36.4805 51.641 36.5318 51.9641 36.4453C52.247 36.3695 52.4841 36.198 52.6418 35.957L52.7043 35.8496C53.3209 34.657 54.5851 33.9273 55.927 33.9893H55.928C56.2621 34.0044 56.5772 33.8821 56.8137 33.6455C57.0502 33.4089 57.172 33.094 57.1565 32.7598C57.094 31.4185 57.8251 30.1527 59.0178 29.5361C59.315 29.3824 59.5269 29.1191 59.6135 28.7959C59.7002 28.4726 59.6487 28.1382 59.468 27.8564C58.7434 26.7261 58.7434 25.2651 59.468 24.1348C59.6484 23.8533 59.7 23.5194 59.6135 23.1963C59.5269 22.873 59.315 22.6097 59.0178 22.4561C57.8249 21.8395 57.0942 20.5736 57.1565 19.2324C57.172 18.8983 57.0503 18.5833 56.8137 18.3467C56.5771 18.11 56.2622 17.9878 55.928 18.0029H55.927C54.5858 18.0653 53.3209 17.3351 52.7043 16.1426C52.5506 15.8454 52.2874 15.6335 51.9641 15.5469ZM44.1536 37.666L44.1331 37.6445C43.9262 37.4201 43.7479 37.1678 43.6057 36.8926C43.3954 36.4858 42.9634 36.2354 42.5061 36.2578C41.5391 36.3033 40.5927 35.9362 39.9084 35.252C39.224 34.5675 38.8577 33.6201 38.9026 32.6533C38.9102 32.4896 38.8815 32.3299 38.8254 32.1826L38.8069 32.1348H15.2307C14.6035 32.1348 14.0952 31.6262 14.095 30.999C14.095 30.3716 14.6033 29.8623 15.2307 29.8623H36.6868L36.6458 29.7598C36.5971 29.6373 36.555 29.5118 36.5208 29.3838C36.2703 28.4491 36.4263 27.4456 36.9485 26.6309C36.9916 26.5637 37.024 26.493 37.051 26.4238L37.0911 26.3223H15.2307C14.6035 26.3221 14.095 25.8128 14.095 25.1855C14.0952 24.5585 14.6037 24.05 15.2307 24.0498H36.4485L36.4368 23.9648C36.3755 23.5155 36.4013 23.0541 36.5208 22.6084C36.7713 21.6735 37.4081 20.8819 38.2678 20.4375C38.6747 20.2271 38.9239 19.7956 38.9026 19.3379C38.8578 18.3714 39.2243 17.4245 39.9084 16.7402C40.5927 16.0559 41.5399 15.6892 42.5071 15.7344C42.9633 15.755 43.3963 15.5066 43.6067 15.0996C44.0511 14.24 44.8418 13.6031 45.7766 13.3525C46.7115 13.102 47.7148 13.2579 48.5295 13.7803C48.915 14.0275 49.4134 14.0275 49.7991 13.7803C50.6137 13.258 51.6169 13.1019 52.552 13.3525C53.4868 13.6031 54.2785 14.2399 54.7229 15.0996C54.9332 15.5059 55.3619 15.7564 55.8215 15.7344V15.7334C56.7887 15.6879 57.7359 16.0559 58.4202 16.7402C59.1043 17.4245 59.4708 18.3713 59.426 19.3379C59.4047 19.7954 59.6539 20.2271 60.0608 20.4375C60.9206 20.8819 61.5573 21.6736 61.8079 22.6084C62.0583 23.5431 61.9024 24.5466 61.3801 25.3613C61.1328 25.747 61.1328 26.2455 61.3801 26.6309C61.9023 27.4457 62.0584 28.4489 61.8079 29.3838C61.5573 30.3187 60.9205 31.1103 60.0608 31.5547C59.6542 31.7651 59.4048 32.1959 59.426 32.6533C59.4709 33.6201 59.1046 34.5675 58.4202 35.252C57.7358 35.9364 56.7892 36.3036 55.8215 36.2578C55.3647 36.2371 54.9333 36.4857 54.7229 36.8926C54.5807 37.1678 54.4024 37.4203 54.1956 37.6445L54.175 37.666V49.0049C54.175 49.4636 53.8993 49.8775 53.4758 50.0537C53.3348 50.1123 53.186 50.1406 53.0393 50.1406C52.7449 50.1406 52.4556 50.0263 52.2385 49.8105L49.217 46.8047L49.1643 46.752L49.1116 46.8047L46.0901 49.8105C45.7646 50.134 45.2762 50.2298 44.8528 50.0537C44.4292 49.8775 44.1536 49.4637 44.1536 49.0049V37.666Z" fill="#CB8734" stroke="white" stroke-width="0.15"/>
<path d="M53.2632 22.7549C53.7066 22.3115 54.426 22.3118 54.8696 22.7549C55.3132 23.1986 55.3132 23.9187 54.8696 24.3623L49.9946 29.2373C49.7729 29.4592 49.4817 29.5703 49.1909 29.5703C48.9002 29.5703 48.61 29.4591 48.3882 29.2373L45.9312 26.7812C45.4879 26.3376 45.4879 25.6183 45.9312 25.1748C46.3749 24.7312 47.095 24.7312 47.5386 25.1748L49.1382 26.7744L49.1909 26.8281L49.2446 26.7744L53.2632 22.7549Z" fill="#CB8734" stroke="white" stroke-width="0.15"/>
<path d="M22.8279 35.6768H36.6716C37.299 35.6768 37.8074 36.1851 37.8074 36.8125C37.8074 37.4399 37.299 37.9482 36.6716 37.9482H22.8279C22.2005 37.9482 21.6921 37.4399 21.6921 36.8125C21.6921 36.1851 22.2005 35.6768 22.8279 35.6768Z" fill="#CB8734" stroke="white" stroke-width="0.15"/>
</svg>
