<svg width="62" height="62" viewBox="0 0 62 62" fill="none" xmlns="http://www.w3.org/2000/svg">
<mask id="path-1-inside-1_3995_2388" fill="white">
<path d="M61.092 22.0686H59.9942V20.9694C59.9942 20.4678 59.5876 20.0612 59.0859 20.0612C58.5843 20.0612 58.1777 20.4678 58.1777 20.9694V22.0686H57.0799C56.5782 22.0686 56.1717 22.4751 56.1717 22.9768V25.9847C56.1717 26.0371 56.1291 26.0796 56.0768 26.0796H49.0553C48.5536 26.0796 48.1471 26.4861 48.1471 26.9878V28.0856H47.0492C46.5475 28.0856 46.141 28.4921 46.141 28.9938C46.141 29.4955 46.5475 29.902 47.0492 29.902H48.1471V31C48.1471 31.5017 48.5536 31.9082 49.0553 31.9082H56.0767C56.1291 31.9082 56.1716 31.9508 56.1716 32.003V48.0519C56.1716 48.1043 56.129 48.1468 56.0767 48.1468H38.0216C37.9693 48.1468 37.9268 48.1041 37.9268 48.0519V43.0367C37.9268 42.535 37.5202 42.1285 37.0186 42.1285H35.9207V41.0307C35.9207 40.529 35.5142 40.1225 35.0125 40.1225C34.5108 40.1225 34.1043 40.529 34.1043 41.0307V42.1285H33.0064C32.5047 42.1285 32.0982 42.535 32.0982 43.0367V48.0521C32.0982 48.1044 32.0555 48.1469 32.0033 48.1469H13.9483C13.8959 48.1469 13.8534 48.1042 13.8534 48.0521V32.003C13.8534 31.9507 13.8961 31.9082 13.9483 31.9082H32.0033C32.0556 31.9082 32.0982 31.9508 32.0982 32.003V35.0122C32.0982 35.5139 32.5047 35.9204 33.0064 35.9204H34.1043V37.0184C34.1043 37.5201 34.5108 37.9266 35.0125 37.9266C35.5142 37.9266 35.9207 37.5201 35.9207 37.0184V35.9204H37.0186C37.5202 35.9204 37.9268 35.5139 37.9268 35.0122V32.003C37.9268 31.9507 37.9694 31.9082 38.0216 31.9082H41.0308C41.5324 31.9082 41.939 31.5017 41.939 31V29.9022H43.0369C43.5386 29.9022 43.9451 29.4957 43.9451 28.994C43.9451 28.4923 43.5386 28.0858 43.0369 28.0858H41.939V26.9879C41.939 26.4862 41.5324 26.0797 41.0308 26.0797H38.0216C37.9693 26.0797 37.9268 26.0371 37.9268 25.9848V22.9756C37.9268 22.4739 37.5202 22.0674 37.0186 22.0674H35.9207V20.9696C35.9207 20.4679 35.5142 20.0614 35.0125 20.0614C34.5108 20.0614 34.1043 20.4679 34.1043 20.9696V22.0674H33.0064C32.5047 22.0674 32.0982 22.4739 32.0982 22.9756V25.9848C32.0982 26.0372 32.0555 26.0797 32.0033 26.0797H23.0443C22.5426 26.0797 22.1361 26.4862 22.1361 26.9879C22.1361 27.4896 22.5426 27.8961 23.0443 27.8961H32.0032C33.0571 27.8961 33.9144 27.0387 33.9144 25.9848V23.8838H36.1104V25.9848C36.1104 27.0387 36.9677 27.8961 38.0216 27.8961H40.1226V30.0918H38.0216C36.9677 30.0918 36.1104 30.9491 36.1104 32.003V34.104H33.9144V32.003C33.9144 30.9491 33.0571 30.0918 32.0032 30.0918H13.9481C12.8943 30.0918 12.0369 30.9491 12.0369 32.003V48.0519C12.0369 49.1058 12.8943 49.9632 13.9481 49.9632H32.0032C33.0571 49.9632 33.9144 49.1058 33.9144 48.0519V43.9449H36.1104V48.0521C36.1104 49.1059 36.9677 49.9633 38.0216 49.9633H56.0767C57.1305 49.9633 57.988 49.1059 57.988 48.0521V32.003C57.988 30.9491 57.1305 30.0918 56.0767 30.0918H49.9635V27.896H56.0767C57.1305 27.896 57.988 27.0385 57.988 25.9847V23.885H60.1838V52.0643C60.1838 52.1166 60.1412 52.1591 60.089 52.1591H9.93594C9.88363 52.1591 9.84112 52.1165 9.84112 52.0643V1.91122C9.84112 1.85891 9.88375 1.81641 9.93594 1.81641H49.245C49.7467 1.81641 50.1532 1.40989 50.1532 0.908203C50.1532 0.406512 49.7467 0 49.245 0H9.93594C9.72741 0 9.52713 0.0347539 9.33907 0.0967539C9.21676 0.0353594 9.07908 0 8.93292 0H6.92676C6.42507 0 6.01855 0.406512 6.01855 0.908203C6.01855 1.40989 6.42507 1.81641 6.92676 1.81641H8.02944C8.02786 1.84801 8.02459 1.87925 8.02459 1.91122V52.0643C8.02459 52.0962 8.02786 52.1275 8.02944 52.1591H6.92676C6.42507 52.1591 6.01855 52.5656 6.01855 53.0673C6.01855 53.569 6.42507 53.9755 6.92676 53.9755H8.02459V55.0733C8.02459 55.575 8.43111 55.9815 8.9328 55.9815C9.43449 55.9815 9.841 55.575 9.841 55.0733V53.9706C9.87261 53.9722 9.90385 53.9755 9.93582 53.9755H60.0889C60.1208 53.9755 60.1521 53.9722 60.1837 53.9706V55.0733C60.1837 55.575 60.5902 55.9815 61.0919 55.9815C61.5936 55.9815 62.0001 55.575 62.0001 55.0733V53.0673C62.0001 52.921 61.9647 52.7834 61.9033 52.661C61.9653 52.4729 62.0001 52.2727 62.0001 52.0641V22.9768C62.0002 22.4752 61.5937 22.0686 61.092 22.0686Z"/>
</mask>
<path d="M61.092 22.0686H59.9942V20.9694C59.9942 20.4678 59.5876 20.0612 59.0859 20.0612C58.5843 20.0612 58.1777 20.4678 58.1777 20.9694V22.0686H57.0799C56.5782 22.0686 56.1717 22.4751 56.1717 22.9768V25.9847C56.1717 26.0371 56.1291 26.0796 56.0768 26.0796H49.0553C48.5536 26.0796 48.1471 26.4861 48.1471 26.9878V28.0856H47.0492C46.5475 28.0856 46.141 28.4921 46.141 28.9938C46.141 29.4955 46.5475 29.902 47.0492 29.902H48.1471V31C48.1471 31.5017 48.5536 31.9082 49.0553 31.9082H56.0767C56.1291 31.9082 56.1716 31.9508 56.1716 32.003V48.0519C56.1716 48.1043 56.129 48.1468 56.0767 48.1468H38.0216C37.9693 48.1468 37.9268 48.1041 37.9268 48.0519V43.0367C37.9268 42.535 37.5202 42.1285 37.0186 42.1285H35.9207V41.0307C35.9207 40.529 35.5142 40.1225 35.0125 40.1225C34.5108 40.1225 34.1043 40.529 34.1043 41.0307V42.1285H33.0064C32.5047 42.1285 32.0982 42.535 32.0982 43.0367V48.0521C32.0982 48.1044 32.0555 48.1469 32.0033 48.1469H13.9483C13.8959 48.1469 13.8534 48.1042 13.8534 48.0521V32.003C13.8534 31.9507 13.8961 31.9082 13.9483 31.9082H32.0033C32.0556 31.9082 32.0982 31.9508 32.0982 32.003V35.0122C32.0982 35.5139 32.5047 35.9204 33.0064 35.9204H34.1043V37.0184C34.1043 37.5201 34.5108 37.9266 35.0125 37.9266C35.5142 37.9266 35.9207 37.5201 35.9207 37.0184V35.9204H37.0186C37.5202 35.9204 37.9268 35.5139 37.9268 35.0122V32.003C37.9268 31.9507 37.9694 31.9082 38.0216 31.9082H41.0308C41.5324 31.9082 41.939 31.5017 41.939 31V29.9022H43.0369C43.5386 29.9022 43.9451 29.4957 43.9451 28.994C43.9451 28.4923 43.5386 28.0858 43.0369 28.0858H41.939V26.9879C41.939 26.4862 41.5324 26.0797 41.0308 26.0797H38.0216C37.9693 26.0797 37.9268 26.0371 37.9268 25.9848V22.9756C37.9268 22.4739 37.5202 22.0674 37.0186 22.0674H35.9207V20.9696C35.9207 20.4679 35.5142 20.0614 35.0125 20.0614C34.5108 20.0614 34.1043 20.4679 34.1043 20.9696V22.0674H33.0064C32.5047 22.0674 32.0982 22.4739 32.0982 22.9756V25.9848C32.0982 26.0372 32.0555 26.0797 32.0033 26.0797H23.0443C22.5426 26.0797 22.1361 26.4862 22.1361 26.9879C22.1361 27.4896 22.5426 27.8961 23.0443 27.8961H32.0032C33.0571 27.8961 33.9144 27.0387 33.9144 25.9848V23.8838H36.1104V25.9848C36.1104 27.0387 36.9677 27.8961 38.0216 27.8961H40.1226V30.0918H38.0216C36.9677 30.0918 36.1104 30.9491 36.1104 32.003V34.104H33.9144V32.003C33.9144 30.9491 33.0571 30.0918 32.0032 30.0918H13.9481C12.8943 30.0918 12.0369 30.9491 12.0369 32.003V48.0519C12.0369 49.1058 12.8943 49.9632 13.9481 49.9632H32.0032C33.0571 49.9632 33.9144 49.1058 33.9144 48.0519V43.9449H36.1104V48.0521C36.1104 49.1059 36.9677 49.9633 38.0216 49.9633H56.0767C57.1305 49.9633 57.988 49.1059 57.988 48.0521V32.003C57.988 30.9491 57.1305 30.0918 56.0767 30.0918H49.9635V27.896H56.0767C57.1305 27.896 57.988 27.0385 57.988 25.9847V23.885H60.1838V52.0643C60.1838 52.1166 60.1412 52.1591 60.089 52.1591H9.93594C9.88363 52.1591 9.84112 52.1165 9.84112 52.0643V1.91122C9.84112 1.85891 9.88375 1.81641 9.93594 1.81641H49.245C49.7467 1.81641 50.1532 1.40989 50.1532 0.908203C50.1532 0.406512 49.7467 0 49.245 0H9.93594C9.72741 0 9.52713 0.0347539 9.33907 0.0967539C9.21676 0.0353594 9.07908 0 8.93292 0H6.92676C6.42507 0 6.01855 0.406512 6.01855 0.908203C6.01855 1.40989 6.42507 1.81641 6.92676 1.81641H8.02944C8.02786 1.84801 8.02459 1.87925 8.02459 1.91122V52.0643C8.02459 52.0962 8.02786 52.1275 8.02944 52.1591H6.92676C6.42507 52.1591 6.01855 52.5656 6.01855 53.0673C6.01855 53.569 6.42507 53.9755 6.92676 53.9755H8.02459V55.0733C8.02459 55.575 8.43111 55.9815 8.9328 55.9815C9.43449 55.9815 9.841 55.575 9.841 55.0733V53.9706C9.87261 53.9722 9.90385 53.9755 9.93582 53.9755H60.0889C60.1208 53.9755 60.1521 53.9722 60.1837 53.9706V55.0733C60.1837 55.575 60.5902 55.9815 61.0919 55.9815C61.5936 55.9815 62.0001 55.575 62.0001 55.0733V53.0673C62.0001 52.921 61.9647 52.7834 61.9033 52.661C61.9653 52.4729 62.0001 52.2727 62.0001 52.0641V22.9768C62.0002 22.4752 61.5937 22.0686 61.092 22.0686Z" fill="#CB8734" stroke="white" stroke-width="0.4" mask="url(#path-1-inside-1_3995_2388)"/>
<path d="M52.8774 0.0996094H60.0884C61.087 0.0996094 61.9 0.912529 61.8999 1.91113V14.9531C61.8998 15.3994 61.5377 15.7607 61.0913 15.7607H59.894V16.957C59.894 17.4035 59.5319 17.7656 59.0854 17.7656C58.639 17.7656 58.2769 17.4035 58.2769 16.957V15.7607H57.0796C56.8651 15.7607 56.6598 15.6759 56.5083 15.5244C56.3567 15.3727 56.271 15.1674 56.271 14.9531V5.92383C56.271 5.81647 56.1843 5.72868 56.0767 5.72852H38.021C37.9137 5.72867 37.8267 5.81626 37.8267 5.92383V14.9512C37.8265 15.3975 37.4645 15.7588 37.0181 15.7588H35.8208V16.957C35.8208 17.4035 35.4587 17.7656 35.0122 17.7656C34.5658 17.7656 34.2036 17.4035 34.2036 16.957V15.7588H33.0063C32.56 15.7588 32.1979 15.3975 32.1978 14.9512V5.92383C32.1978 5.81658 32.111 5.72872 32.0034 5.72852H13.9478C13.8404 5.72863 13.7534 5.81624 13.7534 5.92383V25.9844C13.7534 26.0917 13.8401 26.1796 13.9478 26.1797H19.4116C19.8579 26.1799 20.2192 26.5419 20.2192 26.9883C20.219 27.4344 19.8577 27.7957 19.4116 27.7959H13.9478C12.9492 27.7958 12.1362 26.983 12.1362 25.9844V5.92383C12.1362 4.9252 12.9492 4.11235 13.9478 4.1123H32.0024C33.0011 4.1123 33.814 4.92517 33.814 5.92383V14.1426H36.2104V5.92383C36.2104 4.92526 37.0225 4.11246 38.021 4.1123H56.0767C57.0752 4.11247 57.8882 4.92528 57.8882 5.92383V14.1445H59.0503C59.0586 14.1442 59.0676 14.1439 59.0728 14.1436C59.0787 14.1432 59.0824 14.1426 59.0854 14.1426C59.0885 14.1426 59.0923 14.1432 59.0981 14.1436C59.1033 14.1439 59.1122 14.1442 59.1206 14.1445H60.2837V1.91113C60.2836 1.80384 60.196 1.7168 60.0884 1.7168H52.8774C52.431 1.71674 52.0698 1.35463 52.0698 0.908203C52.0698 0.461776 52.431 0.099667 52.8774 0.0996094Z" fill="#CB8734" stroke="white" stroke-width="0.2"/>
<path d="M57.0796 56.2715C57.5259 56.2716 57.8881 56.6338 57.8882 57.0801V61.0928C57.888 61.539 57.5259 61.9003 57.0796 61.9004C56.6332 61.9004 56.2712 61.5391 56.271 61.0928V59.8945H13.7534V61.0928C13.7532 61.5391 13.3912 61.9004 12.9448 61.9004C12.4985 61.9004 12.1364 61.5391 12.1362 61.0928V57.0801C12.1363 56.6337 12.4984 56.2725 12.9448 56.2725C13.3912 56.2725 13.7534 56.6337 13.7534 57.0801V58.2783H56.271V57.0801C56.271 56.6336 56.6331 56.2715 57.0796 56.2715Z" fill="#CB8734" stroke="white" stroke-width="0.2"/>
<path d="M0.908203 4.11133H4.91992C5.36639 4.11133 5.72852 4.47346 5.72852 4.91992C5.72852 5.36638 5.36639 5.72852 4.91992 5.72852H3.72266V48.2461H4.9209C5.36719 48.2463 5.72852 48.6083 5.72852 49.0547C5.72847 49.501 5.36716 49.8631 4.9209 49.8633H0.908203C0.46177 49.8633 0.0996567 49.5011 0.0996094 49.0547C0.0996094 48.6082 0.46174 48.2461 0.908203 48.2461H2.10645V5.72852H0.908203C0.46174 5.72852 0.0996094 5.36638 0.0996094 4.91992C0.0996094 4.47346 0.46174 4.11133 0.908203 4.11133Z" fill="#CB8734" stroke="white" stroke-width="0.2"/>
</svg>
