<svg width="62" height="62" viewBox="0 0 62 62" fill="none" xmlns="http://www.w3.org/2000/svg">
<path d="M45.3271 39.8516L45.3486 39.8809L45.3828 39.8691L49.1582 38.6123L47.8232 47.9492H36.1768L34.8418 38.6123L38.6172 39.8691L38.6514 39.8809L38.6729 39.8516L42 35.415L45.3271 39.8516ZM41.96 38.6357L39.3486 42.1172L37.2354 41.4111L37.1582 41.3857L37.1699 41.4658L37.8174 46.0059L37.8242 46.0488H46.1768L46.1826 46.0059L46.8311 41.4658L46.8418 41.3857L46.7656 41.4111L44.6504 42.1172L42.04 38.6357L42 38.583L41.96 38.6357Z" fill="#CB8734" stroke="white" stroke-width="0.1"/>
<path d="M42 30.0498C48.5894 30.0498 53.9502 35.4106 53.9502 42C53.9502 48.5894 48.5894 53.9502 42 53.9502C35.4106 53.9502 30.0498 48.5894 30.0498 42C30.0498 35.4106 35.4106 30.0498 42 30.0498ZM42 31.9502C36.4584 31.9502 31.9502 36.4584 31.9502 42C31.9502 47.5416 36.4584 52.0498 42 52.0498C47.5416 52.0498 52.0498 47.5416 52.0498 42C52.0498 36.4584 47.5416 31.9502 42 31.9502Z" fill="#CB8734" stroke="white" stroke-width="0.1"/>
<path d="M38.8574 26.9541C40.7321 25.7694 43.2649 25.7694 45.1416 26.9541C46.7674 27.9801 48.5426 28.7154 50.415 29.1387C51.4977 29.3826 52.487 29.9303 53.2773 30.7207C54.0677 31.5111 54.6155 32.5013 54.8594 33.584C55.2826 35.4535 56.0179 37.2287 57.0439 38.8574C57.6368 39.7943 57.9502 40.8814 57.9502 41.999C57.9502 43.1166 57.6368 44.2037 57.0449 45.1406C56.018 46.7684 55.2836 48.5436 54.8604 50.4141C54.6164 51.4967 54.0687 52.486 53.2783 53.2764C52.49 54.0657 51.5007 54.6125 50.417 54.8584C48.5435 55.2827 46.7684 56.018 45.1416 57.043C44.2047 57.6359 43.1176 57.9492 42 57.9492C40.8824 57.9492 39.7953 57.6359 38.8584 57.0439C37.2326 56.0179 35.4575 55.2836 33.584 54.8594C32.5002 54.6135 31.511 54.0666 30.7227 53.2773C29.9323 52.487 29.3845 51.4977 29.1406 50.4141C28.7174 48.5446 27.982 46.7694 26.9561 45.1406C26.3632 44.2037 26.0498 43.1166 26.0498 41.999C26.0498 40.8814 26.3632 39.7944 26.9541 38.8564C27.9811 37.2287 28.7154 35.4535 29.1387 33.583C29.3826 32.5013 29.9304 31.5111 30.7207 30.7207C31.4124 30.029 32.2563 29.5231 33.1826 29.2441L33.584 29.1387C35.4555 28.7154 37.2307 27.9791 38.8574 26.9541ZM42 27.9492C41.2427 27.9492 40.5061 28.1604 39.873 28.5605C38.0619 29.7025 36.0883 30.5205 34.0039 30.9922C33.2706 31.1573 32.602 31.528 32.0654 32.0635C31.5288 32.5991 31.1592 33.2687 30.9941 34.001C30.5224 36.0834 29.7054 38.058 28.5625 39.8701C28.1614 40.5052 27.9502 41.2417 27.9502 41.999C27.9502 42.7563 28.1615 43.4929 28.5615 44.127C29.7044 45.9411 30.5214 47.9147 30.9932 49.9961C31.1583 50.7294 31.5289 51.399 32.0645 51.9346C32.5323 52.4033 33.1038 52.7443 33.7305 52.9336L34.002 53.0059C36.0874 53.4786 38.0629 54.2956 39.8711 55.4375C41.1414 56.2408 42.8586 56.2408 44.127 55.4375C45.9371 54.2956 47.9116 53.4786 49.9971 53.0059C50.7303 52.8398 51.4 52.4692 51.9346 51.9346C52.4712 51.399 52.8407 50.7293 53.0059 49.9971C53.4776 47.9147 54.2946 45.9401 55.4375 44.1279C55.8386 43.4929 56.0498 42.7563 56.0498 41.999C56.0498 41.2417 55.8386 40.5052 55.4385 39.8721C54.2955 38.0579 53.4786 36.0843 53.0068 34.0029C52.8417 33.2696 52.4711 32.601 51.9355 32.0645C51.3999 31.5278 50.7303 31.1583 49.998 30.9932C47.9126 30.5214 45.9381 29.7034 44.1289 28.5615C43.4938 28.1604 42.7573 27.9492 42 27.9492Z" fill="#CB8734" stroke="white" stroke-width="0.1"/>
<path d="M1.9502 60.0498H20.0518V60L20.0508 58V57.9502H1.9502V60.0498ZM15.9502 17.8564L15.9619 17.8701L20.127 22.8682L17.916 27.291L17.9131 27.2979L17.9121 27.3047L15.9502 39.0732V42.4131L15.9785 42.4268L16.0615 42.4668V42.4678C17.2266 43.0513 17.9502 44.2224 17.9502 45.5244C17.9501 45.9627 17.8675 46.3891 17.7051 46.7939L17.7041 46.7949L16.4307 49.9814L16.4033 50.0498H18C20.1784 50.0498 21.9502 51.8216 21.9502 54V60.0498H60.0498V13.9502H53.9502V17.9502H22.0498V6.0498H48.0498V1.9502H15.9502V17.8564ZM4 51.9502C2.86939 51.9502 1.9502 52.8694 1.9502 54V56.0498H20.0508V56L20.0498 54L20.0391 53.791C19.9341 52.7583 19.0601 51.9502 18 51.9502H4ZM7.21582 43.9551L6.79102 44.167C6.27205 44.4254 5.9502 44.9464 5.9502 45.5244C5.95025 45.7195 5.98629 45.9091 6.05762 46.0879L7.63086 50.0186L7.64355 50.0498H14.3564L14.3691 50.0186L15.9414 46.0889C16.0137 45.9081 16.0498 45.7186 16.0498 45.5244C16.0498 44.9474 15.7279 44.4264 15.2109 44.168L14.7852 43.9551L14.7744 43.9502H7.22656L7.21582 43.9551ZM7.9502 42.0498H14.0498V39.9502H7.9502V42.0498ZM6.13086 28.0078L7.79785 38.0078L7.80469 38.0498H14.1953L14.2021 38.0078L15.8682 28.0078L15.8779 27.9502H6.12109L6.13086 28.0078ZM5.58691 26.0498H10.0498V23.9502H4.53711L5.58691 26.0498ZM11.9502 26.0498H16.4131L17.4629 23.9502H11.9502V26.0498ZM8.43066 17.9678L5.09668 21.9678L5.02832 22.0498H10.0498V17.9502H8.44531L8.43066 17.9678ZM11.9502 22.0498H16.9717L16.9033 21.9678L13.5693 17.9678L13.5547 17.9502H11.9502V22.0498ZM23.9502 16.0498H52.0498V13.9502H48.0498V7.9502H23.9502V16.0498ZM49.9502 12.0498H58.707L58.6211 11.9648L50.0352 3.37891L49.9502 3.29297V12.0498ZM6.0498 39.0742L4.08691 27.3047L4.08594 27.2979L4.08301 27.291L1.87109 22.8682L7.55469 16.0498H14.0498V2C14.0498 0.924614 14.9246 0.0498047 16 0.0498047H49.3936L61.9502 12.6064V60C61.9502 61.0754 61.0754 61.9502 60 61.9502H2C0.924614 61.9502 0.0498047 61.0754 0.0498047 60V54C0.0498047 51.8216 1.82161 50.0498 4 50.0498H5.59668L4.29395 46.793C4.1325 46.3892 4.04986 45.9617 4.0498 45.5244C4.0498 44.3039 4.68549 43.1991 5.72559 42.585L5.93945 42.4688L6.02246 42.4268L6.0498 42.4131V39.082H6.05078L6.0498 39.0742Z" fill="#CB8734" stroke="white" stroke-width="0.1"/>
</svg>
