<svg width="56" height="62" viewBox="0 0 56 62" fill="none" xmlns="http://www.w3.org/2000/svg">
<mask id="path-1-inside-1_3995_2380" fill="white">
<path d="M54.4415 29.7964V20.4724C54.4415 19.9707 54.0349 19.5642 53.5332 19.5642C53.0316 19.5642 52.625 19.9707 52.625 20.4724V28.2264C51.4239 27.6223 49.9949 27.5261 48.6904 28.0095V23.2508C48.6904 18.881 45.1353 15.326 40.7655 15.326H14.5833C10.2135 15.326 6.65843 18.881 6.65843 23.2508V28.0095C5.32665 27.5161 3.89629 27.6367 2.72374 28.2264V5.78246H52.625V16.2342C52.625 16.7359 53.0316 17.1424 53.5332 17.1424C54.0349 17.1424 54.4415 16.7359 54.4415 16.2342C54.4415 13.4169 54.4415 5.50213 54.4415 2.48702C54.4415 1.11563 53.3258 0 51.9546 0H3.39424C2.02297 0 0.907339 1.11563 0.907339 2.4869V29.7962C-0.301659 31.5042 -0.303233 33.7822 0.907339 35.4924V44.9379C0.907339 46.3092 2.02297 47.4248 3.39424 47.4248H4.64307C4.70992 47.5066 4.78318 47.5825 4.86007 47.6549V49.8871C3.75679 50.0335 2.90187 50.9782 2.90187 52.1208V53.6366C2.90187 54.8001 3.78779 55.7607 4.9205 55.8795V59.4403C4.9205 60.8517 6.06871 62 7.48017 62H14.7878C16.1991 62 17.3475 60.8518 17.3475 59.4403V55.8922H21.1201C21.5148 56.2306 22.0262 56.4365 22.5855 56.4365H25.5553C26.057 56.4365 26.4635 56.03 26.4635 55.5283C26.4635 55.0266 26.057 54.6201 25.5553 54.6201H22.5855C22.3368 54.6201 22.1463 54.4036 22.1463 54.1809V51.5765C22.1463 51.3445 22.345 51.1373 22.5855 51.1373H32.7031C32.9676 51.1373 33.1131 51.2784 33.1829 51.4552C33.1877 51.4713 33.2029 51.5082 33.2029 51.5765V54.1809C33.2029 54.4028 33.0129 54.6201 32.7635 54.6201H29.7937C29.292 54.6201 28.8855 55.0266 28.8855 55.5283C28.8855 56.03 29.292 56.4365 29.7937 56.4365H32.7635C33.323 56.4365 33.8344 56.2306 34.229 55.8922H38.0017V59.4403C38.0017 60.8517 39.1498 62 40.5612 62H47.869C49.2803 62 50.4285 60.8518 50.4285 59.4403V55.8795C51.5612 55.7607 52.4473 54.8003 52.4473 53.6366V52.1208C52.4473 50.9782 51.5924 50.0335 50.4891 49.8871V47.6549C50.5659 47.5826 50.6391 47.5067 50.706 47.4249H51.9548C53.3261 47.4249 54.4417 46.3093 54.4417 44.938V35.4924C55.0119 34.6866 55.3484 33.7044 55.3484 32.6444C55.3482 31.5843 55.0117 30.602 54.4415 29.7964ZM50.1361 35.7575C49.8389 35.0391 49.3463 34.3702 48.6904 33.862V30.0352C50.7923 28.653 53.5318 30.1907 53.5318 32.6443C53.5318 34.481 51.9542 35.9163 50.1361 35.7575ZM34.9584 45.7371H20.3903C19.0585 45.7371 17.9751 46.8206 17.9751 48.1524V49.8652H6.67648V48.3141C16.8408 48.314 12.3137 48.314 13.7973 48.314C15.129 48.314 16.2125 47.2306 16.2125 45.8989V44.7267C16.2125 43.395 15.129 42.3115 13.7973 42.3115C12.466 42.3115 8.18433 42.3115 6.67648 42.3115V37.5358C6.67648 35.9484 7.97206 34.7024 9.50994 34.7024H45.8388C47.3949 34.7024 48.6723 35.9689 48.6723 37.5358V42.3115C47.2773 42.3115 43.2407 42.3115 41.5515 42.3115C40.2197 42.3115 39.1363 43.395 39.1363 44.7267V45.8989C39.1363 47.2306 40.2197 48.314 41.5515 48.314C42.4517 48.314 46.7485 48.3141 48.6723 48.3141V49.8652H37.3737V48.1524C37.3737 46.8206 36.2901 45.7371 34.9584 45.7371ZM1.81687 32.6444C1.81687 30.1879 4.55661 28.6524 6.65843 30.0353V33.8621C5.99944 34.3726 5.50913 35.0419 5.2127 35.7575C3.38188 35.9165 1.81687 34.4678 1.81687 32.6444ZM9.83459 44.1279H13.7971C14.1218 44.1279 14.3959 44.4022 14.3959 44.7267V45.8989C14.3959 46.2235 14.1217 46.4976 13.7971 46.4976H9.83459C9.88376 46.3058 9.91282 46.1059 9.91282 45.8989V44.7267C9.91282 44.5198 9.88388 44.3199 9.83459 44.1279ZM8.09642 44.7267V45.8989C8.09642 46.2231 7.82275 46.497 7.4987 46.4976H6.51312C6.18895 46.4976 5.91443 46.2204 5.91443 45.8989V44.7267C5.91443 44.4067 6.18786 44.1279 6.51312 44.1279H7.49761C7.82214 44.1279 8.09642 44.4022 8.09642 44.7267ZM43.7342 32.8859H42.383C42.2582 28.6446 38.7716 25.2321 34.5006 25.2321C30.2298 25.2321 26.7432 28.6446 26.6185 32.8859H11.6145V23.2508C11.6145 21.6137 12.9463 20.282 14.5834 20.282H40.7654C42.4026 20.282 43.7344 21.6137 43.7344 23.2508V32.8859H43.7342ZM31.5665 32.8859C31.6865 31.3717 32.9561 30.176 34.5005 30.176C36.045 30.176 37.3147 31.3717 37.4346 32.8859H31.5665ZM34.5006 28.3596C31.9541 28.3596 29.8682 30.3692 29.7456 32.8859H28.4335C28.5571 29.6461 31.2312 27.0485 34.5006 27.0485C37.7701 27.0485 40.4444 29.6461 40.5679 32.8859H39.2556C39.1332 30.3692 37.0471 28.3596 34.5006 28.3596ZM45.5141 46.4976H41.5515C41.2269 46.4976 40.9527 46.2233 40.9527 45.8989V44.7267C40.9527 44.4021 41.227 44.1279 41.5515 44.1279H45.5141C45.4649 44.3199 45.4358 44.5198 45.4358 44.7267V45.8989C45.436 46.106 45.4649 46.3058 45.5141 46.4976ZM47.2524 45.8989V44.7267C47.2524 44.4021 47.5266 44.1279 47.8512 44.1279H48.8355C49.1107 44.1279 49.3692 44.3329 49.4233 44.6203C49.4299 44.6551 49.4345 44.6904 49.4345 44.7267V45.8989C49.4345 46.2215 49.1586 46.4976 48.8357 46.4976H47.8502C47.5259 46.497 47.2524 46.2232 47.2524 45.8989ZM8.47484 23.2508C8.47484 19.8826 11.2151 17.1424 14.5833 17.1424H40.7654C44.1336 17.1424 46.8738 19.8826 46.8738 23.2508V33.0021C46.7865 32.9821 46.6031 32.9464 46.4205 32.9235C46.0428 32.8762 45.847 32.8875 45.5505 32.8859V23.2508C45.5505 20.6123 43.4038 18.4656 40.7651 18.4656H14.5833C11.9448 18.4656 9.79802 20.6123 9.79802 23.2508V32.8859C9.41476 32.8929 9.04555 32.8717 8.47471 33.0021C8.47484 31.0967 8.47484 25.0787 8.47484 23.2508ZM2.72374 2.4869C2.72374 2.1172 3.02454 1.8164 3.39424 1.8164H51.9546C52.3243 1.8164 52.625 2.1172 52.625 2.4869V3.96605H2.72374V2.4869ZM2.72374 44.938V37.0625C3.38503 37.395 4.1363 37.5745 4.86007 37.5863V42.9703C4.85862 42.9716 4.85729 42.9733 4.85583 42.9746C4.3843 43.4209 4.09803 44.0456 4.09803 44.7267V45.6084H3.39424C3.02454 45.6085 2.72374 45.3076 2.72374 44.938ZM4.71827 53.6366V52.1208C4.71827 51.8828 4.91941 51.6816 5.15748 51.6816C7.46165 51.6816 18.8316 51.6817 20.3298 51.6817V54.0758C16.525 54.0758 8.35144 54.0758 5.15748 54.0758C4.91941 54.0758 4.71827 53.8745 4.71827 53.6366ZM15.531 59.4402C15.531 59.8501 15.1976 60.1835 14.7877 60.1835H7.48005C7.07015 60.1835 6.73678 59.8501 6.73678 59.4402V55.892H15.5308V59.4402H15.531ZM22.5248 49.3209C21.9867 49.3209 21.4661 49.5188 21.0607 49.8652H19.7915V48.1524C19.7915 47.8277 20.0658 47.5535 20.3903 47.5535H34.9584C35.283 47.5535 35.5572 47.8278 35.5572 48.1524V49.8652H34.2288C33.5097 49.2486 32.7391 49.3274 32.7029 49.3209C31.4434 49.3209 23.8059 49.3209 22.5248 49.3209ZM48.6118 59.4402C48.6118 59.8501 48.2784 60.1835 47.8686 60.1835H40.5609C40.1511 60.1835 39.8177 59.8501 39.8177 59.4402V55.892H48.6116V59.4402H48.6118ZM50.6305 52.1208V53.6366C50.6305 53.8746 50.4294 54.0758 50.1913 54.0758C47.1184 54.0758 38.2687 54.0758 35.019 54.0758V51.6816H50.1913C50.4294 51.6816 50.6305 51.8828 50.6305 52.1208ZM52.625 44.938C52.625 45.3077 52.3243 45.6085 51.9546 45.6085H51.2508V44.7269C51.2508 44.037 50.9584 43.4153 50.4931 42.9748C50.4916 42.9733 50.4903 42.9716 50.4887 42.9703V37.5863C51.206 37.5746 51.9577 37.3979 52.625 37.0625V44.938Z"/>
</mask>
<path d="M54.4415 29.7964V20.4724C54.4415 19.9707 54.0349 19.5642 53.5332 19.5642C53.0316 19.5642 52.625 19.9707 52.625 20.4724V28.2264C51.4239 27.6223 49.9949 27.5261 48.6904 28.0095V23.2508C48.6904 18.881 45.1353 15.326 40.7655 15.326H14.5833C10.2135 15.326 6.65843 18.881 6.65843 23.2508V28.0095C5.32665 27.5161 3.89629 27.6367 2.72374 28.2264V5.78246H52.625V16.2342C52.625 16.7359 53.0316 17.1424 53.5332 17.1424C54.0349 17.1424 54.4415 16.7359 54.4415 16.2342C54.4415 13.4169 54.4415 5.50213 54.4415 2.48702C54.4415 1.11563 53.3258 0 51.9546 0H3.39424C2.02297 0 0.907339 1.11563 0.907339 2.4869V29.7962C-0.301659 31.5042 -0.303233 33.7822 0.907339 35.4924V44.9379C0.907339 46.3092 2.02297 47.4248 3.39424 47.4248H4.64307C4.70992 47.5066 4.78318 47.5825 4.86007 47.6549V49.8871C3.75679 50.0335 2.90187 50.9782 2.90187 52.1208V53.6366C2.90187 54.8001 3.78779 55.7607 4.9205 55.8795V59.4403C4.9205 60.8517 6.06871 62 7.48017 62H14.7878C16.1991 62 17.3475 60.8518 17.3475 59.4403V55.8922H21.1201C21.5148 56.2306 22.0262 56.4365 22.5855 56.4365H25.5553C26.057 56.4365 26.4635 56.03 26.4635 55.5283C26.4635 55.0266 26.057 54.6201 25.5553 54.6201H22.5855C22.3368 54.6201 22.1463 54.4036 22.1463 54.1809V51.5765C22.1463 51.3445 22.345 51.1373 22.5855 51.1373H32.7031C32.9676 51.1373 33.1131 51.2784 33.1829 51.4552C33.1877 51.4713 33.2029 51.5082 33.2029 51.5765V54.1809C33.2029 54.4028 33.0129 54.6201 32.7635 54.6201H29.7937C29.292 54.6201 28.8855 55.0266 28.8855 55.5283C28.8855 56.03 29.292 56.4365 29.7937 56.4365H32.7635C33.323 56.4365 33.8344 56.2306 34.229 55.8922H38.0017V59.4403C38.0017 60.8517 39.1498 62 40.5612 62H47.869C49.2803 62 50.4285 60.8518 50.4285 59.4403V55.8795C51.5612 55.7607 52.4473 54.8003 52.4473 53.6366V52.1208C52.4473 50.9782 51.5924 50.0335 50.4891 49.8871V47.6549C50.5659 47.5826 50.6391 47.5067 50.706 47.4249H51.9548C53.3261 47.4249 54.4417 46.3093 54.4417 44.938V35.4924C55.0119 34.6866 55.3484 33.7044 55.3484 32.6444C55.3482 31.5843 55.0117 30.602 54.4415 29.7964ZM50.1361 35.7575C49.8389 35.0391 49.3463 34.3702 48.6904 33.862V30.0352C50.7923 28.653 53.5318 30.1907 53.5318 32.6443C53.5318 34.481 51.9542 35.9163 50.1361 35.7575ZM34.9584 45.7371H20.3903C19.0585 45.7371 17.9751 46.8206 17.9751 48.1524V49.8652H6.67648V48.3141C16.8408 48.314 12.3137 48.314 13.7973 48.314C15.129 48.314 16.2125 47.2306 16.2125 45.8989V44.7267C16.2125 43.395 15.129 42.3115 13.7973 42.3115C12.466 42.3115 8.18433 42.3115 6.67648 42.3115V37.5358C6.67648 35.9484 7.97206 34.7024 9.50994 34.7024H45.8388C47.3949 34.7024 48.6723 35.9689 48.6723 37.5358V42.3115C47.2773 42.3115 43.2407 42.3115 41.5515 42.3115C40.2197 42.3115 39.1363 43.395 39.1363 44.7267V45.8989C39.1363 47.2306 40.2197 48.314 41.5515 48.314C42.4517 48.314 46.7485 48.3141 48.6723 48.3141V49.8652H37.3737V48.1524C37.3737 46.8206 36.2901 45.7371 34.9584 45.7371ZM1.81687 32.6444C1.81687 30.1879 4.55661 28.6524 6.65843 30.0353V33.8621C5.99944 34.3726 5.50913 35.0419 5.2127 35.7575C3.38188 35.9165 1.81687 34.4678 1.81687 32.6444ZM9.83459 44.1279H13.7971C14.1218 44.1279 14.3959 44.4022 14.3959 44.7267V45.8989C14.3959 46.2235 14.1217 46.4976 13.7971 46.4976H9.83459C9.88376 46.3058 9.91282 46.1059 9.91282 45.8989V44.7267C9.91282 44.5198 9.88388 44.3199 9.83459 44.1279ZM8.09642 44.7267V45.8989C8.09642 46.2231 7.82275 46.497 7.4987 46.4976H6.51312C6.18895 46.4976 5.91443 46.2204 5.91443 45.8989V44.7267C5.91443 44.4067 6.18786 44.1279 6.51312 44.1279H7.49761C7.82214 44.1279 8.09642 44.4022 8.09642 44.7267ZM43.7342 32.8859H42.383C42.2582 28.6446 38.7716 25.2321 34.5006 25.2321C30.2298 25.2321 26.7432 28.6446 26.6185 32.8859H11.6145V23.2508C11.6145 21.6137 12.9463 20.282 14.5834 20.282H40.7654C42.4026 20.282 43.7344 21.6137 43.7344 23.2508V32.8859H43.7342ZM31.5665 32.8859C31.6865 31.3717 32.9561 30.176 34.5005 30.176C36.045 30.176 37.3147 31.3717 37.4346 32.8859H31.5665ZM34.5006 28.3596C31.9541 28.3596 29.8682 30.3692 29.7456 32.8859H28.4335C28.5571 29.6461 31.2312 27.0485 34.5006 27.0485C37.7701 27.0485 40.4444 29.6461 40.5679 32.8859H39.2556C39.1332 30.3692 37.0471 28.3596 34.5006 28.3596ZM45.5141 46.4976H41.5515C41.2269 46.4976 40.9527 46.2233 40.9527 45.8989V44.7267C40.9527 44.4021 41.227 44.1279 41.5515 44.1279H45.5141C45.4649 44.3199 45.4358 44.5198 45.4358 44.7267V45.8989C45.436 46.106 45.4649 46.3058 45.5141 46.4976ZM47.2524 45.8989V44.7267C47.2524 44.4021 47.5266 44.1279 47.8512 44.1279H48.8355C49.1107 44.1279 49.3692 44.3329 49.4233 44.6203C49.4299 44.6551 49.4345 44.6904 49.4345 44.7267V45.8989C49.4345 46.2215 49.1586 46.4976 48.8357 46.4976H47.8502C47.5259 46.497 47.2524 46.2232 47.2524 45.8989ZM8.47484 23.2508C8.47484 19.8826 11.2151 17.1424 14.5833 17.1424H40.7654C44.1336 17.1424 46.8738 19.8826 46.8738 23.2508V33.0021C46.7865 32.9821 46.6031 32.9464 46.4205 32.9235C46.0428 32.8762 45.847 32.8875 45.5505 32.8859V23.2508C45.5505 20.6123 43.4038 18.4656 40.7651 18.4656H14.5833C11.9448 18.4656 9.79802 20.6123 9.79802 23.2508V32.8859C9.41476 32.8929 9.04555 32.8717 8.47471 33.0021C8.47484 31.0967 8.47484 25.0787 8.47484 23.2508ZM2.72374 2.4869C2.72374 2.1172 3.02454 1.8164 3.39424 1.8164H51.9546C52.3243 1.8164 52.625 2.1172 52.625 2.4869V3.96605H2.72374V2.4869ZM2.72374 44.938V37.0625C3.38503 37.395 4.1363 37.5745 4.86007 37.5863V42.9703C4.85862 42.9716 4.85729 42.9733 4.85583 42.9746C4.3843 43.4209 4.09803 44.0456 4.09803 44.7267V45.6084H3.39424C3.02454 45.6085 2.72374 45.3076 2.72374 44.938ZM4.71827 53.6366V52.1208C4.71827 51.8828 4.91941 51.6816 5.15748 51.6816C7.46165 51.6816 18.8316 51.6817 20.3298 51.6817V54.0758C16.525 54.0758 8.35144 54.0758 5.15748 54.0758C4.91941 54.0758 4.71827 53.8745 4.71827 53.6366ZM15.531 59.4402C15.531 59.8501 15.1976 60.1835 14.7877 60.1835H7.48005C7.07015 60.1835 6.73678 59.8501 6.73678 59.4402V55.892H15.5308V59.4402H15.531ZM22.5248 49.3209C21.9867 49.3209 21.4661 49.5188 21.0607 49.8652H19.7915V48.1524C19.7915 47.8277 20.0658 47.5535 20.3903 47.5535H34.9584C35.283 47.5535 35.5572 47.8278 35.5572 48.1524V49.8652H34.2288C33.5097 49.2486 32.7391 49.3274 32.7029 49.3209C31.4434 49.3209 23.8059 49.3209 22.5248 49.3209ZM48.6118 59.4402C48.6118 59.8501 48.2784 60.1835 47.8686 60.1835H40.5609C40.1511 60.1835 39.8177 59.8501 39.8177 59.4402V55.892H48.6116V59.4402H48.6118ZM50.6305 52.1208V53.6366C50.6305 53.8746 50.4294 54.0758 50.1913 54.0758C47.1184 54.0758 38.2687 54.0758 35.019 54.0758V51.6816H50.1913C50.4294 51.6816 50.6305 51.8828 50.6305 52.1208ZM52.625 44.938C52.625 45.3077 52.3243 45.6085 51.9546 45.6085H51.2508V44.7269C51.2508 44.037 50.9584 43.4153 50.4931 42.9748C50.4916 42.9733 50.4903 42.9716 50.4887 42.9703V37.5863C51.206 37.5746 51.9577 37.3979 52.625 37.0625V44.938Z" fill="#CB8734" stroke="white" stroke-width="0.2" mask="url(#path-1-inside-1_3995_2380)"/>
</svg>
