<svg width="71" height="71" viewBox="0 0 71 71" fill="none" xmlns="http://www.w3.org/2000/svg">
<rect width="71" height="71" fill="white"/>
<path d="M62.4897 36.5674C62.7048 36.5674 62.911 36.6527 63.063 36.8047C63.215 36.9567 63.3003 37.1629 63.3003 37.3779V39.6377C63.3002 39.8525 63.2149 40.059 63.063 40.2109C62.911 40.3628 62.7046 40.4482 62.4897 40.4482C62.2748 40.4482 62.0685 40.3628 61.9165 40.2109C61.7646 40.059 61.6793 39.8525 61.6792 39.6377V37.3779C61.6792 37.1629 61.7645 36.9567 61.9165 36.8047C62.0685 36.6526 62.2747 36.5674 62.4897 36.5674Z" fill="#CB8734" stroke="#CB8734" stroke-width="0.1"/>
<path d="M60.207 8.8252C61.0273 8.8252 61.8145 9.15045 62.3945 9.73047C62.9746 10.3105 63.2998 11.0977 63.2998 11.918V24.5156C63.2997 24.7305 63.2145 24.9369 63.0625 25.0889C62.9105 25.2408 62.7042 25.3262 62.4893 25.3262C62.2743 25.3262 62.068 25.2408 61.916 25.0889C61.7641 24.9369 61.6788 24.7305 61.6787 24.5156V11.918C61.6787 11.5277 61.524 11.1529 61.248 10.877C60.9721 10.601 60.5973 10.4463 60.207 10.4463H13.043C12.6527 10.4463 12.2779 10.601 12.002 10.877C11.726 11.1529 11.5713 11.5277 11.5713 11.918V59.082C11.5713 59.4723 11.726 59.8471 12.002 60.123C12.2779 60.399 12.6527 60.5537 13.043 60.5537H60.207C60.5973 60.5537 60.9721 60.399 61.248 60.123C61.524 59.8471 61.6787 59.4723 61.6787 59.082V44.9629C61.6788 44.748 61.7641 44.5416 61.916 44.3896C62.068 44.2377 62.2743 44.1524 62.4893 44.1523C62.7042 44.1523 62.9105 44.2377 63.0625 44.3896C63.2144 44.5416 63.2997 44.748 63.2998 44.9629V59.082C63.2998 59.9023 62.9746 60.6895 62.3945 61.2695C61.8145 61.8496 61.0273 62.1748 60.207 62.1748H13.043C12.2227 62.1748 11.4355 61.8496 10.8555 61.2695C10.2754 60.6895 9.9502 59.9023 9.9502 59.082V11.918C9.9502 11.0977 10.2754 10.3105 10.8555 9.73047C11.4355 9.15045 12.2227 8.8252 13.043 8.8252H60.207Z" fill="#CB8734" stroke="#CB8734" stroke-width="0.1"/>
<path d="M62.4897 29.0283C62.7048 29.0283 62.911 29.1136 63.063 29.2656C63.215 29.4177 63.3003 29.6239 63.3003 29.8389V32.0527C63.3002 32.2677 63.215 32.474 63.063 32.626C62.911 32.7779 62.7047 32.8633 62.4897 32.8633C62.2748 32.8633 62.0685 32.7779 61.9165 32.626C61.7645 32.474 61.6793 32.2677 61.6792 32.0527V29.8389C61.6792 29.6239 61.7645 29.4177 61.9165 29.2656C62.0685 29.1136 62.2747 29.0283 62.4897 29.0283Z" fill="#CB8734" stroke="#CB8734" stroke-width="0.1"/>
<mask id="path-5-outside-1_3995_2268" maskUnits="userSpaceOnUse" x="37.429" y="23.5222" width="24.0416" height="24.0416" fill="black">
<rect fill="white" x="37.429" y="23.5222" width="24.0416" height="24.0416"/>
<path fill-rule="evenodd" clip-rule="evenodd" d="M54.3688 31.8192C54.5706 31.8192 54.7641 31.739 54.9067 31.5964C55.0494 31.4537 55.1295 31.2602 55.1295 31.0585C55.1295 30.8567 55.0494 30.6632 54.9067 30.5206L49.9241 25.5379C49.7814 25.3953 49.5879 25.3151 49.3862 25.3151C49.1844 25.3151 48.9909 25.3953 48.8483 25.5379L43.8657 30.5206C43.723 30.6632 43.6429 30.8567 43.6429 31.0585C43.6429 31.2602 43.723 31.4537 43.8657 31.5964C44.0083 31.739 44.2018 31.8192 44.4036 31.8192C44.6053 31.8192 44.7988 31.739 44.9415 31.5964L48.6258 27.9121L48.6258 45.0105C48.6258 45.161 48.6705 45.308 48.754 45.4331C48.8376 45.5582 48.9564 45.6556 49.0954 45.7132C49.2344 45.7708 49.3873 45.7859 49.5348 45.7565C49.6824 45.7272 49.8179 45.6548 49.9243 45.5484C50.0669 45.4058 50.147 45.2123 50.147 45.0105L50.147 27.9125L53.8309 31.5964C53.9736 31.739 54.1671 31.8192 54.3688 31.8192Z"/>
</mask>
<path fill-rule="evenodd" clip-rule="evenodd" d="M54.3688 31.8192C54.5706 31.8192 54.7641 31.739 54.9067 31.5964C55.0494 31.4537 55.1295 31.2602 55.1295 31.0585C55.1295 30.8567 55.0494 30.6632 54.9067 30.5206L49.9241 25.5379C49.7814 25.3953 49.5879 25.3151 49.3862 25.3151C49.1844 25.3151 48.9909 25.3953 48.8483 25.5379L43.8657 30.5206C43.723 30.6632 43.6429 30.8567 43.6429 31.0585C43.6429 31.2602 43.723 31.4537 43.8657 31.5964C44.0083 31.739 44.2018 31.8192 44.4036 31.8192C44.6053 31.8192 44.7988 31.739 44.9415 31.5964L48.6258 27.9121L48.6258 45.0105C48.6258 45.161 48.6705 45.308 48.754 45.4331C48.8376 45.5582 48.9564 45.6556 49.0954 45.7132C49.2344 45.7708 49.3873 45.7859 49.5348 45.7565C49.6824 45.7272 49.8179 45.6548 49.9243 45.5484C50.0669 45.4058 50.147 45.2123 50.147 45.0105L50.147 27.9125L53.8309 31.5964C53.9736 31.739 54.1671 31.8192 54.3688 31.8192Z" fill="#CB8734"/>
<path d="M49.3862 25.3151L49.3862 25.2151L49.3862 25.2151L49.3862 25.3151ZM48.8483 25.5379L48.7776 25.4672L48.8483 25.5379ZM43.8657 30.5206L43.9364 30.5913L43.8657 30.5206ZM43.6429 31.0585L43.5429 31.0585L43.6429 31.0585ZM44.4036 31.8192V31.7192V31.8192ZM44.9415 31.5964L44.8708 31.5257L44.9415 31.5964ZM48.6258 27.9121L48.7258 27.912L48.7258 27.6706L48.5551 27.8413L48.6258 27.9121ZM48.6258 45.0105L48.5258 45.0105L48.5258 45.0105L48.6258 45.0105ZM48.754 45.4331L48.6709 45.4886L48.6709 45.4886L48.754 45.4331ZM49.0954 45.7132L49.0571 45.8056L49.0571 45.8056L49.0954 45.7132ZM49.5348 45.7565L49.5543 45.8546L49.5348 45.7565ZM49.9243 45.5484L49.995 45.6192L49.995 45.6191L49.9243 45.5484ZM50.147 45.0105L50.047 45.0105L50.047 45.0105L50.147 45.0105ZM50.147 27.9125L50.2177 27.8418L50.047 27.6711L50.047 27.9125L50.147 27.9125ZM54.9067 31.5964L54.836 31.5257C54.7121 31.6496 54.544 31.7192 54.3688 31.7192V31.8192V31.9192C54.5971 31.9192 54.816 31.8285 54.9774 31.6671L54.9067 31.5964ZM55.1295 31.0585H55.0295C55.0295 31.2337 54.9599 31.4018 54.836 31.5257L54.9067 31.5964L54.9774 31.6671C55.1388 31.5057 55.2295 31.2868 55.2295 31.0585H55.1295ZM54.9067 30.5206L54.836 30.5913C54.9599 30.7152 55.0295 30.8832 55.0295 31.0585H55.1295H55.2295C55.2295 30.8302 55.1388 30.6113 54.9774 30.4499L54.9067 30.5206ZM49.9241 25.5379L49.8534 25.6087L54.836 30.5913L54.9067 30.5206L54.9774 30.4499L49.9948 25.4672L49.9241 25.5379ZM49.3862 25.3151L49.3862 25.4151C49.5614 25.4151 49.7295 25.4847 49.8534 25.6087L49.9241 25.5379L49.9948 25.4672C49.8334 25.3058 49.6145 25.2151 49.3862 25.2151L49.3862 25.3151ZM48.8483 25.5379L48.919 25.6087C49.0429 25.4847 49.211 25.4151 49.3862 25.4151L49.3862 25.3151L49.3862 25.2151C49.1579 25.2151 48.939 25.3058 48.7776 25.4672L48.8483 25.5379ZM43.8657 30.5206L43.9364 30.5913L48.919 25.6087L48.8483 25.5379L48.7776 25.4672L43.7949 30.4499L43.8657 30.5206ZM43.6429 31.0585L43.7429 31.0585C43.7429 30.8832 43.8125 30.7152 43.9364 30.5913L43.8657 30.5206L43.7949 30.4499C43.6335 30.6113 43.5429 30.8302 43.5429 31.0585L43.6429 31.0585ZM43.8657 31.5964L43.9364 31.5257C43.8125 31.4018 43.7429 31.2337 43.7429 31.0585H43.6429L43.5429 31.0585C43.5429 31.2868 43.6335 31.5057 43.7949 31.6671L43.8657 31.5964ZM44.4036 31.8192V31.7192C44.2283 31.7192 44.0603 31.6496 43.9364 31.5257L43.8657 31.5964L43.7949 31.6671C43.9564 31.8285 44.1753 31.9192 44.4036 31.9192V31.8192ZM44.9415 31.5964L44.8708 31.5257C44.7469 31.6496 44.5788 31.7192 44.4036 31.7192V31.8192V31.9192C44.6318 31.9192 44.8508 31.8285 45.0122 31.6671L44.9415 31.5964ZM48.6258 27.9121L48.5551 27.8413L44.8708 31.5257L44.9415 31.5964L45.0122 31.6671L48.6965 27.9828L48.6258 27.9121ZM48.6258 45.0105L48.7258 45.0105L48.7258 27.912L48.6258 27.9121L48.5258 27.9121L48.5258 45.0105L48.6258 45.0105ZM48.754 45.4331L48.8372 45.3775C48.7646 45.2689 48.7258 45.1412 48.7258 45.0105L48.6258 45.0105L48.5258 45.0105C48.5258 45.1808 48.5763 45.3471 48.6709 45.4886L48.754 45.4331ZM49.0954 45.7132L49.1337 45.6208C49.0129 45.5708 48.9098 45.4862 48.8372 45.3775L48.754 45.4331L48.6709 45.4886C48.7655 45.6302 48.8999 45.7405 49.0571 45.8056L49.0954 45.7132ZM49.5348 45.7565L49.5153 45.6584C49.3872 45.6839 49.2544 45.6708 49.1337 45.6208L49.0954 45.7132L49.0571 45.8056C49.2144 45.8707 49.3874 45.8878 49.5543 45.8546L49.5348 45.7565ZM49.9243 45.5484L49.8536 45.4777C49.7612 45.5701 49.6435 45.633 49.5153 45.6584L49.5348 45.7565L49.5543 45.8546C49.7213 45.8214 49.8746 45.7395 49.995 45.6192L49.9243 45.5484ZM50.147 45.0105L50.047 45.0105C50.047 45.1858 49.9775 45.3538 49.8536 45.4777L49.9243 45.5484L49.995 45.6191C50.1564 45.4577 50.247 45.2388 50.247 45.0105L50.147 45.0105ZM50.147 27.9125L50.047 27.9125L50.047 45.0105L50.147 45.0105L50.247 45.0105L50.247 27.9125L50.147 27.9125ZM53.8309 31.5964L53.9016 31.5257L50.2177 27.8418L50.147 27.9125L50.0763 27.9832L53.7602 31.6671L53.8309 31.5964ZM54.3688 31.8192V31.7192C54.1936 31.7192 54.0255 31.6496 53.9016 31.5257L53.8309 31.5964L53.7602 31.6671C53.9216 31.8285 54.1405 31.9192 54.3688 31.9192V31.8192Z" fill="#CB8734" mask="url(#path-5-outside-1_3995_2268)"/>
</svg>
