<svg width="62" height="62" viewBox="0 0 62 62" fill="none" xmlns="http://www.w3.org/2000/svg">
<path d="M57.8667 8.26562V10.3323C59.008 10.3323 59.9333 11.2576 59.9333 12.399V43.399H2.06667V12.399C2.06667 11.2576 2.99202 10.3323 4.13333 10.3323V8.26562C1.85072 8.26562 0 10.1163 0 12.399V47.5323C0 49.8149 1.85072 51.6656 4.13333 51.6656H24.4443L21.9644 59.9323H19.6333V61.999H42.3667V59.9323H40.0356L37.5557 51.6656H57.8667C60.1493 51.6656 62 49.8149 62 47.5323V12.399C62 10.1163 60.1493 8.26562 57.8667 8.26562ZM37.8776 59.9323H24.1224L26.6023 51.6656H35.3977L37.8776 59.9323ZM59.9333 47.5323C59.9333 48.6736 59.008 49.599 57.8667 49.599H4.13333C2.99202 49.599 2.06667 48.6736 2.06667 47.5323V45.4656H59.9333V47.5323Z" fill="#CB8734"/>
<path d="M8.26662 4.13333C8.26662 2.99202 9.19198 2.06667 10.3333 2.06667H51.6666C52.8079 2.06667 53.7333 2.99202 53.7333 4.13333V41.3333H55.7999V4.13333C55.7999 1.85072 53.9492 0 51.6666 0H10.3333C8.05067 0 6.19995 1.85072 6.19995 4.13333V41.3333H8.26662V4.13333Z" fill="#CB8734"/>
<path d="M16.1706 34.0343L32.7039 40.2343C32.7155 40.2343 32.7286 40.2343 32.7402 40.2403C32.8452 40.2772 32.9552 40.2974 33.0667 40.2994C33.2095 40.2964 33.3502 40.2636 33.4799 40.2035C33.4965 40.1959 33.5162 40.2035 33.5329 40.1909L45.9329 33.9909C46.2815 33.8148 46.501 33.4566 46.5 33.066V20.666C46.4985 20.5964 46.4894 20.5273 46.4733 20.4592C46.4733 20.4481 46.4733 20.4355 46.4733 20.4244C46.4384 20.2917 46.3779 20.1675 46.2951 20.0586C46.2871 20.048 46.2861 20.0338 46.278 20.0222L38.0113 9.6889C37.7071 9.30846 37.1783 9.19191 36.7424 9.40988L16.0757 19.7432C15.724 19.9168 15.5015 20.274 15.5 20.666V33.066C15.4995 33.4969 15.7669 33.8829 16.1706 34.0343ZM22.7767 34.2412V28.1845L24.8434 28.9595V35.0202L22.7767 34.2412ZM44.4333 32.4273L34.1 37.5939V27.5048L44.4333 22.3381V32.4273ZM36.9149 11.6304L43.8607 20.3103L33.3517 25.5653L26.406 16.8849L36.9149 11.6304ZM17.5667 21.3048L24.5149 17.8304L32.0333 27.2288V37.7751L26.9101 35.8562V28.2435C26.9101 27.8126 26.6426 27.4276 26.2395 27.2763L22.1062 25.7263C21.7888 25.6072 21.4336 25.6516 21.1551 25.8443C20.8766 26.0376 20.7101 26.3544 20.7101 26.6935V33.5292L17.5667 32.3501V21.3048Z" fill="#CB8734"/>
<path d="M10.3333 37.1992V40.2992C10.3333 40.8699 10.7959 41.3326 11.3666 41.3326H14.4666V39.2659H12.3999V37.1992H10.3333Z" fill="#CB8734"/>
<path d="M14.4666 8.26562H11.3666C10.7959 8.26562 10.3333 8.7283 10.3333 9.29896V12.399H12.3999V10.3323H14.4666V8.26562Z" fill="#CB8734"/>
<path d="M49.6001 39.2659H47.5334V41.3326H50.6334C51.2041 41.3326 51.6668 40.8699 51.6668 40.2992V37.1992H49.6001V39.2659Z" fill="#CB8734"/>
<path d="M51.6668 9.29896C51.6668 8.7283 51.2041 8.26562 50.6334 8.26562H47.5334V10.3323H49.6001V12.399H51.6668V9.29896Z" fill="#CB8734"/>
</svg>
