<svg width="62" height="62" viewBox="0 0 62 62" fill="none" xmlns="http://www.w3.org/2000/svg">
<mask id="path-1-inside-1_3995_2424" fill="white">
<path d="M61 52H59V17.5C58.999 16.5721 58.6299 15.6824 57.9737 15.0263C57.3176 14.3701 56.4279 14.001 55.5 14H45V12C45.0002 11.8089 44.9456 11.6219 44.8425 11.461C44.7395 11.3001 44.5924 11.1722 44.4188 11.0925L31.4188 5.0925C31.2876 5.03136 31.1447 4.99968 31 4.99968C30.8553 4.99968 30.7124 5.03136 30.5812 5.0925L25 7.6675V5C25 4.73478 24.8946 4.48043 24.7071 4.29289C24.5196 4.10536 24.2652 4 24 4C23.7348 4 23.4804 4.10536 23.2929 4.29289C23.1054 4.48043 23 4.73478 23 5V8.59125L17.5812 11.0925C17.4076 11.1722 17.2605 11.3001 17.1575 11.461C17.0544 11.6219 16.9998 11.8089 17 12V14H6.5C5.57206 14.001 4.68241 14.3701 4.02626 15.0263C3.3701 15.6824 3.00103 16.5721 3 17.5V52H1C0.734784 52 0.48043 52.1054 0.292893 52.2929C0.105357 52.4804 0 52.7348 0 53V58.5C0.00102566 59.4279 0.370104 60.3176 1.02626 60.9737C1.68241 61.6299 2.57206 61.999 3.5 62H58.5C59.4279 61.999 60.3176 61.6299 60.9737 60.9737C61.6299 60.3176 61.999 59.4279 62 58.5V53C62 52.7348 61.8946 52.4804 61.7071 52.2929C61.5196 52.1054 61.2652 52 61 52ZM23 10.7937V11C23 11.2652 23.1054 11.5196 23.2929 11.7071C23.4804 11.8946 23.7348 12 24 12C24.2652 12 24.5196 11.8946 24.7071 11.7071C24.8946 11.5196 25 11.2652 25 11V9.87L31 7.10125L41.6138 12L31 16.8988L20.3862 12L23 10.7937ZM43 13.5625V25.36L32 30.4375V18.64L43 13.5625ZM19 13.5625L30 18.64V30.4375L19 25.36V13.5625ZM17.5812 26.9075L30.5812 32.9075C30.7124 32.9684 30.8554 33 31 33C31.1446 33 31.2876 32.9684 31.4188 32.9075L44.4188 26.9075C44.5924 26.8278 44.7395 26.6999 44.8425 26.539C44.9456 26.3781 45.0002 26.1911 45 26V19H54V49H8V19H17V26C16.9998 26.1911 17.0544 26.3781 17.1575 26.539C17.2605 26.6999 17.4076 26.8278 17.5812 26.9075ZM5 17.5C5.00033 17.1023 5.15847 16.7209 5.43971 16.4397C5.72094 16.1585 6.10228 16.0003 6.5 16H17V17H7C6.73478 17 6.48043 17.1054 6.29289 17.2929C6.10536 17.4804 6 17.7348 6 18V50C6 50.2652 6.10536 50.5196 6.29289 50.7071C6.48043 50.8946 6.73478 51 7 51H55C55.2652 51 55.5196 50.8946 55.7071 50.7071C55.8946 50.5196 56 50.2652 56 50V18C56 17.7348 55.8946 17.4804 55.7071 17.2929C55.5196 17.1054 55.2652 17 55 17H45V16H55.5C55.8977 16.0003 56.2791 16.1585 56.5603 16.4397C56.8415 16.7209 56.9997 17.1023 57 17.5V52H5V17.5ZM34.7188 54L34.2188 56H27.7812L27.2812 54H34.7188ZM60 58.5C59.9997 58.8977 59.8415 59.2791 59.5603 59.5603C59.2791 59.8415 58.8977 59.9997 58.5 60H3.5C3.10228 59.9997 2.72094 59.8415 2.43971 59.5603C2.15847 59.2791 2.00033 58.8977 2 58.5V54H25.2188L26.03 57.2425C26.0841 57.4588 26.2089 57.6509 26.3847 57.7881C26.5604 57.9254 26.777 58 27 58H35C35.223 58 35.4396 57.9254 35.6153 57.7881C35.7911 57.6509 35.9159 57.4588 35.97 57.2425L36.7812 54H60V58.5Z"/>
</mask>
<path d="M61 52H59V17.5C58.999 16.5721 58.6299 15.6824 57.9737 15.0263C57.3176 14.3701 56.4279 14.001 55.5 14H45V12C45.0002 11.8089 44.9456 11.6219 44.8425 11.461C44.7395 11.3001 44.5924 11.1722 44.4188 11.0925L31.4188 5.0925C31.2876 5.03136 31.1447 4.99968 31 4.99968C30.8553 4.99968 30.7124 5.03136 30.5812 5.0925L25 7.6675V5C25 4.73478 24.8946 4.48043 24.7071 4.29289C24.5196 4.10536 24.2652 4 24 4C23.7348 4 23.4804 4.10536 23.2929 4.29289C23.1054 4.48043 23 4.73478 23 5V8.59125L17.5812 11.0925C17.4076 11.1722 17.2605 11.3001 17.1575 11.461C17.0544 11.6219 16.9998 11.8089 17 12V14H6.5C5.57206 14.001 4.68241 14.3701 4.02626 15.0263C3.3701 15.6824 3.00103 16.5721 3 17.5V52H1C0.734784 52 0.48043 52.1054 0.292893 52.2929C0.105357 52.4804 0 52.7348 0 53V58.5C0.00102566 59.4279 0.370104 60.3176 1.02626 60.9737C1.68241 61.6299 2.57206 61.999 3.5 62H58.5C59.4279 61.999 60.3176 61.6299 60.9737 60.9737C61.6299 60.3176 61.999 59.4279 62 58.5V53C62 52.7348 61.8946 52.4804 61.7071 52.2929C61.5196 52.1054 61.2652 52 61 52ZM23 10.7937V11C23 11.2652 23.1054 11.5196 23.2929 11.7071C23.4804 11.8946 23.7348 12 24 12C24.2652 12 24.5196 11.8946 24.7071 11.7071C24.8946 11.5196 25 11.2652 25 11V9.87L31 7.10125L41.6138 12L31 16.8988L20.3862 12L23 10.7937ZM43 13.5625V25.36L32 30.4375V18.64L43 13.5625ZM19 13.5625L30 18.64V30.4375L19 25.36V13.5625ZM17.5812 26.9075L30.5812 32.9075C30.7124 32.9684 30.8554 33 31 33C31.1446 33 31.2876 32.9684 31.4188 32.9075L44.4188 26.9075C44.5924 26.8278 44.7395 26.6999 44.8425 26.539C44.9456 26.3781 45.0002 26.1911 45 26V19H54V49H8V19H17V26C16.9998 26.1911 17.0544 26.3781 17.1575 26.539C17.2605 26.6999 17.4076 26.8278 17.5812 26.9075ZM5 17.5C5.00033 17.1023 5.15847 16.7209 5.43971 16.4397C5.72094 16.1585 6.10228 16.0003 6.5 16H17V17H7C6.73478 17 6.48043 17.1054 6.29289 17.2929C6.10536 17.4804 6 17.7348 6 18V50C6 50.2652 6.10536 50.5196 6.29289 50.7071C6.48043 50.8946 6.73478 51 7 51H55C55.2652 51 55.5196 50.8946 55.7071 50.7071C55.8946 50.5196 56 50.2652 56 50V18C56 17.7348 55.8946 17.4804 55.7071 17.2929C55.5196 17.1054 55.2652 17 55 17H45V16H55.5C55.8977 16.0003 56.2791 16.1585 56.5603 16.4397C56.8415 16.7209 56.9997 17.1023 57 17.5V52H5V17.5ZM34.7188 54L34.2188 56H27.7812L27.2812 54H34.7188ZM60 58.5C59.9997 58.8977 59.8415 59.2791 59.5603 59.5603C59.2791 59.8415 58.8977 59.9997 58.5 60H3.5C3.10228 59.9997 2.72094 59.8415 2.43971 59.5603C2.15847 59.2791 2.00033 58.8977 2 58.5V54H25.2188L26.03 57.2425C26.0841 57.4588 26.2089 57.6509 26.3847 57.7881C26.5604 57.9254 26.777 58 27 58H35C35.223 58 35.4396 57.9254 35.6153 57.7881C35.7911 57.6509 35.9159 57.4588 35.97 57.2425L36.7812 54H60V58.5Z" fill="#CB8734" stroke="white" stroke-width="0.6" mask="url(#path-1-inside-1_3995_2424)"/>
<path d="M26 34.1504C26.2254 34.1504 26.4422 34.24 26.6016 34.3994C26.7607 34.5588 26.8496 34.7748 26.8496 35V37.6855L27.0537 37.6074L30.6953 36.207C30.8917 36.1316 31.1093 36.1315 31.3057 36.207L44.3057 41.207C44.4658 41.2687 44.604 41.3771 44.7012 41.5186C44.7984 41.6602 44.8506 41.8282 44.8506 42C44.8506 42.1718 44.7984 42.3398 44.7012 42.4814C44.604 42.6229 44.4658 42.7313 44.3057 42.793L31.3057 47.793C31.1093 47.8685 30.8917 47.8684 30.6953 47.793L17.6953 42.793C17.5351 42.7314 17.3971 42.6229 17.2998 42.4814C17.2025 42.3398 17.1504 42.1718 17.1504 42C17.1504 41.8282 17.2025 41.6602 17.2998 41.5186C17.3971 41.3771 17.5351 41.2686 17.6953 41.207L25.0537 38.376L25.1504 38.3389V35C25.1504 34.7746 25.24 34.5588 25.3994 34.3994C25.5588 34.24 25.7746 34.1504 26 34.1504ZM30.9463 37.9316L26.9463 39.4697L26.8496 39.5068V41C26.8496 41.2252 26.7607 41.4412 26.6016 41.6006C26.4422 41.76 26.2254 41.8496 26 41.8496C25.7746 41.8496 25.5588 41.76 25.3994 41.6006C25.24 41.4412 25.1504 41.2254 25.1504 41V40.1611L24.9463 40.2393L20.7314 41.8604L20.3682 42L20.7314 42.1396L30.9463 46.0684L31 46.0889L31.0537 46.0684L41.2686 42.1396L41.6318 42L41.2686 41.8604L31.0537 37.9316L31 37.9111L30.9463 37.9316Z" fill="#CB8734" stroke="white" stroke-width="0.3"/>
<path d="M44 29.1504C44.2254 29.1504 44.4412 29.24 44.6006 29.3994C44.76 29.5588 44.8496 29.7746 44.8496 30V35C44.8496 35.2254 44.76 35.4412 44.6006 35.6006C44.4412 35.76 44.2254 35.8496 44 35.8496C43.7746 35.8496 43.5588 35.76 43.3994 35.6006C43.24 35.4412 43.1504 35.2254 43.1504 35V30C43.1504 29.7746 43.24 29.5588 43.3994 29.3994C43.5588 29.24 43.7746 29.1504 44 29.1504Z" fill="#CB8734" stroke="white" stroke-width="0.3"/>
<path d="M39 31.1504C39.2254 31.1504 39.4412 31.24 39.6006 31.3994C39.76 31.5588 39.8496 31.7746 39.8496 32V35C39.8496 35.2254 39.76 35.4412 39.6006 35.6006C39.4412 35.76 39.2254 35.8496 39 35.8496C38.7746 35.8496 38.5588 35.76 38.3994 35.6006C38.24 35.4412 38.1504 35.2254 38.1504 35V32C38.1504 31.7746 38.24 31.5588 38.3994 31.3994C38.5389 31.2599 38.7214 31.1736 38.916 31.1543L39 31.1504Z" fill="#CB8734" stroke="white" stroke-width="0.3"/>
<path d="M18 32.1504C18.2254 32.1504 18.4412 32.24 18.6006 32.3994C18.76 32.5588 18.8496 32.7746 18.8496 33V38C18.8496 38.2254 18.76 38.4412 18.6006 38.6006C18.4412 38.76 18.2254 38.8496 18 38.8496C17.7746 38.8496 17.5588 38.76 17.3994 38.6006C17.24 38.4412 17.1504 38.2254 17.1504 38V33C17.1504 32.7746 17.24 32.5588 17.3994 32.3994C17.5588 32.24 17.7746 32.1504 18 32.1504Z" fill="#CB8734" stroke="white" stroke-width="0.3"/>
<path d="M31 0.150391C31.2254 0.150391 31.4412 0.240008 31.6006 0.399414C31.76 0.55882 31.8496 0.774566 31.8496 1V3C31.8496 3.22543 31.76 3.44118 31.6006 3.60059C31.4412 3.75999 31.2254 3.84961 31 3.84961C30.7746 3.84961 30.5588 3.75999 30.3994 3.60059C30.24 3.44118 30.1504 3.22543 30.1504 3V1C30.1504 0.774566 30.24 0.55882 30.3994 0.399414C30.5389 0.259931 30.7214 0.173615 30.916 0.154297L31 0.150391Z" fill="#CB8734" stroke="white" stroke-width="0.3"/>
<path d="M44 4.15039C44.2254 4.15039 44.4412 4.24001 44.6006 4.39941C44.76 4.55882 44.8496 4.77457 44.8496 5V7C44.8496 7.22543 44.76 7.44118 44.6006 7.60059C44.4412 7.75999 44.2254 7.84961 44 7.84961C43.7746 7.84961 43.5588 7.75999 43.3994 7.60059C43.24 7.44118 43.1504 7.22543 43.1504 7V5C43.1504 4.77457 43.24 4.55882 43.3994 4.39941C43.5588 4.24001 43.7746 4.15039 44 4.15039Z" fill="#CB8734" stroke="white" stroke-width="0.3"/>
</svg>
