<svg width="251" height="34" viewBox="0 0 251 34" fill="none" xmlns="http://www.w3.org/2000/svg">
<path d="M142.806 33.0952C141.893 33.0952 141.135 32.7944 140.533 32.1926C139.931 31.5797 139.642 30.8331 139.642 29.9304C139.642 29.0278 139.931 28.27 140.533 27.6683C141.135 27.0665 141.893 26.7656 142.806 26.7656C143.352 26.7656 143.865 26.8882 144.333 27.1557C144.801 27.412 145.169 27.7574 145.436 28.2032L144.088 28.9721C143.976 28.7603 143.798 28.5932 143.575 28.4706C143.341 28.3369 143.085 28.2812 142.806 28.2812C142.316 28.2812 141.926 28.426 141.625 28.7381C141.335 29.0389 141.179 29.4401 141.179 29.9304C141.179 30.4207 141.335 30.8219 141.625 31.1228C141.926 31.4237 142.316 31.5797 142.806 31.5797C143.085 31.5797 143.341 31.5128 143.575 31.3902C143.798 31.2677 143.976 31.0894 144.088 30.8776L145.436 31.6577C145.169 32.1034 144.801 32.4489 144.333 32.7052C143.865 32.9615 143.364 33.0952 142.806 33.0952ZM162.676 32.1814C162.063 32.7832 161.305 33.0952 160.413 33.0952C159.522 33.0952 158.775 32.7832 158.162 32.1814C157.538 31.5685 157.237 30.8219 157.237 29.9304C157.237 29.0389 157.538 28.2923 158.162 27.6794C158.775 27.0665 159.522 26.7656 160.413 26.7656C161.305 26.7656 162.063 27.0665 162.676 27.6794C163.288 28.2923 163.6 29.0389 163.6 29.9304C163.6 30.8219 163.288 31.5685 162.676 32.1814ZM159.243 31.1117C159.555 31.4237 159.945 31.5797 160.413 31.5797C160.881 31.5797 161.271 31.4237 161.583 31.1117C161.896 30.7996 162.052 30.4096 162.052 29.9304C162.052 29.4512 161.896 29.0501 161.583 28.7492C161.271 28.4372 160.881 28.2812 160.413 28.2812C159.945 28.2812 159.555 28.4372 159.243 28.7492C158.931 29.0501 158.775 29.4512 158.775 29.9304C158.775 30.4096 158.931 30.7996 159.243 31.1117ZM182.132 26.8882V32.9615H180.595V29.6964L179.112 32.1257H178.956L177.497 29.7076V32.9615H175.937V26.8882H177.497L179.034 29.4847L180.595 26.8882H182.132ZM197.076 26.8882C197.689 26.8882 198.202 27.0888 198.625 27.49C199.037 27.8911 199.249 28.4037 199.249 29.0166C199.249 29.6407 199.037 30.1422 198.625 30.5433C198.202 30.9445 197.689 31.1451 197.076 31.1451H196.274V32.9615H194.714V26.8882H197.076ZM197.076 29.663C197.254 29.663 197.399 29.6073 197.511 29.4847C197.633 29.3621 197.689 29.2061 197.689 29.0166C197.689 28.8272 197.633 28.6712 197.511 28.5486C197.399 28.4372 197.254 28.3703 197.076 28.3703H196.274V29.663H197.076ZM214.694 32.9615L214.393 32.0923H212.332L212.075 32.9615H210.393L212.321 26.8882H214.282L216.288 32.9615H214.694ZM212.733 30.7551H213.959L213.335 28.6823L212.733 30.7551ZM231.699 26.8882H233.237V32.9615H232.045L229.905 29.9081V32.9615H228.356V26.8882H229.56L231.699 29.9416V26.8882ZM251 26.8882L248.95 30.6325V32.9615H247.401V30.6436L245.35 26.8882H247.089L248.17 29.1392L249.251 26.8882H251Z" fill="#2B2A28"/>
<path fill-rule="evenodd" clip-rule="evenodd" d="M174.042 0.0664062L190.824 18.8435H184.461L167.679 0.0664062H174.042Z" fill="#CB8734"/>
<path fill-rule="evenodd" clip-rule="evenodd" d="M192.752 0.0664062L209.535 18.8435H203.183L186.4 0.0664062H192.752Z" fill="#CB8734"/>
<path fill-rule="evenodd" clip-rule="evenodd" d="M211.518 0.0664062L228.301 18.8435H221.938L205.155 0.0664062H211.518Z" fill="#CB8734"/>
<path fill-rule="evenodd" clip-rule="evenodd" d="M240.636 12.4252L246.364 18.8439H241.249L235.51 12.4252L231.376 7.86743H244.225C245.138 7.86743 245.896 7.1208 245.896 6.20702C245.896 5.30439 245.138 4.54662 244.225 4.54662H228.768L224.211 0H244.225C247.646 0 250.443 2.79706 250.443 6.20702C250.443 9.62813 247.646 12.4252 244.225 12.4252H240.636ZM0 0.066862H12.8932H17.4398H30.3331V4.61348H17.4398V18.8439H12.8932V4.61348H0V0.066862ZM53.4785 0.066862H68.2104C73.1025 0.066862 77.1031 4.06744 77.1031 8.94837V9.9513C77.1031 14.8434 73.1025 18.8439 68.2104 18.8439H53.4785C48.5864 18.8439 44.5858 14.8434 44.5858 9.9513V8.94837C44.5858 4.06744 48.5864 0.066862 53.4785 0.066862ZM53.4785 4.61348H68.2104C70.5952 4.61348 72.5453 6.56362 72.5453 8.94837V9.9513C72.5453 12.336 70.5952 14.2862 68.2104 14.2862H53.4785C51.0937 14.2862 49.1436 12.336 49.1436 9.9513V8.94837C49.1436 6.56362 51.0937 4.61348 53.4785 4.61348ZM98.7218 0.066862V10.1519L98.8109 10.0516L114.423 0.066862H122.569L110.021 7.90086L125.567 18.8439H117.332L105.609 10.6533L98.7218 14.9548V18.8439H94.164V14.9548V0.066862H98.7218ZM154.607 0.100293L171.769 18.8439H150.44L154.986 14.2862H161.427L154.652 6.87564L143.72 18.8439H137.836L154.607 0.100293Z" fill="#2B2A28"/>
</svg>
