<svg width="26" height="26" viewBox="0 0 26 26" fill="none" xmlns="http://www.w3.org/2000/svg">
<rect width="26" height="26" rx="12.974" fill="#419FD9"/>
<path d="M16.9971 8.23535C17.0137 8.22795 17.8171 7.87372 17.8311 8.47559L16.0352 17.499C16.0352 17.499 15.7804 18.1211 15.1016 17.8242L12.5557 15.8721L10.915 17.3574C10.915 17.3574 10.7878 17.4567 10.6465 17.4004C10.6465 17.4004 10.5194 17.3857 10.3779 16.9189C10.2223 16.438 9.45801 13.9346 9.45801 13.9346L6.92676 13.0859C6.92676 13.0859 6.54438 12.9445 6.50195 12.6475C6.46044 12.3539 6.93028 12.1843 6.94043 12.1807L16.9971 8.23535ZM15.8789 10.0732C15.8923 9.86538 15.5516 10.0664 15.54 10.0732L9.98145 13.6094C9.89674 13.6659 9.86842 13.7648 9.89648 13.8496L10.5615 16.0283C10.6041 16.1553 10.788 16.1412 10.8164 16L10.9717 14.6699C10.9718 14.6136 10.9998 14.5712 11.042 14.543C11.5794 14.0621 15.5822 10.4695 15.752 10.2998C15.9358 10.1018 15.8789 10.0732 15.8789 10.0732Z" fill="white"/>
</svg>
