<svg width="71" height="71" viewBox="0 0 71 71" fill="none" xmlns="http://www.w3.org/2000/svg">
<rect width="71" height="71" fill="white"/>
<path d="M61.3647 36.5674C61.5798 36.5674 61.786 36.6527 61.938 36.8047C62.09 36.9567 62.1753 37.1629 62.1753 37.3779V39.6377C62.1752 39.8525 62.0899 40.059 61.938 40.2109C61.786 40.3628 61.5796 40.4482 61.3647 40.4482C61.1498 40.4482 60.9435 40.3628 60.7915 40.2109C60.6396 40.059 60.5543 39.8525 60.5542 39.6377V37.3779C60.5542 37.1629 60.6395 36.9567 60.7915 36.8047C60.9435 36.6526 61.1497 36.5674 61.3647 36.5674Z" fill="#CB8734" stroke="#CB8734" stroke-width="0.1"/>
<path d="M59.082 8.8252C59.9023 8.8252 60.6895 9.15045 61.2695 9.73047C61.8496 10.3105 62.1748 11.0977 62.1748 11.918V24.5156C62.1747 24.7305 62.0895 24.9369 61.9375 25.0889C61.7855 25.2408 61.5792 25.3262 61.3643 25.3262C61.1493 25.3262 60.943 25.2408 60.791 25.0889C60.6391 24.9369 60.5538 24.7305 60.5537 24.5156V11.918C60.5537 11.5277 60.399 11.1529 60.123 10.877C59.8471 10.601 59.4723 10.4463 59.082 10.4463H11.918C11.5277 10.4463 11.1529 10.601 10.877 10.877C10.601 11.1529 10.4463 11.5277 10.4463 11.918V59.082C10.4463 59.4723 10.601 59.8471 10.877 60.123C11.1529 60.399 11.5277 60.5537 11.918 60.5537H59.082C59.4723 60.5537 59.8471 60.399 60.123 60.123C60.399 59.8471 60.5537 59.4723 60.5537 59.082V44.9629C60.5538 44.748 60.6391 44.5416 60.791 44.3896C60.943 44.2377 61.1493 44.1524 61.3643 44.1523C61.5792 44.1523 61.7855 44.2377 61.9375 44.3896C62.0894 44.5416 62.1747 44.748 62.1748 44.9629V59.082C62.1748 59.9023 61.8496 60.6895 61.2695 61.2695C60.6895 61.8496 59.9023 62.1748 59.082 62.1748H11.918C11.0977 62.1748 10.3105 61.8496 9.73047 61.2695C9.15045 60.6895 8.8252 59.9023 8.8252 59.082V11.918C8.8252 11.0977 9.15045 10.3105 9.73047 9.73047C10.3105 9.15045 11.0977 8.8252 11.918 8.8252H59.082Z" fill="#CB8734" stroke="#CB8734" stroke-width="0.1"/>
<path d="M61.3647 29.0283C61.5798 29.0283 61.786 29.1136 61.938 29.2656C62.09 29.4177 62.1753 29.6239 62.1753 29.8389V32.0527C62.1752 32.2677 62.09 32.474 61.938 32.626C61.786 32.7779 61.5797 32.8633 61.3647 32.8633C61.1498 32.8633 60.9435 32.7779 60.7915 32.626C60.6395 32.474 60.5543 32.2677 60.5542 32.0527V29.8389C60.5542 29.6239 60.6395 29.4177 60.7915 29.2656C60.9435 29.1136 61.1497 29.0283 61.3647 29.0283Z" fill="#CB8734" stroke="#CB8734" stroke-width="0.1"/>
<path d="M52.2334 17.9619C52.4459 17.9638 52.6495 18.0489 52.7998 18.1992C52.9501 18.3495 53.0353 18.5531 53.0371 18.7656C53.0387 18.9516 52.9769 19.1319 52.8623 19.2764L52.8096 19.3359L39.4209 32.7246C39.2689 32.8766 39.0626 32.9618 38.8477 32.9619C38.6875 32.9619 38.5307 32.9151 38.3975 32.8262C38.2642 32.7371 38.16 32.61 38.0986 32.4619C38.0373 32.3138 38.0215 32.1504 38.0527 31.9932C38.0841 31.8361 38.1612 31.6914 38.2744 31.5781L51.6631 18.1895L51.7236 18.1367C51.868 18.0225 52.0477 17.9604 52.2334 17.9619Z" fill="#CB8734" stroke="#CB8734" stroke-width="0.1"/>
<path d="M52.2354 17.9541C52.4502 17.9542 52.6567 18.0395 52.8086 18.1914C52.9605 18.3434 53.0459 18.5497 53.0459 18.7646V25.8115C53.0458 26.0264 52.9605 26.2328 52.8086 26.3848C52.6567 26.5367 52.4502 26.622 52.2354 26.6221C52.0205 26.6221 51.8141 26.5365 51.6621 26.3848C51.5102 26.2328 51.4239 26.0264 51.4238 25.8115V19.5752H45.1885C44.9735 19.5752 44.7673 19.4899 44.6152 19.3379C44.4632 19.1859 44.3779 18.9797 44.3779 18.7646C44.3779 18.5496 44.4632 18.3434 44.6152 18.1914C44.7673 18.0394 44.9735 17.9541 45.1885 17.9541H52.2354Z" fill="#CB8734" stroke="#CB8734" stroke-width="0.1"/>
<path d="M32.1504 38.0479C32.3629 38.0497 32.5665 38.1349 32.7168 38.2852C32.8671 38.4355 32.9523 38.639 32.9541 38.8516C32.9557 39.0375 32.8939 39.2178 32.7793 39.3623L32.7266 39.4219L19.3379 52.8105C19.1859 52.9626 18.9796 53.0478 18.7646 53.0479C18.6045 53.0478 18.4476 53.001 18.3145 52.9121C18.1812 52.823 18.077 52.696 18.0156 52.5479C17.9543 52.3997 17.9385 52.2363 17.9697 52.0791C18.001 51.922 18.0782 51.7773 18.1914 51.6641L31.5801 38.2754L31.6406 38.2227C31.785 38.1084 31.9647 38.0463 32.1504 38.0479Z" fill="#CB8734" stroke="#CB8734" stroke-width="0.1"/>
<path d="M18.7646 44.3799C18.8711 44.3799 18.9768 44.4007 19.0752 44.4414C19.1734 44.4821 19.2627 44.542 19.3379 44.6172C19.4131 44.6924 19.4729 44.7816 19.5137 44.8799C19.5544 44.9782 19.5752 45.084 19.5752 45.1904V51.4258H25.8115C26.0264 51.4259 26.2328 51.5121 26.3848 51.6641C26.5365 51.8161 26.6221 52.0225 26.6221 52.2373C26.622 52.4522 26.5367 52.6586 26.3848 52.8105C26.2328 52.9625 26.0264 53.0477 25.8115 53.0479H18.7646C18.5497 53.0479 18.3434 52.9624 18.1914 52.8105C18.0395 52.6586 17.9542 52.4522 17.9541 52.2373V45.1904C17.9541 45.084 17.9749 44.9782 18.0156 44.8799C18.0564 44.7816 18.1162 44.6924 18.1914 44.6172C18.2666 44.542 18.3558 44.4821 18.4541 44.4414C18.5525 44.4007 18.6582 44.3799 18.7646 44.3799Z" fill="#CB8734" stroke="#CB8734" stroke-width="0.1"/>
</svg>
