<svg width="26" height="26" viewBox="0 0 26 26" fill="none" xmlns="http://www.w3.org/2000/svg">
<rect width="26" height="26" rx="12.974" fill="#675DA9"/>
<path d="M17.6456 8.234C17.3318 7.94552 16.0615 7.02187 13.2298 7.00921C13.2298 7.00921 9.89203 6.80677 8.26489 8.29979C7.35895 9.20573 7.0401 10.5292 7.00721 12.1741C6.97431 13.8164 6.93129 16.8961 9.89962 17.7311H9.90215L9.89962 19.004C9.89962 19.004 9.88191 19.5202 10.221 19.624C10.631 19.7505 10.8739 19.3583 11.2661 18.9357C11.4812 18.7029 11.7773 18.3638 12.0025 18.1031C14.032 18.2727 15.5934 17.883 15.7705 17.8248C16.1804 17.6907 18.501 17.3946 18.878 14.3149C19.2677 11.1467 18.6882 9.13993 17.6456 8.234ZM17.9898 14.0922C17.6709 16.6633 15.7907 16.8252 15.4441 16.9365C15.2973 16.9846 13.9257 17.3263 12.1999 17.2124C12.1999 17.2124 10.9144 18.7636 10.5145 19.166C10.4513 19.2292 10.3779 19.2545 10.3298 19.2419C10.2615 19.2242 10.2412 19.1432 10.2438 19.0243C10.2438 18.8522 10.2539 16.9062 10.2539 16.9062C10.2514 16.9062 10.2514 16.9062 10.2539 16.9062C7.74107 16.2103 7.88784 13.5886 7.91567 12.2171C7.94351 10.8455 8.20162 9.71943 8.96838 8.9628C10.3425 7.71777 13.1792 7.9025 13.1792 7.9025C15.5731 7.91262 16.7194 8.63382 16.9852 8.87423C17.8683 9.63339 18.3188 11.4427 17.9898 14.0922Z" fill="white"/>
<path d="M14.3965 12.2642C14.313 12.2642 14.2421 12.1984 14.2371 12.1124C14.2092 11.5683 13.9537 11.3026 13.4324 11.2748C13.3438 11.2697 13.2755 11.1938 13.2805 11.1052C13.2856 11.0167 13.3615 10.9483 13.4501 10.9534C14.1384 10.9913 14.523 11.3861 14.5585 12.0947C14.5635 12.1832 14.4952 12.2592 14.4066 12.2617C14.4016 12.2642 14.399 12.2642 14.3965 12.2642Z" fill="white"/>
<path d="M15.2165 12.5402H15.214C15.1254 12.5377 15.0546 12.4643 15.0571 12.3757C15.0697 11.8291 14.9128 11.3863 14.5788 11.0219C14.2473 10.6575 13.7893 10.4601 13.1845 10.4171C13.0959 10.4095 13.0301 10.3336 13.0377 10.245C13.0453 10.1565 13.1212 10.0907 13.2098 10.0983C13.893 10.1489 14.432 10.3867 14.8167 10.8068C15.2039 11.2294 15.3911 11.7583 15.3785 12.3833C15.3759 12.4719 15.3025 12.5402 15.2165 12.5402Z" fill="white"/>
<path d="M16.0563 12.8677C15.9677 12.8677 15.8968 12.7969 15.8968 12.7083C15.8893 11.729 15.6084 10.9825 15.0365 10.4232C14.4721 9.87158 13.756 9.59069 12.9133 9.5831C12.8248 9.5831 12.7539 9.50971 12.7539 9.42114C12.7539 9.33257 12.8273 9.26172 12.9133 9.26172C13.842 9.26931 14.6316 9.58057 15.2566 10.193C15.8842 10.8054 16.2056 11.6506 16.2157 12.7033C16.2182 12.7944 16.1474 12.8677 16.0563 12.8677C16.0588 12.8677 16.0588 12.8677 16.0563 12.8677Z" fill="white"/>
<path d="M13.4703 14.2454C13.4703 14.2454 13.6955 14.2656 13.817 14.1163L14.0523 13.8202C14.1662 13.6735 14.442 13.5798 14.7103 13.7291C14.8596 13.8127 15.1304 13.9797 15.2974 14.1037C15.477 14.2353 15.8414 14.5389 15.844 14.5415C16.0186 14.6882 16.0591 14.9033 15.9401 15.1336C15.9401 15.1336 15.9401 15.1361 15.9401 15.1387C15.8187 15.3538 15.6542 15.5562 15.4492 15.7435C15.4467 15.7435 15.4467 15.746 15.4441 15.746C15.2746 15.8877 15.1076 15.9687 14.9456 15.9864C14.9254 15.9915 14.9026 15.9915 14.8722 15.9915C14.8014 15.9915 14.7305 15.9813 14.6597 15.9586L14.6546 15.951C14.4016 15.8801 13.9815 15.703 13.2831 15.3158C12.8276 15.0653 12.4505 14.8097 12.1291 14.5541C11.9596 14.42 11.7875 14.2707 11.6104 14.0935C11.6053 14.0885 11.5977 14.0809 11.5927 14.0758C11.5876 14.0708 11.58 14.0632 11.5749 14.0581C11.5699 14.0531 11.5623 14.0455 11.5572 14.0404C11.5522 14.0353 11.5446 14.0277 11.5395 14.0227C11.3649 13.8456 11.2131 13.6735 11.079 13.5039C10.8234 13.1851 10.5678 12.8055 10.3173 12.35C9.93008 11.649 9.75295 11.229 9.68209 10.9784L9.6745 10.9734C9.65172 10.9025 9.6416 10.8317 9.6416 10.7608C9.6416 10.7304 9.6416 10.7077 9.64666 10.6874C9.66691 10.5229 9.74788 10.3585 9.88706 10.1889C9.88706 10.1864 9.8896 10.1864 9.8896 10.1838C10.0769 9.97634 10.2793 9.81439 10.4944 9.69292C10.4944 9.69292 10.4969 9.69292 10.4995 9.69292C10.7272 9.57399 10.9423 9.61448 11.0916 9.78908C11.0916 9.78908 11.3978 10.156 11.5294 10.3357C11.6534 10.5052 11.8204 10.7735 11.9039 10.9228C12.0532 11.191 11.9596 11.4668 11.8128 11.5807L11.5167 11.8161C11.3674 11.9375 11.3877 12.1627 11.3877 12.1627C11.3877 12.1627 11.8255 13.8278 13.4703 14.2454Z" fill="white"/>
</svg>
