<svg width="26" height="26" viewBox="0 0 26 26" fill="none" xmlns="http://www.w3.org/2000/svg">
<rect width="26" height="26" rx="12.974" fill="#0DC143"/>
<path d="M17.7012 8.31824C16.547 7.13975 14.9515 6.5 13.3221 6.5C9.85954 6.5 7.07594 9.29471 7.10989 12.6955C7.10989 13.773 7.4154 14.8168 7.9246 15.7596L7.04199 18.9583L10.3348 18.1166C11.2513 18.6216 12.2697 18.8573 13.2881 18.8573C16.7167 18.8573 19.5003 16.0626 19.5003 12.6618C19.5003 11.0119 18.8553 9.46306 17.7012 8.31824ZM13.3221 17.8135C12.4055 17.8135 11.489 17.5778 10.7082 17.1064L10.5045 17.0054L8.53563 17.5105L9.04483 15.5912L8.90904 15.3892C7.4154 12.9985 8.12828 9.83345 10.5724 8.35191C13.0166 6.87038 16.1736 7.57748 17.6672 10.0018C19.1609 12.4261 18.448 15.5575 16.0038 17.0391C15.2231 17.5441 14.2726 17.8135 13.3221 17.8135ZM16.3094 14.076L15.936 13.9077C15.936 13.9077 15.3928 13.672 15.0533 13.5036C15.0194 13.5036 14.9855 13.4699 14.9515 13.4699C14.8497 13.4699 14.7818 13.5036 14.7139 13.5373C14.7139 13.5373 14.6799 13.5709 14.2047 14.1097C14.1707 14.177 14.1028 14.2107 14.035 14.2107H14.001C13.9671 14.2107 13.8992 14.177 13.8652 14.1434L13.6955 14.076C13.3221 13.9077 12.9826 13.7056 12.711 13.4363C12.6431 13.3689 12.5413 13.3016 12.4734 13.2342C12.2358 12.9985 11.9982 12.7292 11.8284 12.4261L11.7945 12.3588C11.7605 12.3251 11.7605 12.2914 11.7266 12.2241C11.7266 12.1568 11.7266 12.0894 11.7605 12.0557C11.7605 12.0557 11.8963 11.8874 11.9982 11.7864C12.0661 11.719 12.1 11.618 12.1679 11.5507C12.2358 11.4497 12.2697 11.315 12.2358 11.214C12.2018 11.0456 11.7945 10.1365 11.6927 9.93446C11.6248 9.83345 11.5569 9.79977 11.455 9.7661H11.3532C11.2853 9.7661 11.1835 9.7661 11.0816 9.7661C11.0137 9.7661 10.9458 9.79977 10.8779 9.79977L10.844 9.83345C10.7761 9.86712 10.7082 9.93446 10.6403 9.96813C10.5724 10.0355 10.5385 10.1028 10.4706 10.1702C10.233 10.4732 10.0972 10.8436 10.0972 11.214C10.0972 11.4833 10.1651 11.7527 10.2669 11.9884L10.3008 12.0894C10.6064 12.7292 11.0137 13.3016 11.5569 13.8066L11.6927 13.9413C11.7945 14.0423 11.8963 14.1097 11.9642 14.2107C12.6771 14.8168 13.4918 15.2545 14.4084 15.4902C14.5102 15.5239 14.646 15.5239 14.7478 15.5575C14.8497 15.5575 14.9855 15.5575 15.0873 15.5575C15.257 15.5575 15.4607 15.4902 15.5965 15.4229C15.6983 15.3555 15.7662 15.3555 15.8341 15.2882L15.902 15.2208C15.9699 15.1535 16.0378 15.1198 16.1057 15.0525C16.1736 14.9851 16.2415 14.9178 16.2754 14.8504C16.3433 14.7158 16.3773 14.5474 16.4112 14.3791C16.4112 14.3117 16.4112 14.2107 16.4112 14.1434C16.4112 14.1434 16.3773 14.1097 16.3094 14.076Z" fill="white"/>
</svg>
