<svg width="171" height="30" viewBox="0 0 171 30" fill="none" xmlns="http://www.w3.org/2000/svg">
<path d="M49.712 14.192C50.2027 14.448 50.5867 14.8 50.864 15.248C51.1413 15.696 51.28 16.2133 51.28 16.8C51.28 17.7173 50.9547 18.48 50.304 19.088C49.6533 19.696 48.8587 20 47.92 20H43.12V8.8H47.568C48.4853 8.8 49.2587 9.09867 49.888 9.696C50.528 10.2827 50.848 11.0187 50.848 11.904C50.848 12.8747 50.4693 13.6373 49.712 14.192ZM47.568 10.528H44.96V13.472H47.568C47.9733 13.472 48.3147 13.3333 48.592 13.056C48.8693 12.768 49.008 12.416 49.008 12C49.008 11.584 48.8693 11.2373 48.592 10.96C48.3147 10.672 47.9733 10.528 47.568 10.528ZM47.92 18.272C48.3467 18.272 48.704 18.1227 48.992 17.824C49.2907 17.5147 49.44 17.1413 49.44 16.704C49.44 16.2667 49.2907 15.8987 48.992 15.6C48.704 15.2907 48.3467 15.136 47.92 15.136H44.96V18.272H47.92ZM54.2118 16.736C54.3398 17.344 54.6331 17.8133 55.0918 18.144C55.5504 18.464 56.1104 18.624 56.7718 18.624C57.6891 18.624 58.3771 18.2933 58.8358 17.632L60.2598 18.464C59.4704 19.6267 58.3024 20.208 56.7558 20.208C55.4544 20.208 54.4038 19.8133 53.6038 19.024C52.8038 18.224 52.4038 17.216 52.4038 16C52.4038 14.8053 52.7984 13.808 53.5878 13.008C54.3771 12.1973 55.3904 11.792 56.6278 11.792C57.8011 11.792 58.7611 12.2027 59.5078 13.024C60.2651 13.8453 60.6438 14.8427 60.6438 16.016C60.6438 16.1973 60.6224 16.4373 60.5798 16.736H54.2118ZM54.1957 15.328H58.8998C58.7824 14.6773 58.5104 14.1867 58.0838 13.856C57.6678 13.5253 57.1771 13.36 56.6118 13.36C55.9718 13.36 55.4384 13.536 55.0118 13.888C54.5851 14.24 54.3131 14.72 54.1957 15.328ZM66.6923 11.792C67.7909 11.792 68.7296 12.2027 69.5083 13.024C70.2869 13.8347 70.6763 14.8267 70.6763 16C70.6763 17.184 70.2869 18.1813 69.5083 18.992C68.7296 19.8027 67.7909 20.208 66.6923 20.208C65.4763 20.208 64.5429 19.76 63.8923 18.864V23.2H62.1643V12H63.8923V13.152C64.5429 12.2453 65.4763 11.792 66.6923 11.792ZM64.6123 17.84C65.0923 18.32 65.6949 18.56 66.4203 18.56C67.1456 18.56 67.7483 18.32 68.2283 17.84C68.7083 17.3493 68.9483 16.736 68.9483 16C68.9483 15.264 68.7083 14.656 68.2283 14.176C67.7483 13.6853 67.1456 13.44 66.4203 13.44C65.6949 13.44 65.0923 13.6853 64.6123 14.176C64.1323 14.656 63.8923 15.264 63.8923 16C63.8923 16.736 64.1323 17.3493 64.6123 17.84ZM77.6344 12H79.3624V20H77.6344V16.816H73.9704V20H72.2424V12H73.9704V15.184H77.6344V12ZM86.7594 12H88.5994L85.5274 20.256C85.154 21.2693 84.6314 22.0267 83.9594 22.528C83.2874 23.0293 82.5087 23.2533 81.6234 23.2V21.584C82.1674 21.616 82.6047 21.504 82.9354 21.248C83.2767 21.0027 83.5487 20.6027 83.7514 20.048L83.7994 19.936L80.4394 12H82.2794L84.7114 17.824L86.7594 12ZM95.87 12V13.664H93.262V20H91.534V13.664H88.91V12H95.87ZM100.527 14.72C101.381 14.72 102.079 14.9653 102.623 15.456C103.167 15.936 103.439 16.5707 103.439 17.36C103.439 18.1387 103.167 18.7733 102.623 19.264C102.079 19.7547 101.381 20 100.527 20H97.0393V12H98.7673V14.72H100.527ZM100.543 18.448C100.885 18.448 101.167 18.3467 101.391 18.144C101.626 17.9413 101.743 17.68 101.743 17.36C101.743 17.0293 101.626 16.768 101.391 16.576C101.167 16.3733 100.885 16.272 100.543 16.272H98.7673V18.448H100.543ZM108.534 20.208C107.329 20.208 106.321 19.8027 105.51 18.992C104.71 18.1813 104.31 17.184 104.31 16C104.31 14.8053 104.71 13.808 105.51 13.008C106.321 12.1973 107.329 11.792 108.534 11.792C109.313 11.792 110.022 11.9787 110.662 12.352C111.302 12.7253 111.782 13.2267 112.102 13.856L110.614 14.72C110.433 14.336 110.155 14.0373 109.782 13.824C109.419 13.6 108.998 13.488 108.518 13.488C107.814 13.488 107.222 13.728 106.742 14.208C106.273 14.688 106.038 15.2853 106.038 16C106.038 16.7147 106.273 17.312 106.742 17.792C107.222 18.272 107.814 18.512 108.518 18.512C108.987 18.512 109.409 18.4 109.782 18.176C110.166 17.952 110.454 17.6533 110.646 17.28L112.134 18.128C111.793 18.768 111.302 19.2747 110.662 19.648C110.022 20.0213 109.313 20.208 108.534 20.208ZM119.466 12V20H117.77V17.312H116.81L114.778 20H112.746L114.906 17.152C114.351 16.9707 113.903 16.6507 113.562 16.192C113.231 15.7333 113.066 15.2213 113.066 14.656C113.066 13.92 113.327 13.296 113.85 12.784C114.383 12.2613 115.066 12 115.898 12H119.466ZM115.994 15.824H117.77V13.568H115.994C115.642 13.568 115.348 13.6693 115.114 13.872C114.879 14.0747 114.762 14.352 114.762 14.704C114.762 15.0453 114.879 15.3173 115.114 15.52C115.348 15.7227 115.642 15.824 115.994 15.824ZM130.869 12H132.597V20H130.869V16.816H127.205V20H125.477V12H127.205V15.184H130.869V12ZM140.938 12H142.666V20H140.938V18.848C140.287 19.7547 139.354 20.208 138.138 20.208C137.039 20.208 136.1 19.8027 135.322 18.992C134.543 18.1707 134.154 17.1733 134.154 16C134.154 14.816 134.543 13.8187 135.322 13.008C136.1 12.1973 137.039 11.792 138.138 11.792C139.354 11.792 140.287 12.24 140.938 13.136V12ZM136.602 17.84C137.082 18.32 137.684 18.56 138.41 18.56C139.135 18.56 139.738 18.32 140.218 17.84C140.698 17.3493 140.938 16.736 140.938 16C140.938 15.264 140.698 14.656 140.218 14.176C139.738 13.6853 139.135 13.44 138.41 13.44C137.684 13.44 137.082 13.6853 136.602 14.176C136.122 14.656 135.882 15.264 135.882 16C135.882 16.736 136.122 17.3493 136.602 17.84ZM149.176 15.904C150.029 16.288 150.456 16.9227 150.456 17.808C150.456 18.4907 150.179 19.0613 149.624 19.52C149.069 19.9787 148.296 20.208 147.304 20.208C145.693 20.208 144.605 19.568 144.04 18.288L145.448 17.456C145.736 18.256 146.36 18.656 147.32 18.656C147.768 18.656 148.12 18.5653 148.376 18.384C148.632 18.192 148.76 17.9413 148.76 17.632C148.76 17.3547 148.659 17.136 148.456 16.976C148.253 16.8053 147.971 16.72 147.608 16.72H146.472V15.2H147.32C147.672 15.2 147.944 15.12 148.136 14.96C148.339 14.7893 148.44 14.56 148.44 14.272C148.44 13.9947 148.328 13.7707 148.104 13.6C147.88 13.4187 147.581 13.328 147.208 13.328C146.408 13.328 145.853 13.68 145.544 14.384L144.136 13.584C144.733 12.3893 145.747 11.792 147.176 11.792C148.072 11.792 148.781 12.0213 149.304 12.48C149.837 12.928 150.104 13.4773 150.104 14.128C150.104 14.928 149.795 15.52 149.176 15.904ZM158.203 12H159.931V20H158.203V18.848C157.553 19.7547 156.619 20.208 155.403 20.208C154.305 20.208 153.366 19.8027 152.587 18.992C151.809 18.1707 151.419 17.1733 151.419 16C151.419 14.816 151.809 13.8187 152.587 13.008C153.366 12.1973 154.305 11.792 155.403 11.792C156.619 11.792 157.553 12.24 158.203 13.136V12ZM153.867 17.84C154.347 18.32 154.95 18.56 155.675 18.56C156.401 18.56 157.003 18.32 157.483 17.84C157.963 17.3493 158.203 16.736 158.203 16C158.203 15.264 157.963 14.656 157.483 14.176C157.003 13.6853 156.401 13.44 155.675 13.44C154.95 13.44 154.347 13.6853 153.867 14.176C153.387 14.656 153.147 15.264 153.147 16C153.147 16.736 153.387 17.3493 153.867 17.84ZM168.986 18.368H170.058V22.144H168.362V20H162.874V22.144H161.178V18.368H162.154C162.644 17.6747 162.89 16.7093 162.89 15.472V12H168.986V18.368ZM164.058 18.368H167.29V13.584H164.586V15.472C164.586 16.6133 164.41 17.5787 164.058 18.368Z" fill="#CB8734"/>
<circle cx="15" cy="15" r="14.25" transform="matrix(-1 0 0 1 30 0)" stroke="#CB8734" stroke-width="1.5"/>
<path d="M17 10L12 15L17 20" stroke="#CB8734" stroke-width="1.5" stroke-linecap="round" stroke-linejoin="round"/>
</svg>
