<svg width="62" height="63" viewBox="0 0 62 63" fill="none" xmlns="http://www.w3.org/2000/svg">
<rect opacity="0.58" width="62" height="62" fill="white"/>
<path d="M59.0695 21.6008L42.7789 31.3112C41.5762 32.0281 41.0945 33.503 41.5796 34.7693C40.8532 35.074 40.0403 35.0883 39.2957 34.8006L37.1883 33.9726C36.3476 33.6422 35.44 33.5846 34.564 33.8065L31.3351 34.6236C31.2099 34.6552 31.0872 34.6923 30.9672 34.7343C28.9946 33.6081 27.8195 33.2715 25.7379 34.0764L23.8691 34.7989C22.9859 35.1402 22.0122 35.0592 21.1957 34.5756L20.5714 34.2076C20.7505 33.0907 20.2492 31.9241 19.2212 31.3114L2.9306 21.6008C1.63889 20.8312 0 21.7602 0 23.2657V41.4507C0 42.7064 0.670013 43.8858 1.7486 44.5286L8.86142 48.7685C10.1845 49.5569 11.8853 49.1481 12.7088 47.8624L13.0129 48.0418L12.0906 49.3265C11.0605 50.7611 11.388 52.7559 12.8229 53.7862C13.5321 54.2954 14.3965 54.4874 15.2434 54.337C15.3731 55.194 15.8347 55.9484 16.5394 56.4543C17.2467 56.9621 18.1165 57.1532 18.9611 57.0034C19.0855 57.8261 19.5281 58.6 20.2559 59.1224C21.2365 59.8263 22.4524 59.8837 23.4394 59.4382C23.6566 60.0401 24.0495 60.5621 24.5804 60.9433C25.9596 61.9334 27.8722 61.6661 28.9298 60.3556L31.3189 61.771C31.8288 62.0731 32.3893 62.2167 32.9428 62.2167C34.0356 62.2167 35.1019 61.6568 35.6981 60.6502C35.9499 60.2253 36.0917 59.765 36.1319 59.3031L36.2249 59.3582C36.9596 59.7934 37.8198 59.9167 38.6467 59.7047C39.4739 59.4931 40.1691 58.9719 40.6041 58.2374C40.8732 57.7833 41.0229 57.2813 41.0481 56.7688C41.5804 56.9175 42.1449 56.9244 42.6948 56.7838C43.522 56.5722 44.2172 56.051 44.6523 55.3165C44.9055 54.8893 45.0531 54.4196 45.0904 53.9385C46.5401 54.5521 48.2604 54.0136 49.0842 52.6232C49.8077 51.4021 49.6223 49.8902 48.7306 48.8787L49.6669 48.3317C50.5547 49.2279 51.9836 49.4568 53.1388 48.7684L54.8584 47.7433C55.2893 47.4865 55.4304 46.929 55.1736 46.4982C54.9166 46.0671 54.3587 45.9263 53.9285 46.183L52.2089 47.2081C51.8035 47.4499 51.3099 47.3762 50.9918 47.0852C50.9859 47.0341 43.3515 34.2757 43.3515 34.2757C43.0639 33.7903 43.2243 33.1603 43.7089 32.8714L59.9995 23.161C60.0826 23.1121 60.1837 23.1704 60.1837 23.2656V41.4506C60.1837 42.0697 59.8532 42.6513 59.3215 42.9682L57.6045 43.9917C57.1736 44.2486 57.0325 44.8061 57.2893 45.2368C57.546 45.6678 58.1039 45.8084 58.5344 45.552L60.2514 44.5285C61.33 43.8856 62 42.7063 62 41.4506V23.2657C62.0001 21.7622 60.3628 20.8298 59.0695 21.6008ZM35.0095 35.5673C35.515 35.4394 36.0388 35.4726 36.5241 35.6632L38.6361 36.493C39.8967 36.9804 41.2734 36.9268 42.4744 36.3595L48.6671 46.8124L47.6636 47.3987C47.4812 47.5067 47.3063 47.6263 47.14 47.7569L33.8958 39.9137C33.615 39.7475 33.2666 39.7447 32.9833 39.9062C32.6999 40.0678 32.5249 40.3689 32.5249 40.6953V40.8778C32.5249 41.5238 32.2732 42.1312 31.8162 42.5879C31.3596 43.0443 30.7527 43.2954 30.1074 43.2954C30.0025 43.2915 29.9101 43.2074 29.91 43.098V38.7877C29.91 37.8486 30.4356 37.0104 31.2401 36.5906C31.28 36.5745 31.319 36.5554 31.3566 36.5337C31.4912 36.4721 31.633 36.422 31.7806 36.3846L35.0095 35.5673ZM10.5699 47.3212C10.3039 47.3885 10.0273 47.3489 9.79142 47.2081L2.6786 42.9683C2.14675 42.6513 1.81641 42.0698 1.81641 41.4507V23.2657C1.81641 23.2464 1.81641 23.1949 1.87805 23.1599C1.90105 23.1468 1.92176 23.1422 1.93944 23.1422C1.96899 23.1422 1.99018 23.1548 2.00059 23.161L18.2914 32.8714C18.776 33.1603 18.9364 33.7903 18.6487 34.2759L11.1995 46.8499C11.0596 47.086 10.836 47.2535 10.5699 47.3212ZM14.9101 52.5512C14.5465 52.6111 14.1816 52.5254 13.8821 52.3106C13.5829 52.0958 13.3851 51.7773 13.3254 51.4138C13.2657 51.0502 13.3511 50.6852 13.566 50.386L14.8617 48.581C14.8933 48.537 14.9273 48.4954 14.9629 48.4563C14.9897 48.4322 15.0153 48.4062 15.0395 48.3786C15.5102 47.9377 16.2434 47.8751 16.7867 48.265C17.4045 48.7086 17.5463 49.5721 17.1027 50.1899C17.102 50.1909 17.1013 50.192 17.1005 50.1929L15.8069 51.9948C15.5922 52.2939 15.2736 52.4915 14.9101 52.5512ZM17.5986 54.9787C17.2994 54.7639 17.1016 54.4454 17.0419 54.0819C16.9822 53.7182 17.0676 53.3532 17.2825 53.054L18.5782 51.2491C18.5782 51.2491 18.5782 51.249 18.5784 51.249L20.0082 49.2572C20.2231 48.9579 20.5415 48.7603 20.9052 48.7004C20.9809 48.688 21.0564 48.6819 21.1316 48.6819C21.4178 48.6819 21.696 48.7709 21.9331 48.9412C22.551 49.3846 22.6928 50.2481 22.2492 50.8661L19.5234 54.6629C19.0798 55.2806 18.2163 55.4219 17.5986 54.9787ZM22.3429 57.8874C21.9795 57.9471 21.6144 57.8616 21.3151 57.6468C20.6973 57.2033 20.5555 56.3398 20.999 55.722C20.9998 55.7209 21.0005 55.7199 21.0012 55.7188L23.7249 51.9251C24.1683 51.3071 25.0318 51.1657 25.6498 51.609C25.949 51.8238 26.1467 52.1423 26.2064 52.5059C26.2661 52.8695 26.1806 53.2346 25.9658 53.5338L23.24 57.3306C23.0251 57.6299 22.7065 57.8277 22.3429 57.8874ZM25.6396 59.4676C25.3404 59.2528 25.1426 58.9343 25.0829 58.5707C25.0232 58.2072 25.1086 57.8422 25.3235 57.543C25.3245 57.5416 25.3254 57.5404 25.3262 57.5391L26.2309 56.279C26.6748 55.6624 27.5374 55.5211 28.1547 55.9643C28.7725 56.4078 28.9143 57.2714 28.4708 57.8892L27.9525 58.6111C27.947 58.6184 27.9417 58.6259 27.9365 58.6334L27.5644 59.1518C27.1211 59.7694 26.2577 59.9113 25.6396 59.4676ZM47.5215 51.6974C47.1337 52.3519 46.2851 52.569 45.6311 52.1812L43.5315 50.9374C43.5305 50.9369 43.5297 50.9363 43.5287 50.9358L37.0259 47.0834C36.5942 46.8277 36.0372 46.9703 35.7817 47.4017C35.5261 47.8333 35.6685 48.3904 36.1001 48.646L42.6057 52.5001C42.6057 52.5001 42.6057 52.5001 42.6058 52.5003L42.6067 52.5007C43.2606 52.8888 43.4772 53.7365 43.0897 54.3908C42.9018 54.7079 42.6017 54.9329 42.2446 55.0242C41.8875 55.1155 41.5161 55.0626 41.199 54.8745L39.4875 53.8607C39.4861 53.8599 39.4849 53.8591 39.4834 53.8582C39.4826 53.8577 39.4816 53.8571 39.4808 53.8566L34.6902 51.0186C34.2585 50.7628 33.7015 50.9054 33.4459 51.3369C33.1903 51.7685 33.3327 52.3256 33.7643 52.5811L38.555 55.4193C38.556 55.42 38.5569 55.4206 38.5578 55.421C38.8748 55.6089 39.0999 55.9089 39.1912 56.266C39.2826 56.6231 39.2294 56.9945 39.0415 57.3117C38.8537 57.6288 38.5537 57.8538 38.1964 57.9451C37.8395 58.0366 37.4679 57.9834 37.1509 57.7956L34.5824 56.2739C34.5807 56.2729 34.5791 56.2719 34.5775 56.2709L32.6991 55.1581C32.2678 54.9028 31.7106 55.045 31.4549 55.4767C31.1994 55.9082 31.3418 56.4654 31.7735 56.721L33.6518 57.8337L33.6543 57.8352C34.3071 58.2236 34.5232 59.0705 34.1359 59.7244C33.7478 60.379 32.8997 60.5959 32.2453 60.2084L29.997 58.8765C30.9632 57.4506 30.6221 55.4993 29.2145 54.4886C28.7843 54.1798 28.3027 53.9936 27.8115 53.9229C28.0288 53.3858 28.0954 52.798 27.9991 52.2118C27.8608 51.3695 27.4027 50.6314 26.7093 50.1336C25.9817 49.6113 25.1069 49.4394 24.2876 49.5846C24.1632 48.7618 23.7206 47.9879 22.9928 47.4655C22.2993 46.9677 21.4539 46.7698 20.6113 46.908C19.9077 47.0235 19.2771 47.3621 18.7983 47.8746C18.5752 47.4573 18.2559 47.0835 17.8463 46.7893C16.761 46.0102 15.3483 46.0107 14.2805 46.6807L13.6365 46.3006L19.8157 35.8704L20.272 36.1394C21.0394 36.5941 21.8954 36.8248 22.7578 36.8248C23.3527 36.8248 23.9507 36.7149 24.5246 36.4931L26.3933 35.7706C27.5104 35.3391 28.1103 35.3186 29.2381 35.8673C28.5211 36.6409 28.0939 37.6733 28.0939 38.7877V43.098C28.0939 44.2076 28.996 45.111 30.1048 45.1118H30.1076C31.238 45.1118 32.3009 44.6718 33.1006 43.8727C33.5859 43.3877 33.939 42.8056 34.1418 42.1703L46.7918 49.6614C46.8336 49.6863 46.8767 49.7072 46.9208 49.7247C46.9571 49.7547 46.9961 49.7823 47.038 49.8071C47.6921 50.1949 47.9093 51.0429 47.5215 51.6974Z" fill="#CB8734"/>
<path d="M20.589 24.6646H41.4105C43.2957 24.6646 44.8294 23.1309 44.8294 21.2457V8.85755C44.8294 6.97236 43.2957 5.4387 41.4105 5.4387H36.3982V3.99962C36.3982 2.34572 35.0528 1 33.3991 1H28.6002C26.9466 1 25.6011 2.3456 25.6011 3.99962V5.4387H20.5888C18.7036 5.4387 17.1699 6.97236 17.1699 8.85755V15.6818C17.1699 16.1835 17.5766 16.59 18.0781 16.59C18.5797 16.59 18.9863 16.1835 18.9863 15.6818V13.9939C19.9529 14.8613 21.2297 15.3896 22.6275 15.3896H23.3383V16.3886C23.3383 16.8903 23.745 17.2968 24.2465 17.2968C24.7481 17.2968 25.1547 16.8903 25.1547 16.3886V15.3896H36.8443V16.3886C36.8443 16.8903 37.2508 17.2968 37.7525 17.2968C38.2542 17.2968 38.6607 16.8903 38.6607 16.3886V15.3896H39.3714C40.7693 15.3896 42.0461 14.8613 43.0127 13.9939V21.2456C43.0127 22.1292 42.2938 22.848 41.4103 22.848H20.589C19.7054 22.848 18.9866 22.1291 18.9866 21.2456V19.9276C18.9866 19.4259 18.5799 19.0194 18.0784 19.0194C17.5768 19.0194 17.1702 19.4259 17.1702 19.9276V21.2456C17.1702 23.1309 18.7038 24.6646 20.589 24.6646ZM27.4177 3.99962C27.4177 3.34716 27.9483 2.81641 28.6005 2.81641H33.3993C34.0515 2.81641 34.582 3.34716 34.582 3.99962V5.4387H27.4179V3.99962H27.4177ZM39.3718 13.5732H38.6611V12.5742C38.6611 12.0725 38.2546 11.666 37.7529 11.666C37.2512 11.666 36.8447 12.0725 36.8447 12.5742V13.5732H25.1551V12.5742C25.1551 12.0725 24.7485 11.666 24.2469 11.666C23.7453 11.666 23.3387 12.0725 23.3387 12.5742V13.5732H22.6279C20.6201 13.5732 18.9867 11.9398 18.9867 9.93201V8.85755C18.9867 7.97392 19.7055 7.25511 20.5891 7.25511H41.4106C42.2943 7.25511 43.0131 7.97405 43.0131 8.85755V9.93201C43.0131 11.9398 41.3796 13.5732 39.3718 13.5732Z" fill="#CB8734"/>
</svg>
