<svg width="62" height="62" viewBox="0 0 62 62" fill="none" xmlns="http://www.w3.org/2000/svg">
<rect opacity="0.58" width="62" height="62" fill="white"/>
<path d="M56.8311 0.0996094C58.1743 0.101218 59.4623 0.63612 60.4121 1.58594C61.3024 2.47628 61.828 3.6635 61.8916 4.91504L61.8975 5.16699V9.2998C61.8974 9.54726 61.799 9.78498 61.624 9.95996C61.4491 10.1347 61.212 10.2323 60.9648 10.2324H53.6318V16.9385C53.6318 17.1859 53.5333 17.4236 53.3584 17.5986C53.1834 17.7736 52.9457 17.872 52.6982 17.8721C52.4507 17.8721 52.2131 17.7737 52.0381 17.5986C51.8631 17.4236 51.7646 17.186 51.7646 16.9385V5.16699C51.7684 4.06733 52.1342 2.99957 52.8047 2.12793L52.9277 1.9668H13.4326C12.5841 1.96691 11.7699 2.30333 11.1699 2.90332C10.5699 3.50331 10.2335 4.31751 10.2334 5.16602V23.4219C10.2333 23.6692 10.1347 23.9061 9.95996 24.0811C9.78494 24.2561 9.54733 24.3545 9.2998 24.3545C9.05231 24.3545 8.81465 24.2561 8.63965 24.0811C8.46493 23.9061 8.36629 23.6691 8.36621 23.4219V5.16699C8.36782 3.82375 8.90272 2.53576 9.85254 1.58594C10.7429 0.695575 11.93 0.17004 13.1816 0.106445L13.4336 0.0996094H56.8311ZM56.8311 1.9668C55.9825 1.96685 55.1684 2.30335 54.5684 2.90332C53.9684 3.50331 53.632 4.31751 53.6318 5.16602V8.36621H60.0312V5.16602C60.0311 4.31751 59.6937 3.50331 59.0938 2.90332C58.4937 2.30342 57.6796 1.9668 56.8311 1.9668Z" fill="#CB8734" stroke="white" stroke-width="0.2"/>
<path d="M52.6987 41.8379C52.9459 41.838 53.183 41.9366 53.3579 42.1113C53.5329 42.2863 53.6313 42.524 53.6313 42.7715V56.833C53.6296 58.176 53.0956 59.4634 52.146 60.4131C51.1962 61.3629 49.9082 61.8978 48.5649 61.8994H5.16748C3.82424 61.8978 2.53624 61.3629 1.58643 60.4131C0.636612 59.4633 0.101707 58.1753 0.100098 56.832V54.7656C0.100199 54.5184 0.198813 54.2813 0.373535 54.1064C0.54854 53.9314 0.786199 53.833 1.03369 53.833H44.4321C44.6796 53.8331 44.9173 53.9315 45.0923 54.1064C45.267 54.2813 45.3656 54.5184 45.3657 54.7656V56.833C45.3658 57.6815 45.7023 58.4957 46.3022 59.0957C46.9023 59.6957 47.7164 60.0322 48.5649 60.0322C49.4135 60.0322 50.2276 59.6956 50.8276 59.0957C51.4276 58.4957 51.765 57.6815 51.7651 56.833V42.7715C51.7652 42.524 51.8636 42.2863 52.0386 42.1113C52.2136 41.9365 52.4513 41.8379 52.6987 41.8379ZM1.96729 56.833C1.9674 57.6815 2.30382 58.4957 2.90381 59.0957C3.5038 59.6957 4.318 60.0321 5.1665 60.0322H44.6323L44.5122 59.8721C43.8533 58.9959 43.4971 57.9293 43.4985 56.833V55.6992H1.96729V56.833Z" fill="#CB8734" stroke="white" stroke-width="0.2"/>
<path d="M13.4326 24.9004C13.617 24.9004 13.7978 24.9553 13.9512 25.0576L26.3506 33.3242C26.517 33.4353 26.6433 33.5968 26.7109 33.7852C26.7785 33.9737 26.7837 34.1794 26.7256 34.3711C26.6675 34.5628 26.5495 34.7313 26.3887 34.8506C26.2278 34.9698 26.0322 35.0342 25.832 35.0342H22.6328V48.5664C22.6328 48.8139 22.5344 49.0515 22.3594 49.2266C22.1843 49.4016 21.9467 49.5 21.6992 49.5H5.16699C4.91949 49.5 4.68186 49.4016 4.50684 49.2266C4.33181 49.0515 4.2334 48.8139 4.2334 48.5664V38.2334C4.23348 37.9861 4.332 37.7492 4.50684 37.5742C4.68186 37.3992 4.91947 37.3008 5.16699 37.3008C5.4144 37.3009 5.65122 37.3993 5.82617 37.5742C6.00112 37.7492 6.09953 37.986 6.09961 38.2334V47.6338H9.39941V42.3672C9.39941 41.5717 9.71593 40.8086 10.2783 40.2461C10.8408 39.6836 11.6039 39.3673 12.3994 39.3672H14.4658C15.2614 39.3672 16.0253 39.6835 16.5879 40.2461C17.1502 40.8086 17.4658 41.5718 17.4658 42.3672V47.6338H20.7656V35.0342H1.0332C0.833149 35.0342 0.638274 34.9697 0.477539 34.8506C0.31665 34.7312 0.197727 34.5628 0.139648 34.3711C0.0816231 34.1794 0.086707 33.9737 0.154297 33.7852C0.221923 33.5967 0.349024 33.4353 0.515625 33.3242L12.915 25.0576C13.0683 24.9554 13.2484 24.9005 13.4326 24.9004ZM12.3994 41.2334C12.099 41.2335 11.8111 41.3531 11.5986 41.5654C11.3861 41.778 11.2666 42.0666 11.2666 42.3672V47.6338H15.5996V42.3672C15.5996 42.0666 15.4801 41.778 15.2676 41.5654C15.0551 41.3529 14.7663 41.2334 14.4658 41.2334H12.3994ZM13.3779 26.9912L4.3877 32.9844L4.11328 33.167H22.7529L22.4785 32.9844L13.4883 26.9912L13.4326 26.9541L13.3779 26.9912Z" fill="#CB8734" stroke="white" stroke-width="0.2"/>
<path d="M59.2881 15.6221C59.6788 15.6735 60.0562 15.8009 60.3975 15.998C60.739 16.1949 61.0391 16.4579 61.2793 16.7705C61.5193 17.083 61.6957 17.4397 61.7979 17.8203C61.9 18.2011 61.9255 18.5984 61.874 18.9893C61.8226 19.3801 61.6952 19.7573 61.498 20.0986L59.9473 22.7852L59.8975 22.8711L59.9844 22.9209C60.0906 22.9823 60.1832 23.0647 60.2578 23.1621C60.3324 23.2596 60.3874 23.3707 60.4189 23.4893C60.4505 23.6078 60.4587 23.7319 60.4424 23.8535C60.4302 23.9445 60.4041 24.033 60.3662 24.1162L60.3242 24.1982L58.7734 26.8848L58.7236 26.9717L58.8105 27.0215L59.7051 27.5381H59.7061C59.8131 27.5989 59.907 27.681 59.9824 27.7783C60.0577 27.8755 60.1133 27.9868 60.1455 28.1055C60.1777 28.2241 60.1857 28.3479 60.1699 28.4697C60.1541 28.5918 60.1143 28.7098 60.0527 28.8164C59.9912 28.9229 59.9092 29.0161 59.8115 29.0908C59.7138 29.1655 59.6023 29.2205 59.4834 29.252C59.3644 29.2834 59.2401 29.2911 59.1182 29.2744C58.9962 29.2577 58.8786 29.2175 58.7725 29.1553V29.1543L57.877 28.6377L57.791 28.5879L57.7402 28.6748L55.4287 32.6885C55.3049 32.903 55.1015 33.0599 54.8623 33.124C54.6231 33.1882 54.3678 33.155 54.1533 33.0312C53.9389 32.9075 53.7829 32.703 53.7188 32.4639C53.6547 32.2248 53.6879 31.9702 53.8115 31.7559L56.1318 27.7383L56.1816 27.6514L56.0947 27.6016L52.5166 25.5352L52.4297 25.4854L52.3799 25.5713L43.0801 41.6787L43.0303 41.7646L43.1172 41.8154L44.9062 42.8486L46.6963 43.8818L46.7832 43.9316L46.833 43.8447L51.7451 35.335C51.8688 35.1206 52.0725 34.9636 52.3115 34.8994C52.5507 34.8353 52.806 34.8694 53.0205 34.9932C53.2349 35.1169 53.3919 35.3204 53.4561 35.5596C53.5202 35.7988 53.4861 36.0541 53.3623 36.2686L47.9326 45.6709C47.9299 45.6757 47.9255 45.6813 47.916 45.6924C47.908 45.7018 47.8935 45.7187 47.8809 45.7373L47.8799 45.7383C47.8544 45.7768 47.8251 45.8126 47.7939 45.8467L47.7129 45.917L47.7031 45.9268C47.6827 45.947 47.6606 45.966 47.6377 45.9834L44.6416 47.9609H44.6406C44.2167 48.2421 43.7196 48.3919 43.2109 48.3936C43.1003 48.3858 42.9897 48.3719 42.8809 48.3506L42.8115 48.3369L42.7754 48.3994L42.1455 49.4902C42.0217 49.7047 41.8173 49.8616 41.5781 49.9258C41.3391 49.9898 41.0845 49.9557 40.8701 49.832C40.6557 49.7083 40.4987 49.5047 40.4346 49.2656C40.3704 49.0264 40.4036 48.7711 40.5273 48.5566L41.1592 47.4639L41.1924 47.4053L41.1514 47.3516C40.7678 46.8621 40.574 46.2509 40.6055 45.6299L40.8096 42.0596C40.811 42.055 40.8127 42.0484 40.8145 42.04C40.8162 42.0315 40.8175 42.0219 40.8184 42.0117C40.8186 42.0091 40.8194 42.0055 40.8232 41.9902C40.8255 41.9812 40.8273 41.9651 40.8291 41.9463L40.8311 41.9473C40.8485 41.8546 40.8795 41.7649 40.9238 41.6816L40.9248 41.6797C40.93 41.6693 40.9336 41.6591 40.9355 41.6523C40.9373 41.6463 40.9379 41.64 40.9385 41.6377L50.752 24.6426L50.8018 24.5557L50.7158 24.5059L49.8203 23.9893C49.5602 23.839 49.2511 23.7984 48.9609 23.876C48.7071 23.9438 48.4861 24.0972 48.334 24.3086L48.2725 24.4033L44.1396 31.5625C44.0159 31.777 43.8114 31.9339 43.5723 31.998C43.3332 32.0621 43.0786 32.028 42.8643 31.9043C42.6498 31.7805 42.4929 31.5771 42.4287 31.3379C42.3646 31.0987 42.3977 30.8434 42.5215 30.6289L46.6553 23.4697C46.8521 23.1281 47.1141 22.8281 47.4268 22.5879C47.7393 22.3478 48.0969 22.1724 48.4775 22.0703C48.8581 21.9683 49.2549 21.9418 49.6455 21.9932C50.0363 22.0446 50.4136 22.172 50.7549 22.3691V22.3701L51.6494 22.8867L51.7363 22.9365L51.7861 22.8496L53.3359 20.1631C53.4597 19.9487 53.6642 19.7926 53.9033 19.7285C54.1423 19.6645 54.397 19.6976 54.6113 19.8213L54.6982 19.8711L54.748 19.7852L56.2979 17.0986C56.4947 16.757 56.7567 16.457 57.0693 16.2168C57.3819 15.9766 57.7394 15.8004 58.1201 15.6982C58.5006 15.5962 58.8975 15.5707 59.2881 15.6221ZM42.5781 43.8291L42.4629 45.7412C42.4548 45.8781 42.4848 46.015 42.5498 46.1357C42.6148 46.2564 42.7124 46.3562 42.8311 46.4248C42.9497 46.4934 43.0847 46.5283 43.2217 46.5244C43.3588 46.5205 43.4928 46.4787 43.6074 46.4033L45.21 45.3467L45.3457 45.2578L45.2051 45.1768L42.7285 43.749L42.5879 43.668L42.5781 43.8291ZM54.4385 21.9902L53.4053 23.7803L53.3545 23.8662L53.4414 23.916L57.0195 25.9834L57.1064 26.0332L57.1562 25.9463L58.1895 24.1572L58.2393 24.0703L58.1533 24.0205L54.5752 21.9531L54.4883 21.9033L54.4385 21.9902ZM59.4639 17.6182C59.2037 17.4678 58.8938 17.4263 58.6035 17.5039C58.3133 17.5815 58.0655 17.7713 57.915 18.0312L56.3643 20.7178L56.3145 20.8047L56.4014 20.8545L57.2969 21.3711L58.1914 21.8877L58.2783 21.9385L58.3281 21.8516L59.8779 19.165C60.0278 18.9049 60.0689 18.5957 59.9912 18.3057C59.9135 18.0158 59.7236 17.7685 59.4639 17.6182Z" fill="#CB8734" stroke="white" stroke-width="0.2"/>
<path d="M21.6992 6.29883H40.2988C40.5461 6.29891 40.7831 6.39755 40.958 6.57227C41.133 6.74727 41.2314 6.98493 41.2314 7.23242V11.3652C41.2314 11.6128 41.133 11.8504 40.958 12.0254C40.7831 12.2003 40.5462 12.2987 40.2988 12.2988H21.6992C21.4517 12.2988 21.2141 12.2004 21.0391 12.0254C20.8642 11.8504 20.7656 11.6126 20.7656 11.3652V7.23242C20.7656 6.98493 20.8641 6.74727 21.0391 6.57227C21.2141 6.39726 21.4517 6.29885 21.6992 6.29883ZM22.6328 10.4326H39.3652V8.16602H22.6328V10.4326Z" fill="#CB8734" stroke="white" stroke-width="0.2"/>
<path d="M21.6992 18.0996H40.2988C40.5461 18.0997 40.7831 18.1983 40.958 18.373C41.133 18.5481 41.2314 18.7857 41.2314 19.0332C41.2314 19.2807 41.133 19.5183 40.958 19.6934C40.7831 19.8681 40.5461 19.9667 40.2988 19.9668H21.6992C21.4517 19.9668 21.2141 19.8684 21.0391 19.6934C20.8641 19.5183 20.7656 19.2807 20.7656 19.0332C20.7656 18.7857 20.8641 18.5481 21.0391 18.373C21.2141 18.198 21.4517 18.0996 21.6992 18.0996Z" fill="#CB8734" stroke="white" stroke-width="0.2"/>
<path d="M21.6992 24.0996H41.332C41.5795 24.0997 41.8172 24.1981 41.9922 24.373C42.1672 24.548 42.2646 24.7857 42.2646 25.0332C42.2646 25.2807 42.1671 25.5183 41.9922 25.6934C41.8172 25.8683 41.5795 25.9667 41.332 25.9668H21.6992C21.4517 25.9668 21.2141 25.8684 21.0391 25.6934C20.8641 25.5183 20.7656 25.2807 20.7656 25.0332C20.7656 24.7857 20.8641 24.5481 21.0391 24.373C21.2141 24.198 21.4517 24.0996 21.6992 24.0996Z" fill="#CB8734" stroke="white" stroke-width="0.2"/>
<path d="M29.9658 31.0996H39.2656C39.5131 31.0996 39.7508 31.198 39.9258 31.373C40.1008 31.5481 40.1992 31.7857 40.1992 32.0332C40.1992 32.2807 40.1007 32.5183 39.9258 32.6934C39.7508 32.8684 39.5131 32.9668 39.2656 32.9668H29.9658C29.7183 32.9668 29.4807 32.8684 29.3057 32.6934C29.1307 32.5183 29.0322 32.2807 29.0322 32.0332C29.0322 31.7857 29.1307 31.5481 29.3057 31.373C29.4807 31.198 29.7183 31.0996 29.9658 31.0996Z" fill="#CB8734" stroke="white" stroke-width="0.2"/>
<path d="M25.8325 37.2988H39.2651C39.5126 37.2988 39.7503 37.3973 39.9253 37.5723C40.1003 37.7473 40.1987 37.9849 40.1987 38.2324C40.1987 38.4799 40.1003 38.7176 39.9253 38.8926C39.7503 39.0676 39.5126 39.166 39.2651 39.166H25.8325C25.585 39.166 25.3474 39.0676 25.1724 38.8926C24.9974 38.7176 24.8989 38.4799 24.8989 38.2324C24.8989 37.9849 24.9974 37.7473 25.1724 37.5723C25.3474 37.3973 25.585 37.2989 25.8325 37.2988Z" fill="#CB8734" stroke="white" stroke-width="0.2"/>
<path d="M27.8989 44.0996H35.1323C35.3796 44.0997 35.6166 44.1983 35.7915 44.373C35.9665 44.5481 36.0649 44.7857 36.0649 45.0332C36.0649 45.2807 35.9665 45.5183 35.7915 45.6934C35.6166 45.8681 35.3796 45.9667 35.1323 45.9668H27.8989C27.6514 45.9668 27.4138 45.8684 27.2388 45.6934C27.0638 45.5183 26.9653 45.2807 26.9653 45.0332C26.9654 44.7857 27.0638 44.5481 27.2388 44.373C27.4138 44.198 27.6514 44.0996 27.8989 44.0996Z" fill="#CB8734" stroke="white" stroke-width="0.2"/>
</svg>
