<svg width="71" height="71" viewBox="0 0 71 71" fill="none" xmlns="http://www.w3.org/2000/svg">
<rect width="71" height="71" fill="white"/>
<path d="M62.4897 36.5674C62.7048 36.5674 62.911 36.6527 63.063 36.8047C63.215 36.9567 63.3003 37.1629 63.3003 37.3779V39.6377C63.3002 39.8525 63.2149 40.059 63.063 40.2109C62.911 40.3628 62.7046 40.4482 62.4897 40.4482C62.2748 40.4482 62.0685 40.3628 61.9165 40.2109C61.7646 40.059 61.6793 39.8525 61.6792 39.6377V37.3779C61.6792 37.1629 61.7645 36.9567 61.9165 36.8047C62.0685 36.6526 62.2747 36.5674 62.4897 36.5674Z" fill="#CB8734" stroke="#CB8734" stroke-width="0.1"/>
<path d="M60.207 8.8252C61.0273 8.8252 61.8145 9.15045 62.3945 9.73047C62.9746 10.3105 63.2998 11.0977 63.2998 11.918V24.5156C63.2997 24.7305 63.2145 24.9369 63.0625 25.0889C62.9105 25.2408 62.7042 25.3262 62.4893 25.3262C62.2743 25.3262 62.068 25.2408 61.916 25.0889C61.7641 24.9369 61.6788 24.7305 61.6787 24.5156V11.918C61.6787 11.5277 61.524 11.1529 61.248 10.877C60.9721 10.601 60.5973 10.4463 60.207 10.4463H13.043C12.6527 10.4463 12.2779 10.601 12.002 10.877C11.726 11.1529 11.5713 11.5277 11.5713 11.918V59.082C11.5713 59.4723 11.726 59.8471 12.002 60.123C12.2779 60.399 12.6527 60.5537 13.043 60.5537H60.207C60.5973 60.5537 60.9721 60.399 61.248 60.123C61.524 59.8471 61.6787 59.4723 61.6787 59.082V44.9629C61.6788 44.748 61.7641 44.5416 61.916 44.3896C62.068 44.2377 62.2743 44.1524 62.4893 44.1523C62.7042 44.1523 62.9105 44.2377 63.0625 44.3896C63.2144 44.5416 63.2997 44.748 63.2998 44.9629V59.082C63.2998 59.9023 62.9746 60.6895 62.3945 61.2695C61.8145 61.8496 61.0273 62.1748 60.207 62.1748H13.043C12.2227 62.1748 11.4355 61.8496 10.8555 61.2695C10.2754 60.6895 9.9502 59.9023 9.9502 59.082V11.918C9.9502 11.0977 10.2754 10.3105 10.8555 9.73047C11.4355 9.15045 12.2227 8.8252 13.043 8.8252H60.207Z" fill="#CB8734" stroke="#CB8734" stroke-width="0.1"/>
<path d="M62.4897 29.0283C62.7048 29.0283 62.911 29.1136 63.063 29.2656C63.215 29.4177 63.3003 29.6239 63.3003 29.8389V32.0527C63.3002 32.2677 63.215 32.474 63.063 32.626C62.911 32.7779 62.7047 32.8633 62.4897 32.8633C62.2748 32.8633 62.0685 32.7779 61.9165 32.626C61.7645 32.474 61.6793 32.2677 61.6792 32.0527V29.8389C61.6792 29.6239 61.7645 29.4177 61.9165 29.2656C62.0685 29.1136 62.2747 29.0283 62.4897 29.0283Z" fill="#CB8734" stroke="#CB8734" stroke-width="0.1"/>
<mask id="path-5-outside-1_3995_2563" maskUnits="userSpaceOnUse" x="37.429" y="16.2722" width="24.0416" height="24.0416" fill="black">
<rect fill="white" x="37.429" y="16.2722" width="24.0416" height="24.0416"/>
<path fill-rule="evenodd" clip-rule="evenodd" d="M54.3688 24.5692C54.5706 24.5692 54.7641 24.489 54.9067 24.3464C55.0494 24.2037 55.1295 24.0102 55.1295 23.8085C55.1295 23.6067 55.0494 23.4132 54.9067 23.2706L49.9241 18.2879C49.7814 18.1453 49.5879 18.0651 49.3862 18.0651C49.1844 18.0651 48.9909 18.1453 48.8483 18.2879L43.8657 23.2706C43.723 23.4132 43.6429 23.6067 43.6429 23.8085C43.6429 24.0102 43.723 24.2037 43.8657 24.3464C44.0083 24.489 44.2018 24.5692 44.4036 24.5692C44.6053 24.5692 44.7988 24.489 44.9415 24.3464L48.6258 20.6621L48.6258 37.7605C48.6258 37.911 48.6705 38.058 48.754 38.1831C48.8376 38.3082 48.9564 38.4056 49.0954 38.4632C49.2344 38.5208 49.3873 38.5359 49.5348 38.5065C49.6824 38.4772 49.8179 38.4048 49.9243 38.2984C50.0669 38.1558 50.147 37.9623 50.147 37.7605L50.147 20.6625L53.8309 24.3464C53.9736 24.489 54.1671 24.5692 54.3688 24.5692Z"/>
</mask>
<path fill-rule="evenodd" clip-rule="evenodd" d="M54.3688 24.5692C54.5706 24.5692 54.7641 24.489 54.9067 24.3464C55.0494 24.2037 55.1295 24.0102 55.1295 23.8085C55.1295 23.6067 55.0494 23.4132 54.9067 23.2706L49.9241 18.2879C49.7814 18.1453 49.5879 18.0651 49.3862 18.0651C49.1844 18.0651 48.9909 18.1453 48.8483 18.2879L43.8657 23.2706C43.723 23.4132 43.6429 23.6067 43.6429 23.8085C43.6429 24.0102 43.723 24.2037 43.8657 24.3464C44.0083 24.489 44.2018 24.5692 44.4036 24.5692C44.6053 24.5692 44.7988 24.489 44.9415 24.3464L48.6258 20.6621L48.6258 37.7605C48.6258 37.911 48.6705 38.058 48.754 38.1831C48.8376 38.3082 48.9564 38.4056 49.0954 38.4632C49.2344 38.5208 49.3873 38.5359 49.5348 38.5065C49.6824 38.4772 49.8179 38.4048 49.9243 38.2984C50.0669 38.1558 50.147 37.9623 50.147 37.7605L50.147 20.6625L53.8309 24.3464C53.9736 24.489 54.1671 24.5692 54.3688 24.5692Z" fill="#CB8734"/>
<path d="M54.9067 23.2706L54.836 23.3413L54.9067 23.2706ZM49.9241 18.2879L49.9948 18.2172L49.9241 18.2879ZM49.3862 18.0651L49.3862 17.9651L49.3862 17.9651L49.3862 18.0651ZM48.8483 18.2879L48.7776 18.2172L48.8483 18.2879ZM43.8657 23.2706L43.9364 23.3413L43.8657 23.2706ZM43.6429 23.8085L43.5429 23.8085L43.6429 23.8085ZM44.4036 24.5692V24.4692V24.5692ZM48.6258 20.6621L48.7258 20.662L48.7258 20.4206L48.5551 20.5913L48.6258 20.6621ZM48.6258 37.7605L48.5258 37.7605L48.5258 37.7605L48.6258 37.7605ZM48.754 38.1831L48.6709 38.2386L48.6709 38.2386L48.754 38.1831ZM49.0954 38.4632L49.0571 38.5556L49.0571 38.5556L49.0954 38.4632ZM49.5348 38.5065L49.5543 38.6046L49.5348 38.5065ZM49.9243 38.2984L49.995 38.3692L49.995 38.3691L49.9243 38.2984ZM50.147 37.7605L50.047 37.7605L50.047 37.7605L50.147 37.7605ZM50.147 20.6625L50.2177 20.5918L50.047 20.4211L50.047 20.6625L50.147 20.6625ZM53.8309 24.3464L53.7602 24.4171L53.8309 24.3464ZM54.9067 24.3464L54.836 24.2757C54.7121 24.3996 54.544 24.4692 54.3688 24.4692V24.5692V24.6692C54.5971 24.6692 54.816 24.5785 54.9774 24.4171L54.9067 24.3464ZM55.1295 23.8085H55.0295C55.0295 23.9837 54.9599 24.1518 54.836 24.2757L54.9067 24.3464L54.9774 24.4171C55.1388 24.2557 55.2295 24.0368 55.2295 23.8085H55.1295ZM54.9067 23.2706L54.836 23.3413C54.9599 23.4652 55.0295 23.6332 55.0295 23.8085H55.1295H55.2295C55.2295 23.5802 55.1388 23.3613 54.9774 23.1999L54.9067 23.2706ZM49.9241 18.2879L49.8534 18.3587L54.836 23.3413L54.9067 23.2706L54.9774 23.1999L49.9948 18.2172L49.9241 18.2879ZM49.3862 18.0651L49.3862 18.1651C49.5614 18.1651 49.7295 18.2347 49.8534 18.3587L49.9241 18.2879L49.9948 18.2172C49.8334 18.0558 49.6145 17.9651 49.3862 17.9651L49.3862 18.0651ZM48.8483 18.2879L48.919 18.3587C49.0429 18.2347 49.211 18.1651 49.3862 18.1651L49.3862 18.0651L49.3862 17.9651C49.1579 17.9651 48.939 18.0558 48.7776 18.2172L48.8483 18.2879ZM43.8657 23.2706L43.9364 23.3413L48.919 18.3587L48.8483 18.2879L48.7776 18.2172L43.7949 23.1999L43.8657 23.2706ZM43.6429 23.8085L43.7429 23.8085C43.7429 23.6332 43.8125 23.4652 43.9364 23.3413L43.8657 23.2706L43.7949 23.1999C43.6335 23.3613 43.5429 23.5802 43.5429 23.8085L43.6429 23.8085ZM43.8657 24.3464L43.9364 24.2757C43.8125 24.1518 43.7429 23.9837 43.7429 23.8085H43.6429L43.5429 23.8085C43.5429 24.0368 43.6335 24.2557 43.7949 24.4171L43.8657 24.3464ZM44.4036 24.5692V24.4692C44.2283 24.4692 44.0603 24.3996 43.9364 24.2757L43.8657 24.3464L43.7949 24.4171C43.9564 24.5785 44.1753 24.6692 44.4036 24.6692V24.5692ZM44.9415 24.3464L44.8708 24.2757C44.7469 24.3996 44.5788 24.4692 44.4036 24.4692V24.5692V24.6692C44.6318 24.6692 44.8508 24.5785 45.0122 24.4171L44.9415 24.3464ZM48.6258 20.6621L48.5551 20.5913L44.8708 24.2757L44.9415 24.3464L45.0122 24.4171L48.6965 20.7328L48.6258 20.6621ZM48.6258 37.7605L48.7258 37.7605L48.7258 20.662L48.6258 20.6621L48.5258 20.6621L48.5258 37.7605L48.6258 37.7605ZM48.754 38.1831L48.8372 38.1275C48.7646 38.0189 48.7258 37.8912 48.7258 37.7605L48.6258 37.7605L48.5258 37.7605C48.5258 37.9308 48.5763 38.0971 48.6709 38.2386L48.754 38.1831ZM49.0954 38.4632L49.1337 38.3708C49.0129 38.3208 48.9098 38.2362 48.8372 38.1275L48.754 38.1831L48.6709 38.2386C48.7655 38.3802 48.8999 38.4905 49.0571 38.5556L49.0954 38.4632ZM49.5348 38.5065L49.5153 38.4084C49.3872 38.4339 49.2544 38.4208 49.1337 38.3708L49.0954 38.4632L49.0571 38.5556C49.2144 38.6207 49.3874 38.6378 49.5543 38.6046L49.5348 38.5065ZM49.9243 38.2984L49.8536 38.2277C49.7612 38.3201 49.6435 38.383 49.5153 38.4084L49.5348 38.5065L49.5543 38.6046C49.7213 38.5714 49.8746 38.4895 49.995 38.3692L49.9243 38.2984ZM50.147 37.7605L50.047 37.7605C50.047 37.9358 49.9775 38.1038 49.8536 38.2277L49.9243 38.2984L49.995 38.3691C50.1564 38.2077 50.247 37.9888 50.247 37.7605L50.147 37.7605ZM50.147 20.6625L50.047 20.6625L50.047 37.7605L50.147 37.7605L50.247 37.7605L50.247 20.6625L50.147 20.6625ZM53.8309 24.3464L53.9016 24.2757L50.2177 20.5918L50.147 20.6625L50.0763 20.7332L53.7602 24.4171L53.8309 24.3464ZM54.3688 24.5692V24.4692C54.1936 24.4692 54.0255 24.3996 53.9016 24.2757L53.8309 24.3464L53.7602 24.4171C53.9216 24.5785 54.1405 24.6692 54.3688 24.6692V24.5692Z" fill="#CB8734" mask="url(#path-5-outside-1_3995_2563)"/>
<mask id="path-7-outside-2_3995_2563" maskUnits="userSpaceOnUse" x="16.777" y="36.3045" width="24.0416" height="24.0416" fill="black">
<rect fill="white" x="16.777" y="36.3045" width="24.0416" height="24.0416"/>
<path fill-rule="evenodd" clip-rule="evenodd" d="M18.5912 48.4034C18.6205 48.551 18.6929 48.6865 18.7993 48.7929C18.8025 48.7961 18.8057 48.7993 18.809 48.8025L23.7821 53.7756C23.9248 53.9182 24.1183 53.9984 24.32 53.9984C24.5218 53.9984 24.7153 53.9182 24.8579 53.7756C25.0006 53.6329 25.0808 53.4394 25.0808 53.2377C25.0808 53.0359 25.0006 52.8424 24.8579 52.6998L21.1738 49.0156L38.2715 49.0156C38.4709 49.0121 38.661 48.9305 38.8008 48.7882C38.9406 48.6459 39.019 48.4545 39.019 48.255C39.019 48.0555 38.9406 47.864 38.8008 47.7218C38.661 47.5795 38.4709 47.4979 38.2715 47.4944L21.1739 47.4944L24.8579 43.8103C24.9286 43.7397 24.9846 43.6558 25.0228 43.5635C25.0611 43.4712 25.0808 43.3723 25.0808 43.2724C25.0808 43.1725 25.0611 43.0736 25.0228 42.9813C24.9846 42.889 24.9286 42.8052 24.8579 42.7345C24.7873 42.6639 24.7034 42.6078 24.6111 42.5696C24.5189 42.5314 24.4199 42.5117 24.32 42.5117C24.2201 42.5117 24.1212 42.5314 24.0289 42.5696C23.9366 42.6078 23.8528 42.6639 23.7821 42.7345L18.8042 47.7125"/>
</mask>
<path fill-rule="evenodd" clip-rule="evenodd" d="M18.5912 48.4034C18.6205 48.551 18.6929 48.6865 18.7993 48.7929C18.8025 48.7961 18.8057 48.7993 18.809 48.8025L23.7821 53.7756C23.9248 53.9182 24.1183 53.9984 24.32 53.9984C24.5218 53.9984 24.7153 53.9182 24.8579 53.7756C25.0006 53.6329 25.0808 53.4394 25.0808 53.2377C25.0808 53.0359 25.0006 52.8424 24.8579 52.6998L21.1738 49.0156L38.2715 49.0156C38.4709 49.0121 38.661 48.9305 38.8008 48.7882C38.9406 48.6459 39.019 48.4545 39.019 48.255C39.019 48.0555 38.9406 47.864 38.8008 47.7218C38.661 47.5795 38.4709 47.4979 38.2715 47.4944L21.1739 47.4944L24.8579 43.8103C24.9286 43.7397 24.9846 43.6558 25.0228 43.5635C25.0611 43.4712 25.0808 43.3723 25.0808 43.2724C25.0808 43.1725 25.0611 43.0736 25.0228 42.9813C24.9846 42.889 24.9286 42.8052 24.8579 42.7345C24.7873 42.6639 24.7034 42.6078 24.6111 42.5696C24.5189 42.5314 24.4199 42.5117 24.32 42.5117C24.2201 42.5117 24.1212 42.5314 24.0289 42.5696C23.9366 42.6078 23.8528 42.6639 23.7821 42.7345L18.8042 47.7125" fill="#CB8734"/>
<path d="M18.8042 47.7125L18.7564 47.6977L18.5434 48.3887L18.5912 48.4034L18.639 48.4182L18.852 47.7272L18.8042 47.7125ZM18.7993 48.7929L18.7286 48.8636L18.7286 48.8636L18.7993 48.7929ZM18.809 48.8025L18.8797 48.7317L18.8784 48.7305L18.809 48.8025ZM21.1738 49.0156L21.1738 48.9156L20.9324 48.9156L21.1031 49.0863L21.1738 49.0156ZM38.2715 49.0156L38.2715 49.1156L38.2732 49.1156L38.2715 49.0156ZM38.8008 48.7882L38.7295 48.7181L38.7295 48.7181L38.8008 48.7882ZM39.019 48.255L39.119 48.255L39.019 48.255ZM38.8008 47.7218L38.8721 47.6517L38.8008 47.7218ZM38.2715 47.4944L38.2732 47.3944L38.2715 47.3944L38.2715 47.4944ZM21.1739 47.4944L21.1032 47.4237L20.9325 47.5944L21.1739 47.5944L21.1739 47.4944ZM25.0808 43.2724L25.1808 43.2724L25.1808 43.2724H25.0808ZM24.6111 42.5696L24.6494 42.4772L24.6494 42.4772L24.6111 42.5696ZM24.32 42.5117L24.32 42.4117L24.32 42.4117L24.32 42.5117ZM24.0289 42.5696L23.9907 42.4772L24.0289 42.5696ZM23.7821 42.7345L23.8528 42.8052L23.7821 42.7345ZM18.7993 48.7929L18.87 48.7222C18.7776 48.6298 18.7147 48.5121 18.6893 48.3839L18.5912 48.4034L18.4931 48.4229C18.5263 48.5899 18.6082 48.7432 18.7286 48.8636L18.7993 48.7929ZM18.809 48.8025L18.8784 48.7305C18.8756 48.7277 18.8728 48.725 18.87 48.7222L18.7993 48.7929L18.7286 48.8636C18.7322 48.8673 18.7359 48.8709 18.7396 48.8744L18.809 48.8025ZM23.7821 53.7756L23.8528 53.7049L18.8797 48.7317L18.809 48.8025L18.7383 48.8732L23.7114 53.8463L23.7821 53.7756ZM24.32 53.9984V53.8984C24.1448 53.8984 23.9768 53.8288 23.8528 53.7049L23.7821 53.7756L23.7114 53.8463C23.8728 54.0077 24.0918 54.0984 24.32 54.0984V53.9984ZM24.8579 53.7756L24.7872 53.7049C24.6633 53.8288 24.4953 53.8984 24.32 53.8984V53.9984V54.0984C24.5483 54.0984 24.7672 54.0077 24.9287 53.8463L24.8579 53.7756ZM25.0808 53.2377H24.9808C24.9808 53.4129 24.9111 53.581 24.7872 53.7049L24.8579 53.7756L24.9287 53.8463C25.0901 53.6849 25.1808 53.4659 25.1808 53.2377H25.0808ZM24.8579 52.6998L24.7872 52.7705C24.9111 52.8944 24.9808 53.0624 24.9808 53.2377H25.0808H25.1808C25.1808 53.0094 25.0901 52.7905 24.9287 52.6291L24.8579 52.6998ZM21.1738 49.0156L21.1031 49.0863L24.7872 52.7705L24.8579 52.6998L24.9287 52.6291L21.2445 48.9449L21.1738 49.0156ZM38.2715 49.0156L38.2715 48.9156L21.1738 48.9156L21.1738 49.0156L21.1738 49.1156L38.2715 49.1156L38.2715 49.0156ZM38.8008 48.7882L38.7295 48.7181C38.6081 48.8417 38.443 48.9126 38.2697 48.9156L38.2715 49.0156L38.2732 49.1156C38.4989 49.1117 38.714 49.0193 38.8721 48.8583L38.8008 48.7882ZM39.019 48.255L38.919 48.255C38.919 48.4282 38.8509 48.5946 38.7295 48.7181L38.8008 48.7882L38.8721 48.8583C39.0303 48.6973 39.119 48.4807 39.119 48.255L39.019 48.255ZM38.8008 47.7218L38.7295 47.7919C38.8509 47.9154 38.919 48.0818 38.919 48.255L39.019 48.255L39.119 48.255C39.119 48.0293 39.0303 47.8127 38.8721 47.6517L38.8008 47.7218ZM38.2715 47.4944L38.2697 47.5944C38.443 47.5974 38.6081 47.6683 38.7295 47.7919L38.8008 47.7218L38.8721 47.6517C38.714 47.4907 38.4989 47.3983 38.2732 47.3944L38.2715 47.4944ZM21.1739 47.4944L21.1739 47.5944L38.2715 47.5944L38.2715 47.4944L38.2715 47.3944L21.1739 47.3944L21.1739 47.4944ZM24.8579 43.8103L24.7872 43.7396L21.1032 47.4237L21.1739 47.4944L21.2446 47.5651L24.9287 43.881L24.8579 43.8103ZM25.0228 43.5635L24.9305 43.5253C24.8973 43.6054 24.8486 43.6783 24.7872 43.7396L24.8579 43.8103L24.9287 43.881C25.0086 43.8011 25.072 43.7062 25.1152 43.6018L25.0228 43.5635ZM25.0808 43.2724L24.9808 43.2724C24.9808 43.3592 24.9637 43.4451 24.9305 43.5253L25.0228 43.5635L25.1152 43.6018C25.1585 43.4974 25.1808 43.3854 25.1808 43.2724L25.0808 43.2724ZM25.0228 42.9813L24.9305 43.0196C24.9637 43.0997 24.9808 43.1857 24.9808 43.2724H25.0808H25.1808C25.1808 43.1594 25.1585 43.0475 25.1152 42.943L25.0228 42.9813ZM24.8579 42.7345L24.7872 42.8052C24.8486 42.8666 24.8973 42.9394 24.9305 43.0196L25.0228 42.9813L25.1152 42.943C25.072 42.8386 25.0086 42.7437 24.9287 42.6638L24.8579 42.7345ZM24.6111 42.5696L24.5729 42.662C24.653 42.6952 24.7259 42.7439 24.7872 42.8052L24.8579 42.7345L24.9287 42.6638C24.8487 42.5839 24.7538 42.5205 24.6494 42.4772L24.6111 42.5696ZM24.32 42.5117L24.32 42.6117C24.4068 42.6117 24.4927 42.6288 24.5729 42.662L24.6111 42.5696L24.6494 42.4772C24.545 42.434 24.4331 42.4117 24.32 42.4117L24.32 42.5117ZM24.0289 42.5696L24.0672 42.662C24.1474 42.6288 24.2333 42.6117 24.32 42.6117L24.32 42.5117L24.32 42.4117C24.207 42.4117 24.0951 42.434 23.9907 42.4772L24.0289 42.5696ZM23.7821 42.7345L23.8528 42.8052C23.9142 42.7439 23.987 42.6952 24.0672 42.662L24.0289 42.5696L23.9907 42.4772C23.8862 42.5205 23.7913 42.5839 23.7114 42.6638L23.7821 42.7345ZM18.8042 47.7125L18.8749 47.7832L23.8528 42.8052L23.7821 42.7345L23.7114 42.6638L18.7335 47.6418L18.8042 47.7125Z" fill="#CB8734" mask="url(#path-7-outside-2_3995_2563)"/>
</svg>
