<svg width="62" height="62" viewBox="0 0 62 62" fill="none" xmlns="http://www.w3.org/2000/svg">
<rect opacity="0.58" width="62" height="62" fill="white"/>
<path d="M13.6133 2.94336C13.84 1.13567 15.4985 -0.149488 17.3105 0.0761719L53.1045 4.55371C54.8813 4.77607 56.2027 6.4683 55.9805 8.24316L54.4863 20.165L54.4805 20.2109L54.5254 20.2197C56.6979 20.673 57.9959 22.8199 57.6426 24.957L57.6357 24.999L57.6758 25.0127C59.5616 25.6728 60.7628 27.633 60.5078 29.6123L59.0693 40.7725C58.849 42.4805 56.9598 43.501 55.4131 42.7715L55.3506 42.7422L55.3418 42.8096L54.2285 51.4551C54.0896 52.5338 53.4822 53.5488 52.6035 54.1865L52.582 54.2021L52.583 54.2295L52.7344 57.4854C52.7449 57.7115 52.6654 57.9325 52.5137 58.1006L49.6289 61.2939C49.2173 61.749 48.4962 61.6253 48.2305 61.1133L46.7627 58.2852L46.751 58.2627L46.7246 58.2588L38.2529 57.1855L38.2295 57.1826L38.2119 57.2002L33.7002 61.6982C33.5383 61.857 33.3194 61.9501 33.0928 61.9502H5.3623C3.53596 61.9502 2.0498 60.4674 2.0498 58.6455V51.085C2.0498 50.611 2.43437 50.2266 2.9082 50.2266C3.38194 50.2267 3.76562 50.6111 3.76562 51.085V58.6455C3.76562 59.5217 4.4824 60.2344 5.3623 60.2344H32.2344V52.7744C32.2344 50.9525 33.7207 49.4697 35.5469 49.4697H43.0322V11.1865C43.0322 10.3105 42.3162 9.59784 41.4365 9.59766H5.3623C4.4824 9.59766 3.76562 10.3104 3.76562 11.1865V46.248C3.75393 46.5382 3.64263 46.7507 3.48438 46.8906C3.32519 47.0313 3.1158 47.1011 2.90527 47.0996C2.51113 47.0967 2.11999 46.8452 2.05762 46.3496L2.0498 46.2471V11.1865C2.0498 9.36475 3.53608 7.88184 5.3623 7.88184H12.9961L13.001 7.83789L13.6074 3H13.6084V2.99609C13.6094 2.97869 13.6111 2.96101 13.6133 2.94336ZM48.6074 54.6611L47.9404 56.7969L47.9336 56.8164L47.9434 56.835L49.1514 59.1621L49.1846 59.2256L49.2324 59.1729L50.9902 57.2275L51.0039 57.2119L51.0029 57.1914L50.8984 54.9551L50.8965 54.9004L50.8418 54.9082C50.1091 55.0162 49.3563 54.9201 48.6748 54.6299L48.624 54.6084L48.6074 54.6611ZM35.5469 51.1855C34.667 51.1855 33.9501 51.8984 33.9502 52.7744V59.0254L34.0361 58.9404L41.7285 51.2715L41.8145 51.1855H35.5469ZM17.0977 1.77832C16.2364 1.67024 15.4468 2.26987 15.3203 3.12012V3.12402C15.3192 3.13984 15.3174 3.15537 15.3154 3.1709L14.7324 7.82617L14.7256 7.88184H41.4365C43.2627 7.88208 44.7482 9.36491 44.748 11.1865V50.3281C44.748 50.564 44.6504 50.7605 44.4932 50.9375L39.8408 55.5762L39.7686 55.6484L39.8701 55.6611L46.2031 56.4629L46.2451 56.4688L46.2578 56.4287L47.1621 53.5322L47.1699 53.5068L47.1533 53.4863C46.4641 52.6456 46.1354 51.5083 46.2744 50.4297L49.0508 28.8857L49.7275 23.6309C49.8644 22.5686 50.4069 21.6232 51.2549 20.9688C51.695 20.6292 52.1901 20.3901 52.7129 20.2568L52.7461 20.248L52.751 20.2148L54.2773 8.03027C54.3854 7.16669 53.7523 6.36348 52.8916 6.25586L17.0977 1.77832ZM57.4004 26.834L56.6562 32.6133C56.6205 32.89 56.4874 33.0808 56.3125 33.1963C56.1364 33.3125 55.9141 33.3547 55.6992 33.3271C55.4842 33.2995 55.2797 33.2021 55.1387 33.0449C54.9986 32.8888 54.9184 32.6706 54.9541 32.3936L55.1865 30.5918L55.1924 30.542L55.1426 30.5361L50.6924 29.9629L50.6426 29.9561L50.6367 30.0059L47.9766 50.6494C47.8166 51.8909 48.7166 53.0577 49.958 53.2178C51.1995 53.3777 52.3663 52.4769 52.5264 51.2354L54.3379 37.1729C54.3736 36.8961 54.5067 36.7054 54.6816 36.5898C54.8578 36.4736 55.0801 36.4314 55.2949 36.459C55.5099 36.4866 55.7145 36.5841 55.8555 36.7412C55.9955 36.8973 56.0758 37.1155 56.04 37.3926L55.6611 40.3301C55.6245 40.5928 55.7047 40.8085 55.8486 40.9648C55.9916 41.1201 56.1962 41.2152 56.4072 41.2441C56.618 41.273 56.8396 41.2366 57.0186 41.124C57.199 41.0104 57.3326 40.8212 57.3672 40.5527L58.8057 29.3936C58.8937 28.7104 58.7098 28.0334 58.2891 27.4883C58.065 27.198 57.7867 26.9649 57.4736 26.7959L57.4102 26.7617L57.4004 26.834ZM53.9971 21.8682C53.3898 21.7901 52.7876 21.9529 52.3027 22.3271C51.8178 22.7015 51.508 23.243 51.4297 23.8506L50.8682 28.2041L50.8623 28.2539L50.9111 28.2607L55.3623 28.834L55.4121 28.8398L55.418 28.791C55.6049 27.3397 55.7924 25.888 55.9795 24.4365C56.1411 23.1822 55.2515 22.03 53.9971 21.8682Z" fill="#CB8734" stroke="white" stroke-width="0.1"/>
<path d="M8.18457 13.0186H38.4912C38.9652 13.0186 39.3496 13.403 39.3496 13.877V20.0312C39.3496 20.5052 38.9652 20.8896 38.4912 20.8896H8.18457C7.71073 20.8896 7.32617 20.5052 7.32617 20.0312V13.877C7.32617 13.403 7.71073 13.0186 8.18457 13.0186ZM9.04199 19.1738H37.6338V14.7344H9.04199V19.1738Z" fill="#CB8734" stroke="white" stroke-width="0.1"/>
<path d="M37.6318 25.6162L37.7344 25.625C38.7675 25.7562 38.7337 27.2936 37.6318 27.332H9.16699C8.06541 27.2943 8.0302 25.7569 9.06348 25.625L9.16699 25.6162H37.6318Z" fill="#CB8734" stroke="white" stroke-width="0.1"/>
<path d="M37.6318 31.792L37.7344 31.8008C38.7674 31.9321 38.7336 33.4693 37.6318 33.5078H18.877C17.7754 33.4701 17.7402 31.9327 18.7734 31.8008L18.877 31.792H37.6318Z" fill="#CB8734" stroke="white" stroke-width="0.1"/>
<path d="M37.6328 37.9639C38.1068 37.9639 38.4912 38.3483 38.4912 38.8223C38.4911 39.2961 38.1067 39.6797 37.6328 39.6797H18.877C17.7754 39.6419 17.7402 38.1046 18.7734 37.9727L18.877 37.9639H37.6328Z" fill="#CB8734" stroke="white" stroke-width="0.1"/>
<path d="M11.1992 29.6562C11.4355 29.6476 11.6739 29.7408 11.8438 29.9395C12.0134 30.1382 12.1191 30.4473 12.0801 30.874L12.0762 30.918L12.1191 30.9268C12.7114 31.0577 13.1816 31.3192 13.4756 31.5547L13.5908 31.6543L13.5938 31.6562L13.5957 31.6572C13.5972 31.6585 13.5995 31.6605 13.6025 31.6631C13.6087 31.6684 13.6176 31.677 13.6289 31.6875C13.6516 31.7085 13.6838 31.7391 13.7197 31.7783C13.792 31.8571 13.8791 31.9688 13.9443 32.0996C14.0095 32.2304 14.0512 32.3781 14.0342 32.5322C14.0173 32.6853 13.9421 32.8502 13.7646 33.0146C13.5709 33.1942 13.3921 33.2755 13.2344 33.2988C13.0764 33.3222 12.9347 33.2884 12.8154 33.2324C12.6958 33.1763 12.5993 33.0973 12.5322 33.0322C12.4988 32.9998 12.4724 32.9717 12.4551 32.9512C12.4464 32.9409 12.4398 32.9323 12.4355 32.9268C12.4337 32.9244 12.4326 32.9222 12.4316 32.9209L12.4297 32.9189L12.4248 32.9121L12.4189 32.9072L12.2441 32.7979C11.8184 32.5642 11.2651 32.495 10.7529 32.6504C10.3298 32.7788 10.1175 33.1695 10.0576 33.4863C10.0029 33.7758 10.0847 34.0197 10.248 34.2236C10.41 34.4258 10.6514 34.5892 10.918 34.7236C11.4491 34.9916 12.1038 35.1571 12.4639 35.2852C13.8986 35.7956 14.6929 37.1284 14.4434 38.6045C14.2542 39.7227 13.4177 40.8558 12.1162 41.2246L12.0732 41.2363L12.0801 41.2803C12.1454 41.7209 12.0552 42.0527 11.8926 42.2764C11.7298 42.5003 11.4919 42.6195 11.252 42.6318C11.0121 42.6442 10.7699 42.5497 10.5977 42.3438C10.4256 42.1379 10.3195 41.8163 10.3633 41.3682L10.3682 41.3184L10.3193 41.3135C9.68529 41.2436 9.16254 41.0541 8.45117 40.5859C8.08013 40.3417 7.96008 39.8582 8.16113 39.4727L8.20605 39.3975C8.46676 39.0016 8.99869 38.8921 9.39453 39.1523C9.72731 39.3714 9.96568 39.4949 10.2314 39.5615C10.4962 39.6278 10.7852 39.6369 11.2158 39.6338C12.1199 39.6277 12.6457 38.9455 12.752 38.3184C12.7782 38.1627 12.7969 37.8922 12.6914 37.6182C12.5849 37.3416 12.3531 37.0665 11.8887 36.9014C10.5269 36.4169 9.74414 36.0373 9.17969 35.5918C8.50174 35.0564 8.1893 34.1284 8.37109 33.167C8.56326 32.1517 9.32995 31.2716 10.3271 30.9893L10.3691 30.9766L10.3633 30.9346C10.3087 30.5135 10.4027 30.1984 10.5654 29.9873C10.7283 29.776 10.9628 29.665 11.1992 29.6562Z" fill="#CB8734" stroke="white" stroke-width="0.1"/>
<path d="M26.1602 54.2217L26.2627 54.2305C27.2957 54.3617 27.2621 55.899 26.1602 55.9375H9.16699C8.06541 55.8998 8.0302 54.3624 9.06348 54.2305L9.16699 54.2217H26.1602Z" fill="#CB8734" stroke="white" stroke-width="0.1"/>
</svg>
