<svg width="134" height="126" viewBox="0 0 134 126" fill="none" xmlns="http://www.w3.org/2000/svg">
<path d="M7.92379 75.9V85H6.12979V77.616H2.91879V85H1.12479V75.9H7.92379ZM15.0779 84.194C14.4106 84.8527 13.5959 85.182 12.6339 85.182C11.6719 85.182 10.8573 84.8527 10.1899 84.194C9.53128 83.5267 9.20195 82.712 9.20195 81.75C9.20195 80.788 9.53128 79.9777 10.1899 79.319C10.8573 78.6517 11.6719 78.318 12.6339 78.318C13.5959 78.318 14.4106 78.6517 15.0779 79.319C15.7453 79.9777 16.0789 80.788 16.0789 81.75C16.0789 82.712 15.7453 83.5267 15.0779 84.194ZM11.3729 83.037C11.7109 83.375 12.1313 83.544 12.6339 83.544C13.1366 83.544 13.5569 83.375 13.8949 83.037C14.2329 82.699 14.4019 82.27 14.4019 81.75C14.4019 81.23 14.2329 80.801 13.8949 80.463C13.5569 80.125 13.1366 79.956 12.6339 79.956C12.1313 79.956 11.7109 80.125 11.3729 80.463C11.0436 80.801 10.8789 81.23 10.8789 81.75C10.8789 82.27 11.0436 82.699 11.3729 83.037ZM20.3527 85.182C19.3734 85.182 18.5544 84.8527 17.8957 84.194C17.2457 83.5353 16.9207 82.7207 16.9207 81.75C16.9207 80.7793 17.2457 79.9647 17.8957 79.306C18.5544 78.6473 19.3734 78.318 20.3527 78.318C20.9854 78.318 21.5617 78.4697 22.0817 78.773C22.6017 79.0763 22.996 79.4837 23.2647 79.995L21.8217 80.84C21.6917 80.5713 21.4924 80.359 21.2237 80.203C20.9637 80.047 20.669 79.969 20.3397 79.969C19.837 79.969 19.421 80.138 19.0917 80.476C18.7624 80.8053 18.5977 81.23 18.5977 81.75C18.5977 82.2613 18.7624 82.686 19.0917 83.024C19.421 83.3533 19.837 83.518 20.3397 83.518C20.6777 83.518 20.9767 83.4443 21.2367 83.297C21.5054 83.141 21.7047 82.9287 21.8347 82.66L23.2907 83.492C23.0047 84.0033 22.6017 84.415 22.0817 84.727C21.5617 85.0303 20.9854 85.182 20.3527 85.182ZM30.9884 78.5V85H29.3634V81.204L27.7124 83.804H27.5044L25.8404 81.178V85H24.2284V78.5H25.8794L27.6084 81.23L29.3374 78.5H30.9884ZM38.0565 84.194C37.3891 84.8527 36.5745 85.182 35.6125 85.182C34.6505 85.182 33.8358 84.8527 33.1685 84.194C32.5098 83.5267 32.1805 82.712 32.1805 81.75C32.1805 80.788 32.5098 79.9777 33.1685 79.319C33.8358 78.6517 34.6505 78.318 35.6125 78.318C36.5745 78.318 37.3891 78.6517 38.0565 79.319C38.7238 79.9777 39.0575 80.788 39.0575 81.75C39.0575 82.712 38.7238 83.5267 38.0565 84.194ZM34.3515 83.037C34.6895 83.375 35.1098 83.544 35.6125 83.544C36.1151 83.544 36.5355 83.375 36.8735 83.037C37.2115 82.699 37.3805 82.27 37.3805 81.75C37.3805 81.23 37.2115 80.801 36.8735 80.463C36.5355 80.125 36.1151 79.956 35.6125 79.956C35.1098 79.956 34.6895 80.125 34.3515 80.463C34.0221 80.801 33.8575 81.23 33.8575 81.75C33.8575 82.27 34.0221 82.699 34.3515 83.037ZM45.1053 78.5V80.112H43.0773V85H41.4003V80.112H39.3463V78.5H45.1053ZM49.7839 78.318C50.6592 78.318 51.4046 78.6517 52.0199 79.319C52.6439 79.9777 52.9559 80.788 52.9559 81.75C52.9559 82.712 52.6439 83.5267 52.0199 84.194C51.4046 84.8527 50.6592 85.182 49.7839 85.182C48.8739 85.182 48.1719 84.8657 47.6779 84.233V87.6H46.0009V78.5H47.6779V79.267C48.1719 78.6343 48.8739 78.318 49.7839 78.318ZM48.1849 83.076C48.5229 83.414 48.9519 83.583 49.4719 83.583C49.9919 83.583 50.4209 83.414 50.7589 83.076C51.1056 82.7293 51.2789 82.2873 51.2789 81.75C51.2789 81.2127 51.1056 80.775 50.7589 80.437C50.4209 80.0903 49.9919 79.917 49.4719 79.917C48.9519 79.917 48.5229 80.0903 48.1849 80.437C47.8469 80.775 47.6779 81.2127 47.6779 81.75C47.6779 82.2873 47.8469 82.7293 48.1849 83.076ZM55.5556 82.439C55.7809 83.2537 56.3919 83.661 57.3886 83.661C58.0299 83.661 58.5152 83.4443 58.8446 83.011L60.1966 83.791C59.5552 84.7183 58.6106 85.182 57.3626 85.182C56.2879 85.182 55.4256 84.857 54.7756 84.207C54.1256 83.557 53.8006 82.738 53.8006 81.75C53.8006 80.7707 54.1212 79.956 54.7626 79.306C55.4039 78.6473 56.2272 78.318 57.2326 78.318C58.1859 78.318 58.9702 78.6473 59.5856 79.306C60.2096 79.9647 60.5216 80.7793 60.5216 81.75C60.5216 81.9667 60.4999 82.1963 60.4566 82.439H55.5556ZM55.5296 81.139H58.8446C58.7492 80.697 58.5499 80.3677 58.2466 80.151C57.9519 79.9343 57.6139 79.826 57.2326 79.826C56.7819 79.826 56.4092 79.943 56.1146 80.177C55.8199 80.4023 55.6249 80.723 55.5296 81.139ZM66.5604 78.5V80.112H64.5324V85H62.8554V80.112H60.8014V78.5H66.5604ZM70.394 80.58C71.1306 80.58 71.7243 80.7837 72.175 81.191C72.6256 81.5897 72.851 82.1227 72.851 82.79C72.851 83.4573 72.6256 83.9947 72.175 84.402C71.7243 84.8007 71.1306 85 70.394 85H67.456V78.5H69.133V80.58H70.394ZM70.407 83.518C70.641 83.518 70.8316 83.453 70.979 83.323C71.135 83.1843 71.213 83.0067 71.213 82.79C71.213 82.5733 71.135 82.3957 70.979 82.257C70.8316 82.1183 70.641 82.049 70.407 82.049H69.133V83.518H70.407ZM83.1482 85H81.1982L78.8322 82.049V85H77.1552V78.5H78.8322V81.36L81.0682 78.5H83.0702L80.4572 81.711L83.1482 85ZM89.0535 84.194C88.3862 84.8527 87.5715 85.182 86.6095 85.182C85.6475 85.182 84.8329 84.8527 84.1655 84.194C83.5069 83.5267 83.1775 82.712 83.1775 81.75C83.1775 80.788 83.5069 79.9777 84.1655 79.319C84.8329 78.6517 85.6475 78.318 86.6095 78.318C87.5715 78.318 88.3862 78.6517 89.0535 79.319C89.7209 79.9777 90.0545 80.788 90.0545 81.75C90.0545 82.712 89.7209 83.5267 89.0535 84.194ZM85.3485 83.037C85.6865 83.375 86.1069 83.544 86.6095 83.544C87.1122 83.544 87.5325 83.375 87.8705 83.037C88.2085 82.699 88.3775 82.27 88.3775 81.75C88.3775 81.23 88.2085 80.801 87.8705 80.463C87.5325 80.125 87.1122 79.956 86.6095 79.956C86.1069 79.956 85.6865 80.125 85.3485 80.463C85.0192 80.801 84.8545 81.23 84.8545 81.75C84.8545 82.27 85.0192 82.699 85.3485 83.037ZM95.0173 78.318C95.8926 78.318 96.638 78.6517 97.2533 79.319C97.8773 79.9777 98.1893 80.788 98.1893 81.75C98.1893 82.712 97.8773 83.5267 97.2533 84.194C96.638 84.8527 95.8926 85.182 95.0173 85.182C94.1073 85.182 93.4053 84.8657 92.9113 84.233V87.6H91.2343V78.5H92.9113V79.267C93.4053 78.6343 94.1073 78.318 95.0173 78.318ZM93.4183 83.076C93.7563 83.414 94.1853 83.583 94.7053 83.583C95.2253 83.583 95.6543 83.414 95.9923 83.076C96.339 82.7293 96.5123 82.2873 96.5123 81.75C96.5123 81.2127 96.339 80.775 95.9923 80.437C95.6543 80.0903 95.2253 79.917 94.7053 79.917C94.1853 79.917 93.7563 80.0903 93.4183 80.437C93.0803 80.775 92.9113 81.2127 92.9113 81.75C92.9113 82.2873 93.0803 82.7293 93.4183 83.076ZM104.91 84.194C104.243 84.8527 103.428 85.182 102.466 85.182C101.504 85.182 100.689 84.8527 100.022 84.194C99.3633 83.5267 99.034 82.712 99.034 81.75C99.034 80.788 99.3633 79.9777 100.022 79.319C100.689 78.6517 101.504 78.318 102.466 78.318C103.428 78.318 104.243 78.6517 104.91 79.319C105.577 79.9777 105.911 80.788 105.911 81.75C105.911 82.712 105.577 83.5267 104.91 84.194ZM101.205 83.037C101.543 83.375 101.963 83.544 102.466 83.544C102.969 83.544 103.389 83.375 103.727 83.037C104.065 82.699 104.234 82.27 104.234 81.75C104.234 81.23 104.065 80.801 103.727 80.463C103.389 80.125 102.969 79.956 102.466 79.956C101.963 79.956 101.543 80.125 101.205 80.463C100.876 80.801 100.711 81.23 100.711 81.75C100.711 82.27 100.876 82.699 101.205 83.037ZM111.959 78.5V80.112H109.931V85H108.254V80.112H106.2V78.5H111.959ZM118.847 85H116.897L114.531 82.049V85H112.854V78.5H114.531V81.36L116.767 78.5H118.769L116.156 81.711L118.847 85ZM124.753 84.194C124.085 84.8527 123.271 85.182 122.309 85.182C121.347 85.182 120.532 84.8527 119.865 84.194C119.206 83.5267 118.877 82.712 118.877 81.75C118.877 80.788 119.206 79.9777 119.865 79.319C120.532 78.6517 121.347 78.318 122.309 78.318C123.271 78.318 124.085 78.6517 124.753 79.319C125.42 79.9777 125.754 80.788 125.754 81.75C125.754 82.712 125.42 83.5267 124.753 84.194ZM121.048 83.037C121.386 83.375 121.806 83.544 122.309 83.544C122.811 83.544 123.232 83.375 123.57 83.037C123.908 82.699 124.077 82.27 124.077 81.75C124.077 81.23 123.908 80.801 123.57 80.463C123.232 80.125 122.811 79.956 122.309 79.956C121.806 79.956 121.386 80.125 121.048 80.463C120.718 80.801 120.554 81.23 120.554 81.75C120.554 82.27 120.718 82.699 121.048 83.037ZM128.351 82.439C128.576 83.2537 129.187 83.661 130.184 83.661C130.825 83.661 131.31 83.4443 131.64 83.011L132.992 83.791C132.35 84.7183 131.406 85.182 130.158 85.182C129.083 85.182 128.221 84.857 127.571 84.207C126.921 83.557 126.596 82.738 126.596 81.75C126.596 80.7707 126.916 79.956 127.558 79.306C128.199 78.6473 129.022 78.318 130.028 78.318C130.981 78.318 131.765 78.6473 132.381 79.306C133.005 79.9647 133.317 80.7793 133.317 81.75C133.317 81.9667 133.295 82.1963 133.252 82.439H128.351ZM128.325 81.139H131.64C131.544 80.697 131.345 80.3677 131.042 80.151C130.747 79.9343 130.409 79.826 130.028 79.826C129.577 79.826 129.204 79.943 128.91 80.177C128.615 80.4023 128.42 80.723 128.325 81.139ZM16.7019 99.672C17.3085 99.9667 17.6119 100.461 17.6119 101.154C17.6119 101.7 17.4212 102.146 17.0399 102.493C16.6672 102.831 16.1342 103 15.4409 103H12.0219V96.5H15.1809C15.8655 96.5 16.3942 96.669 16.7669 97.007C17.1482 97.345 17.3389 97.787 17.3389 98.333C17.3389 98.905 17.1265 99.3513 16.7019 99.672ZM15.0249 97.878H13.5949V99.048H15.0249C15.5015 99.048 15.7399 98.853 15.7399 98.463C15.7399 98.073 15.5015 97.878 15.0249 97.878ZM15.2459 101.583C15.7312 101.583 15.9739 101.375 15.9739 100.959C15.9739 100.777 15.9089 100.634 15.7789 100.53C15.6489 100.426 15.4712 100.374 15.2459 100.374H13.5949V101.583H15.2459ZM23.3545 96.5H24.6025V103H22.9645V99.308L19.9095 103H18.6615V96.5H20.2995V100.192L23.3545 96.5ZM31.9891 101.427H32.8471V104.742H31.2091V103H27.1791V104.742H25.5411V101.427H26.3341C26.7067 100.872 26.8931 100.105 26.8931 99.126V96.5H31.9891V101.427ZM28.1281 101.427H30.3511V98.008H28.5311V99.126C28.5311 100.045 28.3967 100.812 28.1281 101.427ZM35.0717 100.439C35.297 101.254 35.908 101.661 36.9047 101.661C37.546 101.661 38.0314 101.444 38.3607 101.011L39.7127 101.791C39.0714 102.718 38.1267 103.182 36.8787 103.182C35.804 103.182 34.9417 102.857 34.2917 102.207C33.6417 101.557 33.3167 100.738 33.3167 99.75C33.3167 98.7707 33.6374 97.956 34.2787 97.306C34.92 96.6473 35.7434 96.318 36.7487 96.318C37.702 96.318 38.4864 96.6473 39.1017 97.306C39.7257 97.9647 40.0377 98.7793 40.0377 99.75C40.0377 99.9667 40.016 100.196 39.9727 100.439H35.0717ZM35.0457 99.139H38.3607C38.2654 98.697 38.066 98.3677 37.7627 98.151C37.468 97.9343 37.13 97.826 36.7487 97.826C36.298 97.826 35.9254 97.943 35.6307 98.177C35.336 98.4023 35.141 98.723 35.0457 99.139ZM46.6956 102.194C46.0283 102.853 45.2136 103.182 44.2516 103.182C43.2896 103.182 42.475 102.853 41.8076 102.194C41.149 101.527 40.8196 100.712 40.8196 99.75C40.8196 98.788 41.149 97.9777 41.8076 97.319C42.475 96.6517 43.2896 96.318 44.2516 96.318C45.2136 96.318 46.0283 96.6517 46.6956 97.319C47.363 97.9777 47.6966 98.788 47.6966 99.75C47.6966 100.712 47.363 101.527 46.6956 102.194ZM42.9906 101.037C43.3286 101.375 43.749 101.544 44.2516 101.544C44.7543 101.544 45.1746 101.375 45.5126 101.037C45.8506 100.699 46.0196 100.27 46.0196 99.75C46.0196 99.23 45.8506 98.801 45.5126 98.463C45.1746 98.125 44.7543 97.956 44.2516 97.956C43.749 97.956 43.3286 98.125 42.9906 98.463C42.6613 98.801 42.4966 99.23 42.4966 99.75C42.4966 100.27 42.6613 100.699 42.9906 101.037ZM57.6644 102.194C56.997 102.853 56.1824 103.182 55.2204 103.182C54.2584 103.182 53.4437 102.853 52.7764 102.194C52.1177 101.527 51.7884 100.712 51.7884 99.75C51.7884 98.788 52.1177 97.9777 52.7764 97.319C53.4437 96.6517 54.2584 96.318 55.2204 96.318C56.1824 96.318 56.997 96.6517 57.6644 97.319C58.3317 97.9777 58.6654 98.788 58.6654 99.75C58.6654 100.712 58.3317 101.527 57.6644 102.194ZM53.9594 101.037C54.2974 101.375 54.7177 101.544 55.2204 101.544C55.723 101.544 56.1434 101.375 56.4814 101.037C56.8194 100.699 56.9884 100.27 56.9884 99.75C56.9884 99.23 56.8194 98.801 56.4814 98.463C56.1434 98.125 55.723 97.956 55.2204 97.956C54.7177 97.956 54.2974 98.125 53.9594 98.463C53.63 98.801 53.4654 99.23 53.4654 99.75C53.4654 100.27 53.63 100.699 53.9594 101.037ZM69.0881 103H67.1381L64.7721 100.049V103H63.0951V96.5H64.7721V99.36L67.0081 96.5H69.0101L66.3971 99.711L69.0881 103ZM74.9935 102.194C74.3261 102.853 73.5115 103.182 72.5495 103.182C71.5875 103.182 70.7728 102.853 70.1055 102.194C69.4468 101.527 69.1175 100.712 69.1175 99.75C69.1175 98.788 69.4468 97.9777 70.1055 97.319C70.7728 96.6517 71.5875 96.318 72.5495 96.318C73.5115 96.318 74.3261 96.6517 74.9935 97.319C75.6608 97.9777 75.9945 98.788 75.9945 99.75C75.9945 100.712 75.6608 101.527 74.9935 102.194ZM71.2885 101.037C71.6265 101.375 72.0468 101.544 72.5495 101.544C73.0521 101.544 73.4725 101.375 73.8105 101.037C74.1485 100.699 74.3175 100.27 74.3175 99.75C74.3175 99.23 74.1485 98.801 73.8105 98.463C73.4725 98.125 73.0521 97.956 72.5495 97.956C72.0468 97.956 71.6265 98.125 71.2885 98.463C70.9591 98.801 70.7945 99.23 70.7945 99.75C70.7945 100.27 70.9591 100.699 71.2885 101.037ZM83.9342 96.5V103H82.3092V99.204L80.6582 101.804H80.4502L78.7862 99.178V103H77.1742V96.5H78.8252L80.5542 99.23L82.2832 96.5H83.9342ZM91.4053 96.5V103H89.7283V98.073H87.1413V103H85.4643V96.5H91.4053ZM97.8818 96.5H99.5588V103H97.8818V102.233C97.3791 102.866 96.6728 103.182 95.7628 103.182C94.8961 103.182 94.1508 102.853 93.5268 102.194C92.9115 101.527 92.6038 100.712 92.6038 99.75C92.6038 98.788 92.9115 97.9777 93.5268 97.319C94.1508 96.6517 94.8961 96.318 95.7628 96.318C96.6728 96.318 97.3791 96.6343 97.8818 97.267V96.5ZM94.7878 101.076C95.1258 101.414 95.5548 101.583 96.0748 101.583C96.5948 101.583 97.0238 101.414 97.3618 101.076C97.7085 100.729 97.8818 100.287 97.8818 99.75C97.8818 99.2127 97.7085 98.775 97.3618 98.437C97.0238 98.0903 96.5948 97.917 96.0748 97.917C95.5548 97.917 95.1258 98.0903 94.7878 98.437C94.4498 98.775 94.2808 99.2127 94.2808 99.75C94.2808 100.287 94.4498 100.729 94.7878 101.076ZM105.344 96.5H107.021V103H105.344V100.53H102.757V103H101.08V96.5H102.757V98.957H105.344V96.5ZM113.25 96.5H114.498V103H112.86V99.308L109.805 103H108.557V96.5H110.195V100.192L113.25 96.5ZM120.728 96.5H121.976V103H120.338V99.308L117.283 103H116.035V96.5H117.673V100.192L120.728 96.5ZM39.4374 122.3C38.484 120.393 38.0074 118.443 38.0074 116.45C38.0074 114.457 38.484 112.507 39.4374 110.6H41.1144C40.161 112.507 39.6844 114.457 39.6844 116.45C39.6844 118.443 40.161 120.393 41.1144 122.3H39.4374ZM41.6557 121V119.661L44.7627 116.463C45.456 115.735 45.8027 115.128 45.8027 114.643C45.8027 114.288 45.69 114.002 45.4647 113.785C45.248 113.568 44.9664 113.46 44.6197 113.46C43.935 113.46 43.428 113.815 43.0987 114.526L41.5907 113.642C41.8767 113.018 42.2884 112.541 42.8257 112.212C43.363 111.883 43.9524 111.718 44.5937 111.718C45.417 111.718 46.1234 111.978 46.7127 112.498C47.302 113.009 47.5967 113.703 47.5967 114.578C47.5967 115.523 47.0984 116.493 46.1017 117.49L44.3207 119.271H47.7397V121H41.6557ZM50.7329 116.19C50.5163 116.407 50.2563 116.515 49.9529 116.515C49.6496 116.515 49.3896 116.407 49.1729 116.19C48.9563 115.973 48.8479 115.713 48.8479 115.41C48.8479 115.107 48.9563 114.847 49.1729 114.63C49.3896 114.413 49.6496 114.305 49.9529 114.305C50.2563 114.305 50.5163 114.413 50.7329 114.63C50.9496 114.847 51.0579 115.107 51.0579 115.41C51.0579 115.713 50.9496 115.973 50.7329 116.19ZM50.7329 120.844C50.5163 121.061 50.2563 121.169 49.9529 121.169C49.6496 121.169 49.3896 121.061 49.1729 120.844C48.9563 120.627 48.8479 120.367 48.8479 120.064C48.8479 119.761 48.9563 119.501 49.1729 119.284C49.3896 119.067 49.6496 118.959 49.9529 118.959C50.2563 118.959 50.5163 119.067 50.7329 119.284C50.9496 119.501 51.0579 119.761 51.0579 120.064C51.0579 120.367 50.9496 120.627 50.7329 120.844ZM59.0475 117.789V119.453H58.0725V121H56.2655V119.453H51.9625V117.789L54.9915 111.9H56.9155L53.8995 117.789H56.2655V115.631H58.0725V117.789H59.0475ZM59.6449 121V119.661L62.7519 116.463C63.4453 115.735 63.7919 115.128 63.7919 114.643C63.7919 114.288 63.6793 114.002 63.4539 113.785C63.2373 113.568 62.9556 113.46 62.6089 113.46C61.9243 113.46 61.4173 113.815 61.0879 114.526L59.5799 113.642C59.8659 113.018 60.2776 112.541 60.8149 112.212C61.3523 111.883 61.9416 111.718 62.5829 111.718C63.4063 111.718 64.1126 111.978 64.7019 112.498C65.2913 113.009 65.5859 113.703 65.5859 114.578C65.5859 115.523 65.0876 116.493 64.0909 117.49L62.3099 119.271H65.7289V121H59.6449ZM76.9772 114.5V121H75.3522V117.204L73.7012 119.804H73.4932L71.8292 117.178V121H70.2172V114.5H71.8682L73.5972 117.23L75.3262 114.5H76.9772ZM83.2002 114.5H84.4482V121H82.8102V117.308L79.7552 121H78.5072V114.5H80.1452V118.192L83.2002 114.5ZM90.2488 114.5H91.9258V121H90.2488V118.53H87.6618V121H85.9848V114.5H87.6618V116.957H90.2488V114.5ZM94.5673 122.3H92.8903C93.8436 120.393 94.3203 118.443 94.3203 116.45C94.3203 114.457 93.8436 112.507 92.8903 110.6H94.5673C95.5206 112.507 95.9973 114.457 95.9973 116.45C95.9973 118.443 95.5206 120.393 94.5673 122.3Z" fill="white"/>
<circle opacity="0.4" cx="67" cy="32" r="32" fill="#CB8734"/>
<circle cx="67" cy="32" r="22" fill="#CB8734"/>
<path d="M73.4096 30.5309C74.2668 31.3227 74.2668 32.6773 73.4096 33.4691L67.1071 39.2911C65.8261 40.4744 63.75 39.5659 63.75 37.822L63.75 26.178C63.75 24.4341 65.8261 23.5256 67.1071 24.7089L73.4096 30.5309Z" fill="white"/>
</svg>
